M48
; DRILL file {KiCad 9.0.4} date 2025-11-14T05:46:29+0100
; FORMAT={-:-/ absolute / metric / decimal}
; #@! TF.CreationDate,2025-11-14T05:46:29+01:00
; #@! TF.GenerationSoftware,Kicad,Pcbnew,9.0.4
; #@! TF.FileFunction,Plated,1,2,PTH
FMAT,2
METRIC
; #@! TA.AperFunction,Plated,PTH,ViaDrill
T1C0.300
; #@! TA.AperFunction,Plated,PTH,ComponentDrill
T2C0.650
; #@! TA.AperFunction,Plated,PTH,ComponentDrill
T3C0.700
; #@! TA.AperFunction,Plated,PTH,ComponentDrill
T4C0.800
; #@! TA.AperFunction,Plated,PTH,ComponentDrill
T5C1.200
; #@! TA.AperFunction,Plated,PTH,ViaDrill
T6C2.500
%
G90
G05
T1
X19.16Y-33.93
X19.16Y-37.32
X19.17Y-32.28
X20.31Y-38.55
X20.37Y-30.98
X21.21Y-29.1
X21.64Y-28.15
X22.88Y-33.23
X24.6Y-27.36
X24.795Y-32.09
X24.795Y-37.015
X25.07Y-28.05
X25.16Y-23.72
X25.16Y-26.17
X25.17Y-39.96
X25.65Y-20.95
X25.93Y-36.69
X26.675Y-33.97
X27.23Y-31.11
X27.37Y-28.89
X27.79Y-39.9
X27.825Y-27.94
X27.99Y-29.92
X28.035Y-38.345
X28.76Y-24.26
X29.675Y-42.3
X29.935Y-28.11
X30.3Y-36.1
X32.025Y-25.95
X32.225Y-22.025
X34.25Y-31.175
X34.3Y-42.3
X34.65Y-36.675
X34.825Y-19.05
X34.85Y-34.3
X37.075Y-29.5
X38.475Y-36.1
X40.025Y-41.35
X40.15Y-18.9
X43.75Y-37.65
X43.8Y-22.65
X43.8Y-27.35
X43.9Y-33.05
X46.225Y-41.85
T4
X29.875Y-32.75
X29.875Y-40.37
X32.415Y-32.75
X32.415Y-40.37
X34.955Y-32.75
X34.955Y-40.37
X37.495Y-32.75
X37.495Y-40.37
T5
X41.045Y-21.1
X41.045Y-23.64
X41.045Y-26.18
X41.045Y-28.72
X41.05Y-31.3
X41.05Y-33.84
X41.05Y-36.38
X41.05Y-38.92
X48.745Y-21.1
X48.745Y-28.72
X48.75Y-31.3
X48.75Y-38.92
T6
X20.35Y-17.775
X20.35Y-42.275
X49.975Y-17.775
X49.975Y-42.275
T2
G00X22.805Y-26.15
M15
G01X23.205Y-26.15
M16
G05
G00X22.805Y-21.31
M15
G01X23.205Y-21.31
M16
G05
T3
G00X19.755Y-26.46
M15
G01X20.255Y-26.46
M16
G05
G00X19.755Y-21.0
M15
G01X20.255Y-21.0
M16
G05
M30
