%TF.GenerationSoftware,KiCad,Pcbnew,8.0.5*%
%TF.CreationDate,2025-10-24T23:35:39+02:00*%
%TF.ProjectId,U2O,55324f2e-6b69-4636-9164-5f7063625858,rev?*%
%TF.SameCoordinates,Original*%
%TF.FileFunction,Legend,Top*%
%TF.FilePolarity,Positive*%
%FSLAX46Y46*%
G04 Gerber Fmt 4.6, Leading zero omitted, Abs format (unit mm)*
G04 Created by KiCad (PCBNEW 8.0.5) date 2025-10-24 23:35:39*
%MOMM*%
%LPD*%
G01*
G04 APERTURE LIST*
%ADD10C,0.150000*%
%ADD11C,0.120000*%
G04 APERTURE END LIST*
D10*
X31443337Y-27879579D02*
X31395718Y-27927199D01*
X31395718Y-27927199D02*
X31252861Y-27974818D01*
X31252861Y-27974818D02*
X31157623Y-27974818D01*
X31157623Y-27974818D02*
X31014766Y-27927199D01*
X31014766Y-27927199D02*
X30919528Y-27831960D01*
X30919528Y-27831960D02*
X30871909Y-27736722D01*
X30871909Y-27736722D02*
X30824290Y-27546246D01*
X30824290Y-27546246D02*
X30824290Y-27403389D01*
X30824290Y-27403389D02*
X30871909Y-27212913D01*
X30871909Y-27212913D02*
X30919528Y-27117675D01*
X30919528Y-27117675D02*
X31014766Y-27022437D01*
X31014766Y-27022437D02*
X31157623Y-26974818D01*
X31157623Y-26974818D02*
X31252861Y-26974818D01*
X31252861Y-26974818D02*
X31395718Y-27022437D01*
X31395718Y-27022437D02*
X31443337Y-27070056D01*
X32014766Y-27403389D02*
X31919528Y-27355770D01*
X31919528Y-27355770D02*
X31871909Y-27308151D01*
X31871909Y-27308151D02*
X31824290Y-27212913D01*
X31824290Y-27212913D02*
X31824290Y-27165294D01*
X31824290Y-27165294D02*
X31871909Y-27070056D01*
X31871909Y-27070056D02*
X31919528Y-27022437D01*
X31919528Y-27022437D02*
X32014766Y-26974818D01*
X32014766Y-26974818D02*
X32205242Y-26974818D01*
X32205242Y-26974818D02*
X32300480Y-27022437D01*
X32300480Y-27022437D02*
X32348099Y-27070056D01*
X32348099Y-27070056D02*
X32395718Y-27165294D01*
X32395718Y-27165294D02*
X32395718Y-27212913D01*
X32395718Y-27212913D02*
X32348099Y-27308151D01*
X32348099Y-27308151D02*
X32300480Y-27355770D01*
X32300480Y-27355770D02*
X32205242Y-27403389D01*
X32205242Y-27403389D02*
X32014766Y-27403389D01*
X32014766Y-27403389D02*
X31919528Y-27451008D01*
X31919528Y-27451008D02*
X31871909Y-27498627D01*
X31871909Y-27498627D02*
X31824290Y-27593865D01*
X31824290Y-27593865D02*
X31824290Y-27784341D01*
X31824290Y-27784341D02*
X31871909Y-27879579D01*
X31871909Y-27879579D02*
X31919528Y-27927199D01*
X31919528Y-27927199D02*
X32014766Y-27974818D01*
X32014766Y-27974818D02*
X32205242Y-27974818D01*
X32205242Y-27974818D02*
X32300480Y-27927199D01*
X32300480Y-27927199D02*
X32348099Y-27879579D01*
X32348099Y-27879579D02*
X32395718Y-27784341D01*
X32395718Y-27784341D02*
X32395718Y-27593865D01*
X32395718Y-27593865D02*
X32348099Y-27498627D01*
X32348099Y-27498627D02*
X32300480Y-27451008D01*
X32300480Y-27451008D02*
X32205242Y-27403389D01*
X31453333Y-20279580D02*
X31405714Y-20327200D01*
X31405714Y-20327200D02*
X31262857Y-20374819D01*
X31262857Y-20374819D02*
X31167619Y-20374819D01*
X31167619Y-20374819D02*
X31024762Y-20327200D01*
X31024762Y-20327200D02*
X30929524Y-20231961D01*
X30929524Y-20231961D02*
X30881905Y-20136723D01*
X30881905Y-20136723D02*
X30834286Y-19946247D01*
X30834286Y-19946247D02*
X30834286Y-19803390D01*
X30834286Y-19803390D02*
X30881905Y-19612914D01*
X30881905Y-19612914D02*
X30929524Y-19517676D01*
X30929524Y-19517676D02*
X31024762Y-19422438D01*
X31024762Y-19422438D02*
X31167619Y-19374819D01*
X31167619Y-19374819D02*
X31262857Y-19374819D01*
X31262857Y-19374819D02*
X31405714Y-19422438D01*
X31405714Y-19422438D02*
X31453333Y-19470057D01*
X31786667Y-19374819D02*
X32453333Y-19374819D01*
X32453333Y-19374819D02*
X32024762Y-20374819D01*
X25773333Y-31159580D02*
X25725714Y-31207200D01*
X25725714Y-31207200D02*
X25582857Y-31254819D01*
X25582857Y-31254819D02*
X25487619Y-31254819D01*
X25487619Y-31254819D02*
X25344762Y-31207200D01*
X25344762Y-31207200D02*
X25249524Y-31111961D01*
X25249524Y-31111961D02*
X25201905Y-31016723D01*
X25201905Y-31016723D02*
X25154286Y-30826247D01*
X25154286Y-30826247D02*
X25154286Y-30683390D01*
X25154286Y-30683390D02*
X25201905Y-30492914D01*
X25201905Y-30492914D02*
X25249524Y-30397676D01*
X25249524Y-30397676D02*
X25344762Y-30302438D01*
X25344762Y-30302438D02*
X25487619Y-30254819D01*
X25487619Y-30254819D02*
X25582857Y-30254819D01*
X25582857Y-30254819D02*
X25725714Y-30302438D01*
X25725714Y-30302438D02*
X25773333Y-30350057D01*
X26630476Y-30588152D02*
X26630476Y-31254819D01*
X26392381Y-30207200D02*
X26154286Y-30921485D01*
X26154286Y-30921485D02*
X26773333Y-30921485D01*
X25937142Y-37409580D02*
X25889523Y-37457200D01*
X25889523Y-37457200D02*
X25746666Y-37504819D01*
X25746666Y-37504819D02*
X25651428Y-37504819D01*
X25651428Y-37504819D02*
X25508571Y-37457200D01*
X25508571Y-37457200D02*
X25413333Y-37361961D01*
X25413333Y-37361961D02*
X25365714Y-37266723D01*
X25365714Y-37266723D02*
X25318095Y-37076247D01*
X25318095Y-37076247D02*
X25318095Y-36933390D01*
X25318095Y-36933390D02*
X25365714Y-36742914D01*
X25365714Y-36742914D02*
X25413333Y-36647676D01*
X25413333Y-36647676D02*
X25508571Y-36552438D01*
X25508571Y-36552438D02*
X25651428Y-36504819D01*
X25651428Y-36504819D02*
X25746666Y-36504819D01*
X25746666Y-36504819D02*
X25889523Y-36552438D01*
X25889523Y-36552438D02*
X25937142Y-36600057D01*
X26889523Y-37504819D02*
X26318095Y-37504819D01*
X26603809Y-37504819D02*
X26603809Y-36504819D01*
X26603809Y-36504819D02*
X26508571Y-36647676D01*
X26508571Y-36647676D02*
X26413333Y-36742914D01*
X26413333Y-36742914D02*
X26318095Y-36790533D01*
X27508571Y-36504819D02*
X27603809Y-36504819D01*
X27603809Y-36504819D02*
X27699047Y-36552438D01*
X27699047Y-36552438D02*
X27746666Y-36600057D01*
X27746666Y-36600057D02*
X27794285Y-36695295D01*
X27794285Y-36695295D02*
X27841904Y-36885771D01*
X27841904Y-36885771D02*
X27841904Y-37123866D01*
X27841904Y-37123866D02*
X27794285Y-37314342D01*
X27794285Y-37314342D02*
X27746666Y-37409580D01*
X27746666Y-37409580D02*
X27699047Y-37457200D01*
X27699047Y-37457200D02*
X27603809Y-37504819D01*
X27603809Y-37504819D02*
X27508571Y-37504819D01*
X27508571Y-37504819D02*
X27413333Y-37457200D01*
X27413333Y-37457200D02*
X27365714Y-37409580D01*
X27365714Y-37409580D02*
X27318095Y-37314342D01*
X27318095Y-37314342D02*
X27270476Y-37123866D01*
X27270476Y-37123866D02*
X27270476Y-36885771D01*
X27270476Y-36885771D02*
X27318095Y-36695295D01*
X27318095Y-36695295D02*
X27365714Y-36600057D01*
X27365714Y-36600057D02*
X27413333Y-36552438D01*
X27413333Y-36552438D02*
X27508571Y-36504819D01*
X33055833Y-24954819D02*
X32579643Y-24954819D01*
X32579643Y-24954819D02*
X32579643Y-23954819D01*
X33912976Y-24954819D02*
X33341548Y-24954819D01*
X33627262Y-24954819D02*
X33627262Y-23954819D01*
X33627262Y-23954819D02*
X33532024Y-24097676D01*
X33532024Y-24097676D02*
X33436786Y-24192914D01*
X33436786Y-24192914D02*
X33341548Y-24240533D01*
X19266666Y-28174819D02*
X19266666Y-28889104D01*
X19266666Y-28889104D02*
X19219047Y-29031961D01*
X19219047Y-29031961D02*
X19123809Y-29127200D01*
X19123809Y-29127200D02*
X18980952Y-29174819D01*
X18980952Y-29174819D02*
X18885714Y-29174819D01*
X19695238Y-28270057D02*
X19742857Y-28222438D01*
X19742857Y-28222438D02*
X19838095Y-28174819D01*
X19838095Y-28174819D02*
X20076190Y-28174819D01*
X20076190Y-28174819D02*
X20171428Y-28222438D01*
X20171428Y-28222438D02*
X20219047Y-28270057D01*
X20219047Y-28270057D02*
X20266666Y-28365295D01*
X20266666Y-28365295D02*
X20266666Y-28460533D01*
X20266666Y-28460533D02*
X20219047Y-28603390D01*
X20219047Y-28603390D02*
X19647619Y-29174819D01*
X19647619Y-29174819D02*
X20266666Y-29174819D01*
X30478333Y-38662319D02*
X30002143Y-38662319D01*
X30002143Y-38662319D02*
X30002143Y-37662319D01*
X30764048Y-37757557D02*
X30811667Y-37709938D01*
X30811667Y-37709938D02*
X30906905Y-37662319D01*
X30906905Y-37662319D02*
X31145000Y-37662319D01*
X31145000Y-37662319D02*
X31240238Y-37709938D01*
X31240238Y-37709938D02*
X31287857Y-37757557D01*
X31287857Y-37757557D02*
X31335476Y-37852795D01*
X31335476Y-37852795D02*
X31335476Y-37948033D01*
X31335476Y-37948033D02*
X31287857Y-38090890D01*
X31287857Y-38090890D02*
X30716429Y-38662319D01*
X30716429Y-38662319D02*
X31335476Y-38662319D01*
X29178095Y-35064819D02*
X29178095Y-35874342D01*
X29178095Y-35874342D02*
X29225714Y-35969580D01*
X29225714Y-35969580D02*
X29273333Y-36017200D01*
X29273333Y-36017200D02*
X29368571Y-36064819D01*
X29368571Y-36064819D02*
X29559047Y-36064819D01*
X29559047Y-36064819D02*
X29654285Y-36017200D01*
X29654285Y-36017200D02*
X29701904Y-35969580D01*
X29701904Y-35969580D02*
X29749523Y-35874342D01*
X29749523Y-35874342D02*
X29749523Y-35064819D01*
X30749523Y-36064819D02*
X30178095Y-36064819D01*
X30463809Y-36064819D02*
X30463809Y-35064819D01*
X30463809Y-35064819D02*
X30368571Y-35207676D01*
X30368571Y-35207676D02*
X30273333Y-35302914D01*
X30273333Y-35302914D02*
X30178095Y-35350533D01*
X34986666Y-17944819D02*
X34986666Y-18659104D01*
X34986666Y-18659104D02*
X34939047Y-18801961D01*
X34939047Y-18801961D02*
X34843809Y-18897200D01*
X34843809Y-18897200D02*
X34700952Y-18944819D01*
X34700952Y-18944819D02*
X34605714Y-18944819D01*
X35986666Y-18944819D02*
X35415238Y-18944819D01*
X35700952Y-18944819D02*
X35700952Y-17944819D01*
X35700952Y-17944819D02*
X35605714Y-18087676D01*
X35605714Y-18087676D02*
X35510476Y-18182914D01*
X35510476Y-18182914D02*
X35415238Y-18230533D01*
X30774821Y-31076665D02*
X30298630Y-31409998D01*
X30774821Y-31648093D02*
X29774821Y-31648093D01*
X29774821Y-31648093D02*
X29774821Y-31267141D01*
X29774821Y-31267141D02*
X29822440Y-31171903D01*
X29822440Y-31171903D02*
X29870059Y-31124284D01*
X29870059Y-31124284D02*
X29965297Y-31076665D01*
X29965297Y-31076665D02*
X30108154Y-31076665D01*
X30108154Y-31076665D02*
X30203392Y-31124284D01*
X30203392Y-31124284D02*
X30251011Y-31171903D01*
X30251011Y-31171903D02*
X30298630Y-31267141D01*
X30298630Y-31267141D02*
X30298630Y-31648093D01*
X30108154Y-30219522D02*
X30774821Y-30219522D01*
X29727202Y-30457617D02*
X30441487Y-30695712D01*
X30441487Y-30695712D02*
X30441487Y-30076665D01*
X20613333Y-31009580D02*
X20565714Y-31057200D01*
X20565714Y-31057200D02*
X20422857Y-31104819D01*
X20422857Y-31104819D02*
X20327619Y-31104819D01*
X20327619Y-31104819D02*
X20184762Y-31057200D01*
X20184762Y-31057200D02*
X20089524Y-30961961D01*
X20089524Y-30961961D02*
X20041905Y-30866723D01*
X20041905Y-30866723D02*
X19994286Y-30676247D01*
X19994286Y-30676247D02*
X19994286Y-30533390D01*
X19994286Y-30533390D02*
X20041905Y-30342914D01*
X20041905Y-30342914D02*
X20089524Y-30247676D01*
X20089524Y-30247676D02*
X20184762Y-30152438D01*
X20184762Y-30152438D02*
X20327619Y-30104819D01*
X20327619Y-30104819D02*
X20422857Y-30104819D01*
X20422857Y-30104819D02*
X20565714Y-30152438D01*
X20565714Y-30152438D02*
X20613333Y-30200057D01*
X21518095Y-30104819D02*
X21041905Y-30104819D01*
X21041905Y-30104819D02*
X20994286Y-30581009D01*
X20994286Y-30581009D02*
X21041905Y-30533390D01*
X21041905Y-30533390D02*
X21137143Y-30485771D01*
X21137143Y-30485771D02*
X21375238Y-30485771D01*
X21375238Y-30485771D02*
X21470476Y-30533390D01*
X21470476Y-30533390D02*
X21518095Y-30581009D01*
X21518095Y-30581009D02*
X21565714Y-30676247D01*
X21565714Y-30676247D02*
X21565714Y-30914342D01*
X21565714Y-30914342D02*
X21518095Y-31009580D01*
X21518095Y-31009580D02*
X21470476Y-31057200D01*
X21470476Y-31057200D02*
X21375238Y-31104819D01*
X21375238Y-31104819D02*
X21137143Y-31104819D01*
X21137143Y-31104819D02*
X21041905Y-31057200D01*
X21041905Y-31057200D02*
X20994286Y-31009580D01*
X23383333Y-37554819D02*
X23050000Y-37078628D01*
X22811905Y-37554819D02*
X22811905Y-36554819D01*
X22811905Y-36554819D02*
X23192857Y-36554819D01*
X23192857Y-36554819D02*
X23288095Y-36602438D01*
X23288095Y-36602438D02*
X23335714Y-36650057D01*
X23335714Y-36650057D02*
X23383333Y-36745295D01*
X23383333Y-36745295D02*
X23383333Y-36888152D01*
X23383333Y-36888152D02*
X23335714Y-36983390D01*
X23335714Y-36983390D02*
X23288095Y-37031009D01*
X23288095Y-37031009D02*
X23192857Y-37078628D01*
X23192857Y-37078628D02*
X22811905Y-37078628D01*
X23716667Y-36554819D02*
X24335714Y-36554819D01*
X24335714Y-36554819D02*
X24002381Y-36935771D01*
X24002381Y-36935771D02*
X24145238Y-36935771D01*
X24145238Y-36935771D02*
X24240476Y-36983390D01*
X24240476Y-36983390D02*
X24288095Y-37031009D01*
X24288095Y-37031009D02*
X24335714Y-37126247D01*
X24335714Y-37126247D02*
X24335714Y-37364342D01*
X24335714Y-37364342D02*
X24288095Y-37459580D01*
X24288095Y-37459580D02*
X24240476Y-37507200D01*
X24240476Y-37507200D02*
X24145238Y-37554819D01*
X24145238Y-37554819D02*
X23859524Y-37554819D01*
X23859524Y-37554819D02*
X23764286Y-37507200D01*
X23764286Y-37507200D02*
X23716667Y-37459580D01*
X30443333Y-41634574D02*
X30395714Y-41682194D01*
X30395714Y-41682194D02*
X30252857Y-41729813D01*
X30252857Y-41729813D02*
X30157619Y-41729813D01*
X30157619Y-41729813D02*
X30014762Y-41682194D01*
X30014762Y-41682194D02*
X29919524Y-41586955D01*
X29919524Y-41586955D02*
X29871905Y-41491717D01*
X29871905Y-41491717D02*
X29824286Y-41301241D01*
X29824286Y-41301241D02*
X29824286Y-41158384D01*
X29824286Y-41158384D02*
X29871905Y-40967908D01*
X29871905Y-40967908D02*
X29919524Y-40872670D01*
X29919524Y-40872670D02*
X30014762Y-40777432D01*
X30014762Y-40777432D02*
X30157619Y-40729813D01*
X30157619Y-40729813D02*
X30252857Y-40729813D01*
X30252857Y-40729813D02*
X30395714Y-40777432D01*
X30395714Y-40777432D02*
X30443333Y-40825051D01*
X30919524Y-41729813D02*
X31110000Y-41729813D01*
X31110000Y-41729813D02*
X31205238Y-41682194D01*
X31205238Y-41682194D02*
X31252857Y-41634574D01*
X31252857Y-41634574D02*
X31348095Y-41491717D01*
X31348095Y-41491717D02*
X31395714Y-41301241D01*
X31395714Y-41301241D02*
X31395714Y-40920289D01*
X31395714Y-40920289D02*
X31348095Y-40825051D01*
X31348095Y-40825051D02*
X31300476Y-40777432D01*
X31300476Y-40777432D02*
X31205238Y-40729813D01*
X31205238Y-40729813D02*
X31014762Y-40729813D01*
X31014762Y-40729813D02*
X30919524Y-40777432D01*
X30919524Y-40777432D02*
X30871905Y-40825051D01*
X30871905Y-40825051D02*
X30824286Y-40920289D01*
X30824286Y-40920289D02*
X30824286Y-41158384D01*
X30824286Y-41158384D02*
X30871905Y-41253622D01*
X30871905Y-41253622D02*
X30919524Y-41301241D01*
X30919524Y-41301241D02*
X31014762Y-41348860D01*
X31014762Y-41348860D02*
X31205238Y-41348860D01*
X31205238Y-41348860D02*
X31300476Y-41301241D01*
X31300476Y-41301241D02*
X31348095Y-41253622D01*
X31348095Y-41253622D02*
X31395714Y-41158384D01*
X29778332Y-20219578D02*
X29730713Y-20267198D01*
X29730713Y-20267198D02*
X29587856Y-20314817D01*
X29587856Y-20314817D02*
X29492618Y-20314817D01*
X29492618Y-20314817D02*
X29349761Y-20267198D01*
X29349761Y-20267198D02*
X29254523Y-20171959D01*
X29254523Y-20171959D02*
X29206904Y-20076721D01*
X29206904Y-20076721D02*
X29159285Y-19886245D01*
X29159285Y-19886245D02*
X29159285Y-19743388D01*
X29159285Y-19743388D02*
X29206904Y-19552912D01*
X29206904Y-19552912D02*
X29254523Y-19457674D01*
X29254523Y-19457674D02*
X29349761Y-19362436D01*
X29349761Y-19362436D02*
X29492618Y-19314817D01*
X29492618Y-19314817D02*
X29587856Y-19314817D01*
X29587856Y-19314817D02*
X29730713Y-19362436D01*
X29730713Y-19362436D02*
X29778332Y-19410055D01*
X30635475Y-19314817D02*
X30444999Y-19314817D01*
X30444999Y-19314817D02*
X30349761Y-19362436D01*
X30349761Y-19362436D02*
X30302142Y-19410055D01*
X30302142Y-19410055D02*
X30206904Y-19552912D01*
X30206904Y-19552912D02*
X30159285Y-19743388D01*
X30159285Y-19743388D02*
X30159285Y-20124340D01*
X30159285Y-20124340D02*
X30206904Y-20219578D01*
X30206904Y-20219578D02*
X30254523Y-20267198D01*
X30254523Y-20267198D02*
X30349761Y-20314817D01*
X30349761Y-20314817D02*
X30540237Y-20314817D01*
X30540237Y-20314817D02*
X30635475Y-20267198D01*
X30635475Y-20267198D02*
X30683094Y-20219578D01*
X30683094Y-20219578D02*
X30730713Y-20124340D01*
X30730713Y-20124340D02*
X30730713Y-19886245D01*
X30730713Y-19886245D02*
X30683094Y-19791007D01*
X30683094Y-19791007D02*
X30635475Y-19743388D01*
X30635475Y-19743388D02*
X30540237Y-19695769D01*
X30540237Y-19695769D02*
X30349761Y-19695769D01*
X30349761Y-19695769D02*
X30254523Y-19743388D01*
X30254523Y-19743388D02*
X30206904Y-19791007D01*
X30206904Y-19791007D02*
X30159285Y-19886245D01*
X23363333Y-36124819D02*
X23030000Y-35648628D01*
X22791905Y-36124819D02*
X22791905Y-35124819D01*
X22791905Y-35124819D02*
X23172857Y-35124819D01*
X23172857Y-35124819D02*
X23268095Y-35172438D01*
X23268095Y-35172438D02*
X23315714Y-35220057D01*
X23315714Y-35220057D02*
X23363333Y-35315295D01*
X23363333Y-35315295D02*
X23363333Y-35458152D01*
X23363333Y-35458152D02*
X23315714Y-35553390D01*
X23315714Y-35553390D02*
X23268095Y-35601009D01*
X23268095Y-35601009D02*
X23172857Y-35648628D01*
X23172857Y-35648628D02*
X22791905Y-35648628D01*
X23744286Y-35220057D02*
X23791905Y-35172438D01*
X23791905Y-35172438D02*
X23887143Y-35124819D01*
X23887143Y-35124819D02*
X24125238Y-35124819D01*
X24125238Y-35124819D02*
X24220476Y-35172438D01*
X24220476Y-35172438D02*
X24268095Y-35220057D01*
X24268095Y-35220057D02*
X24315714Y-35315295D01*
X24315714Y-35315295D02*
X24315714Y-35410533D01*
X24315714Y-35410533D02*
X24268095Y-35553390D01*
X24268095Y-35553390D02*
X23696667Y-36124819D01*
X23696667Y-36124819D02*
X24315714Y-36124819D01*
X23973334Y-40274821D02*
X23640001Y-39798630D01*
X23401906Y-40274821D02*
X23401906Y-39274821D01*
X23401906Y-39274821D02*
X23782858Y-39274821D01*
X23782858Y-39274821D02*
X23878096Y-39322440D01*
X23878096Y-39322440D02*
X23925715Y-39370059D01*
X23925715Y-39370059D02*
X23973334Y-39465297D01*
X23973334Y-39465297D02*
X23973334Y-39608154D01*
X23973334Y-39608154D02*
X23925715Y-39703392D01*
X23925715Y-39703392D02*
X23878096Y-39751011D01*
X23878096Y-39751011D02*
X23782858Y-39798630D01*
X23782858Y-39798630D02*
X23401906Y-39798630D01*
X24925715Y-40274821D02*
X24354287Y-40274821D01*
X24640001Y-40274821D02*
X24640001Y-39274821D01*
X24640001Y-39274821D02*
X24544763Y-39417678D01*
X24544763Y-39417678D02*
X24449525Y-39512916D01*
X24449525Y-39512916D02*
X24354287Y-39560535D01*
X34676666Y-40634819D02*
X34676666Y-41349104D01*
X34676666Y-41349104D02*
X34629047Y-41491961D01*
X34629047Y-41491961D02*
X34533809Y-41587200D01*
X34533809Y-41587200D02*
X34390952Y-41634819D01*
X34390952Y-41634819D02*
X34295714Y-41634819D01*
X35057619Y-40634819D02*
X35676666Y-40634819D01*
X35676666Y-40634819D02*
X35343333Y-41015771D01*
X35343333Y-41015771D02*
X35486190Y-41015771D01*
X35486190Y-41015771D02*
X35581428Y-41063390D01*
X35581428Y-41063390D02*
X35629047Y-41111009D01*
X35629047Y-41111009D02*
X35676666Y-41206247D01*
X35676666Y-41206247D02*
X35676666Y-41444342D01*
X35676666Y-41444342D02*
X35629047Y-41539580D01*
X35629047Y-41539580D02*
X35581428Y-41587200D01*
X35581428Y-41587200D02*
X35486190Y-41634819D01*
X35486190Y-41634819D02*
X35200476Y-41634819D01*
X35200476Y-41634819D02*
X35105238Y-41587200D01*
X35105238Y-41587200D02*
X35057619Y-41539580D01*
X23373333Y-34489580D02*
X23325714Y-34537200D01*
X23325714Y-34537200D02*
X23182857Y-34584819D01*
X23182857Y-34584819D02*
X23087619Y-34584819D01*
X23087619Y-34584819D02*
X22944762Y-34537200D01*
X22944762Y-34537200D02*
X22849524Y-34441961D01*
X22849524Y-34441961D02*
X22801905Y-34346723D01*
X22801905Y-34346723D02*
X22754286Y-34156247D01*
X22754286Y-34156247D02*
X22754286Y-34013390D01*
X22754286Y-34013390D02*
X22801905Y-33822914D01*
X22801905Y-33822914D02*
X22849524Y-33727676D01*
X22849524Y-33727676D02*
X22944762Y-33632438D01*
X22944762Y-33632438D02*
X23087619Y-33584819D01*
X23087619Y-33584819D02*
X23182857Y-33584819D01*
X23182857Y-33584819D02*
X23325714Y-33632438D01*
X23325714Y-33632438D02*
X23373333Y-33680057D01*
X23754286Y-33680057D02*
X23801905Y-33632438D01*
X23801905Y-33632438D02*
X23897143Y-33584819D01*
X23897143Y-33584819D02*
X24135238Y-33584819D01*
X24135238Y-33584819D02*
X24230476Y-33632438D01*
X24230476Y-33632438D02*
X24278095Y-33680057D01*
X24278095Y-33680057D02*
X24325714Y-33775295D01*
X24325714Y-33775295D02*
X24325714Y-33870533D01*
X24325714Y-33870533D02*
X24278095Y-34013390D01*
X24278095Y-34013390D02*
X23706667Y-34584819D01*
X23706667Y-34584819D02*
X24325714Y-34584819D01*
X23463333Y-32609580D02*
X23415714Y-32657200D01*
X23415714Y-32657200D02*
X23272857Y-32704819D01*
X23272857Y-32704819D02*
X23177619Y-32704819D01*
X23177619Y-32704819D02*
X23034762Y-32657200D01*
X23034762Y-32657200D02*
X22939524Y-32561961D01*
X22939524Y-32561961D02*
X22891905Y-32466723D01*
X22891905Y-32466723D02*
X22844286Y-32276247D01*
X22844286Y-32276247D02*
X22844286Y-32133390D01*
X22844286Y-32133390D02*
X22891905Y-31942914D01*
X22891905Y-31942914D02*
X22939524Y-31847676D01*
X22939524Y-31847676D02*
X23034762Y-31752438D01*
X23034762Y-31752438D02*
X23177619Y-31704819D01*
X23177619Y-31704819D02*
X23272857Y-31704819D01*
X23272857Y-31704819D02*
X23415714Y-31752438D01*
X23415714Y-31752438D02*
X23463333Y-31800057D01*
X24415714Y-32704819D02*
X23844286Y-32704819D01*
X24130000Y-32704819D02*
X24130000Y-31704819D01*
X24130000Y-31704819D02*
X24034762Y-31847676D01*
X24034762Y-31847676D02*
X23939524Y-31942914D01*
X23939524Y-31942914D02*
X23844286Y-31990533D01*
X25941905Y-29164815D02*
X25941905Y-28164815D01*
X25941905Y-28164815D02*
X26180000Y-28164815D01*
X26180000Y-28164815D02*
X26322857Y-28212434D01*
X26322857Y-28212434D02*
X26418095Y-28307672D01*
X26418095Y-28307672D02*
X26465714Y-28402910D01*
X26465714Y-28402910D02*
X26513333Y-28593386D01*
X26513333Y-28593386D02*
X26513333Y-28736243D01*
X26513333Y-28736243D02*
X26465714Y-28926719D01*
X26465714Y-28926719D02*
X26418095Y-29021957D01*
X26418095Y-29021957D02*
X26322857Y-29117196D01*
X26322857Y-29117196D02*
X26180000Y-29164815D01*
X26180000Y-29164815D02*
X25941905Y-29164815D01*
X27465714Y-29164815D02*
X26894286Y-29164815D01*
X27180000Y-29164815D02*
X27180000Y-28164815D01*
X27180000Y-28164815D02*
X27084762Y-28307672D01*
X27084762Y-28307672D02*
X26989524Y-28402910D01*
X26989524Y-28402910D02*
X26894286Y-28450529D01*
X31978335Y-41619576D02*
X31930716Y-41667196D01*
X31930716Y-41667196D02*
X31787859Y-41714815D01*
X31787859Y-41714815D02*
X31692621Y-41714815D01*
X31692621Y-41714815D02*
X31549764Y-41667196D01*
X31549764Y-41667196D02*
X31454526Y-41571957D01*
X31454526Y-41571957D02*
X31406907Y-41476719D01*
X31406907Y-41476719D02*
X31359288Y-41286243D01*
X31359288Y-41286243D02*
X31359288Y-41143386D01*
X31359288Y-41143386D02*
X31406907Y-40952910D01*
X31406907Y-40952910D02*
X31454526Y-40857672D01*
X31454526Y-40857672D02*
X31549764Y-40762434D01*
X31549764Y-40762434D02*
X31692621Y-40714815D01*
X31692621Y-40714815D02*
X31787859Y-40714815D01*
X31787859Y-40714815D02*
X31930716Y-40762434D01*
X31930716Y-40762434D02*
X31978335Y-40810053D01*
X32311669Y-40714815D02*
X32930716Y-40714815D01*
X32930716Y-40714815D02*
X32597383Y-41095767D01*
X32597383Y-41095767D02*
X32740240Y-41095767D01*
X32740240Y-41095767D02*
X32835478Y-41143386D01*
X32835478Y-41143386D02*
X32883097Y-41191005D01*
X32883097Y-41191005D02*
X32930716Y-41286243D01*
X32930716Y-41286243D02*
X32930716Y-41524338D01*
X32930716Y-41524338D02*
X32883097Y-41619576D01*
X32883097Y-41619576D02*
X32835478Y-41667196D01*
X32835478Y-41667196D02*
X32740240Y-41714815D01*
X32740240Y-41714815D02*
X32454526Y-41714815D01*
X32454526Y-41714815D02*
X32359288Y-41667196D01*
X32359288Y-41667196D02*
X32311669Y-41619576D01*
D11*
%TO.C,C8*%
X31000579Y-26510003D02*
X30719418Y-26510001D01*
X31000582Y-25489999D02*
X30719421Y-25489997D01*
%TO.C,C7*%
X31124996Y-21904422D02*
X31124998Y-22185579D01*
X32145004Y-21904429D02*
X32145006Y-22185586D01*
%TO.C,C4*%
X23724995Y-30035579D02*
X23724994Y-29754422D01*
X24745002Y-30035586D02*
X24745001Y-29754429D01*
%TO.C,C10*%
X26055001Y-39295581D02*
X26055002Y-39014421D01*
X27075002Y-39295583D02*
X27075003Y-39014423D01*
%TO.C,L1*%
X31012779Y-24920002D02*
X30687220Y-24920002D01*
X31012780Y-23899998D02*
X30687221Y-23899998D01*
%TO.C,J2*%
X18385000Y-19880000D02*
X21185000Y-19880001D01*
X18385000Y-27580000D02*
X21185000Y-27580000D01*
X21184995Y-19580001D02*
X21185000Y-19880001D01*
X21184995Y-19580001D02*
X22735000Y-19580003D01*
X21184999Y-27880000D02*
X22734997Y-27880002D01*
X21185000Y-27580000D02*
X21184999Y-27880000D01*
X23984997Y-22429999D02*
X24435000Y-22030000D01*
X24434999Y-22829999D02*
X23984997Y-22429999D01*
X24435000Y-22030000D02*
X24434999Y-22829999D01*
%TO.C,L2*%
X28539999Y-39292779D02*
X28539999Y-38967220D01*
X29560001Y-39292780D02*
X29560001Y-38967221D01*
%TO.C,U1*%
X25014997Y-35629998D02*
X25514999Y-35629998D01*
X25014999Y-32309996D02*
X25514999Y-32309998D01*
X25014999Y-32809998D02*
X25014999Y-32309996D01*
X25014999Y-35129998D02*
X25014997Y-35629998D01*
X27834999Y-32309998D02*
X28084999Y-32309998D01*
X28334999Y-32809998D02*
X28334999Y-32609996D01*
X28334999Y-35129998D02*
X28334999Y-35630000D01*
X28334999Y-35630000D02*
X27834999Y-35629998D01*
X28664999Y-32549998D02*
X28335001Y-32309998D01*
X28664999Y-32069998D01*
X28664999Y-32549998D01*
G36*
X28664999Y-32549998D02*
G01*
X28335001Y-32309998D01*
X28664999Y-32069998D01*
X28664999Y-32549998D01*
G37*
%TO.C,J1*%
X33360000Y-19580000D02*
X40740000Y-19580000D01*
X33360000Y-19593000D02*
X33360000Y-20820000D01*
X33360000Y-20820000D02*
X33860000Y-20820000D01*
X33360000Y-24180000D02*
X33360000Y-25420000D01*
X33360000Y-25420000D02*
X33860000Y-25420000D01*
X33360000Y-28780000D02*
X33360000Y-30020000D01*
X33360000Y-30020000D02*
X45680000Y-30020000D01*
X33860000Y-20820000D02*
X33860000Y-24180000D01*
X33860000Y-24180000D02*
X33360000Y-24180000D01*
X33860000Y-25420000D02*
X33860000Y-28780000D01*
X33860000Y-28780000D02*
X33360000Y-28780000D01*
X35280000Y-19320000D02*
X37280000Y-19320000D01*
X40740000Y-18080000D02*
X40740000Y-19580000D01*
X41590000Y-19220000D02*
X42250000Y-19220000D01*
X41590000Y-19580000D02*
X41590000Y-19220000D01*
X42250000Y-18080000D02*
X40740000Y-18080000D01*
X42250000Y-19220000D02*
X42250000Y-18080000D01*
X45680000Y-19580000D02*
X41610000Y-19580000D01*
X45680000Y-30020000D02*
X50110000Y-28500000D01*
X47210000Y-21250000D02*
X50410000Y-22110000D01*
X47210000Y-28570000D02*
X47210000Y-21250000D01*
X50120000Y-21100000D02*
X45690000Y-19580000D01*
X50420000Y-27480000D02*
X47210000Y-28570000D01*
X50119757Y-21099810D02*
G75*
G02*
X50410000Y-22110000I510243J-400190D01*
G01*
X50411216Y-27481507D02*
G75*
G02*
X50110000Y-28500000I218784J-618493D01*
G01*
%TO.C,R4*%
X31407505Y-32532741D02*
X31407500Y-33007257D01*
X32452500Y-32532743D02*
X32452495Y-33007259D01*
%TO.C,C5*%
X22034997Y-30035575D02*
X22034996Y-29754418D01*
X23055004Y-30035582D02*
X23055003Y-29754425D01*
%TO.C,R3*%
X21367256Y-37832498D02*
X20892740Y-37832495D01*
X21367258Y-36787501D02*
X20892742Y-36787498D01*
%TO.C,C9*%
X30115001Y-39260575D02*
X30115002Y-38979415D01*
X31135002Y-39260577D02*
X31135003Y-38979417D01*
%TO.C,C6*%
X29459996Y-21914422D02*
X29459998Y-22195579D01*
X30480004Y-21914429D02*
X30480006Y-22195586D01*
%TO.C,R2*%
X20892744Y-35147505D02*
X21367258Y-35147510D01*
X20892744Y-36192500D02*
X21367258Y-36192505D01*
%TO.C,R1*%
X24377258Y-38912502D02*
X23902742Y-38912499D01*
X24377260Y-37867505D02*
X23902744Y-37867502D01*
%TO.C,J3*%
X33360000Y-29770000D02*
X40740000Y-29770000D01*
X33360000Y-29783000D02*
X33360000Y-31010000D01*
X33360000Y-31010000D02*
X33860000Y-31010000D01*
X33360000Y-34370000D02*
X33360000Y-35610000D01*
X33360000Y-35610000D02*
X33860000Y-35610000D01*
X33360000Y-38970000D02*
X33360000Y-40210000D01*
X33360000Y-40210000D02*
X45680000Y-40210000D01*
X33860000Y-31010000D02*
X33860000Y-34370000D01*
X33860000Y-34370000D02*
X33360000Y-34370000D01*
X33860000Y-35610000D02*
X33860000Y-38970000D01*
X33860000Y-38970000D02*
X33360000Y-38970000D01*
X35280000Y-29510000D02*
X37280000Y-29510000D01*
X40740000Y-28270000D02*
X40740000Y-29770000D01*
X41590000Y-29410000D02*
X42250000Y-29410000D01*
X41590000Y-29770000D02*
X41590000Y-29410000D01*
X42250000Y-28270000D02*
X40740000Y-28270000D01*
X42250000Y-29410000D02*
X42250000Y-28270000D01*
X45680000Y-29770000D02*
X41610000Y-29770000D01*
X45680000Y-40210000D02*
X50110000Y-38690000D01*
X47210000Y-31440000D02*
X50410000Y-32300000D01*
X47210000Y-38760000D02*
X47210000Y-31440000D01*
X50120000Y-31290000D02*
X45690000Y-29770000D01*
X50420000Y-37670000D02*
X47210000Y-38760000D01*
X50119757Y-31289810D02*
G75*
G02*
X50410000Y-32300000I510243J-400190D01*
G01*
X50411216Y-37671507D02*
G75*
G02*
X50110000Y-38690000I218784J-618493D01*
G01*
%TO.C,C2*%
X21285577Y-34440003D02*
X21004416Y-34440001D01*
X21285580Y-33419999D02*
X21004419Y-33419997D01*
%TO.C,C1*%
X21285579Y-32760003D02*
X21004418Y-32760001D01*
X21285582Y-31739999D02*
X21004421Y-31739997D01*
%TO.C,D1*%
X26050002Y-27569995D02*
X27320001Y-27569997D01*
X27350000Y-24449999D02*
X26050004Y-24449997D01*
X27940000Y-27849998D02*
X27460004Y-27849997D01*
X27700002Y-27519997D01*
X27940000Y-27849998D01*
G36*
X27940000Y-27849998D02*
G01*
X27460004Y-27849997D01*
X27700002Y-27519997D01*
X27940000Y-27849998D01*
G37*
%TO.C,C3*%
X31699999Y-39245573D02*
X31700000Y-38964413D01*
X32720000Y-39245575D02*
X32720001Y-38964415D01*
%TD*%
M02*
