%TF.GenerationSoftware,KiCad,Pcbnew,8.0.5*%
%TF.CreationDate,2025-10-24T23:35:39+02:00*%
%TF.ProjectId,U2O,55324f2e-6b69-4636-9164-5f7063625858,rev?*%
%TF.SameCoordinates,Original*%
%TF.FileFunction,Paste,Top*%
%TF.FilePolarity,Positive*%
%FSLAX46Y46*%
G04 Gerber Fmt 4.6, Leading zero omitted, Abs format (unit mm)*
G04 Created by KiCad (PCBNEW 8.0.5) date 2025-10-24 23:35:39*
%MOMM*%
%LPD*%
G01*
G04 APERTURE LIST*
G04 Aperture macros list*
%AMRoundRect*
0 Rectangle with rounded corners*
0 $1 Rounding radius*
0 $2 $3 $4 $5 $6 $7 $8 $9 X,Y pos of 4 corners*
0 Add a 4 corners polygon primitive as box body*
4,1,4,$2,$3,$4,$5,$6,$7,$8,$9,$2,$3,0*
0 Add four circle primitives for the rounded corners*
1,1,$1+$1,$2,$3*
1,1,$1+$1,$4,$5*
1,1,$1+$1,$6,$7*
1,1,$1+$1,$8,$9*
0 Add four rect primitives between the rounded corners*
20,1,$1+$1,$2,$3,$4,$5,0*
20,1,$1+$1,$4,$5,$6,$7,0*
20,1,$1+$1,$6,$7,$8,$9,0*
20,1,$1+$1,$8,$9,$2,$3,0*%
G04 Aperture macros list end*
%ADD10RoundRect,0.225000X0.225000X0.250000X-0.225000X0.250000X-0.225000X-0.250000X0.225000X-0.250000X0*%
%ADD11RoundRect,0.225000X-0.250000X0.225000X-0.250000X-0.225000X0.250000X-0.225000X0.250000X0.225000X0*%
%ADD12RoundRect,0.225000X0.250000X-0.225000X0.250000X0.225000X-0.250000X0.225000X-0.250000X-0.225000X0*%
%ADD13RoundRect,0.218750X0.218750X0.256250X-0.218750X0.256250X-0.218750X-0.256250X0.218750X-0.256250X0*%
%ADD14R,1.650000X0.400000*%
%ADD15R,0.700000X1.825000*%
%ADD16R,1.500000X2.000000*%
%ADD17R,2.000000X1.350000*%
%ADD18R,2.500000X1.430000*%
%ADD19RoundRect,0.218750X0.256250X-0.218750X0.256250X0.218750X-0.256250X0.218750X-0.256250X-0.218750X0*%
%ADD20R,0.540000X0.540000*%
%ADD21R,0.300000X0.300000*%
%ADD22R,0.300000X0.900000*%
%ADD23R,0.900000X0.300000*%
%ADD24RoundRect,0.200000X-0.275000X0.200000X-0.275000X-0.200000X0.275000X-0.200000X0.275000X0.200000X0*%
%ADD25RoundRect,0.200000X0.200000X0.275000X-0.200000X0.275000X-0.200000X-0.275000X0.200000X-0.275000X0*%
%ADD26RoundRect,0.200000X-0.200000X-0.275000X0.200000X-0.275000X0.200000X0.275000X-0.200000X0.275000X0*%
%ADD27RoundRect,0.175000X0.175000X0.325000X-0.175000X0.325000X-0.175000X-0.325000X0.175000X-0.325000X0*%
%ADD28RoundRect,0.150000X0.200000X0.150000X-0.200000X0.150000X-0.200000X-0.150000X0.200000X-0.150000X0*%
G04 APERTURE END LIST*
D10*
%TO.C,C8*%
X31634996Y-26000001D03*
X30085004Y-25999999D03*
%TD*%
D11*
%TO.C,C7*%
X31635002Y-21270008D03*
X31635000Y-22820000D03*
%TD*%
D12*
%TO.C,C4*%
X24234998Y-30670004D03*
X24234998Y-29120004D03*
%TD*%
%TO.C,C10*%
X26565000Y-39930000D03*
X26565004Y-38380004D03*
%TD*%
D13*
%TO.C,L1*%
X31637500Y-24410000D03*
X30062500Y-24410000D03*
%TD*%
D14*
%TO.C,J2*%
X22884998Y-22430001D03*
X22885000Y-23080000D03*
X22885003Y-23729998D03*
X22885000Y-24380000D03*
X22885000Y-25030001D03*
D15*
X21685000Y-20780000D03*
D16*
X22985000Y-20880000D03*
D17*
X20935003Y-21000000D03*
D18*
X19735002Y-22770001D03*
X19734997Y-24689998D03*
D17*
X20935001Y-26479999D03*
D16*
X23004997Y-26629997D03*
D15*
X21685003Y-26730000D03*
%TD*%
D19*
%TO.C,L2*%
X29050000Y-39917500D03*
X29050000Y-38342500D03*
%TD*%
D20*
%TO.C,U1*%
X26225001Y-33519998D03*
X27124999Y-33520000D03*
X26224999Y-34419996D03*
X27124997Y-34419998D03*
D21*
X27925001Y-32719997D03*
D22*
X27425000Y-32419999D03*
X26925002Y-32420001D03*
X26424999Y-32419998D03*
X25925000Y-32419998D03*
D21*
X25424998Y-32719996D03*
D23*
X25125000Y-33219997D03*
X25125002Y-33719995D03*
X25124999Y-34219998D03*
X25124999Y-34719997D03*
D21*
X25424997Y-35219999D03*
D22*
X25924998Y-35519997D03*
X26424996Y-35519995D03*
X26924999Y-35519998D03*
X27424998Y-35519998D03*
D21*
X27925000Y-35220000D03*
D23*
X28224998Y-34719999D03*
X28224996Y-34220001D03*
X28224999Y-33719998D03*
X28224999Y-33219999D03*
%TD*%
D24*
%TO.C,R4*%
X31929997Y-31945001D03*
X31930003Y-33594999D03*
%TD*%
D12*
%TO.C,C5*%
X22545000Y-30670000D03*
X22545000Y-29120000D03*
%TD*%
D25*
%TO.C,R3*%
X21954998Y-37309996D03*
X20305000Y-37310000D03*
%TD*%
D12*
%TO.C,C9*%
X30625000Y-39894994D03*
X30625004Y-38344998D03*
%TD*%
D11*
%TO.C,C6*%
X29970002Y-21280008D03*
X29970000Y-22830000D03*
%TD*%
D26*
%TO.C,R2*%
X20305002Y-35670010D03*
X21955000Y-35670000D03*
%TD*%
D25*
%TO.C,R1*%
X24965000Y-38390000D03*
X23315002Y-38390004D03*
%TD*%
D10*
%TO.C,C2*%
X21919994Y-33930001D03*
X20370002Y-33929999D03*
%TD*%
%TO.C,C1*%
X21919996Y-32250001D03*
X20370004Y-32249999D03*
%TD*%
D27*
%TO.C,D1*%
X27700000Y-26759999D03*
D28*
X27700002Y-25059994D03*
X25700001Y-25059999D03*
X25700000Y-26960000D03*
%TD*%
D12*
%TO.C,C3*%
X32209998Y-39879992D03*
X32210002Y-38329996D03*
%TD*%
M02*
