%TF.GenerationSoftware,KiCad,Pcbnew,8.0.5*%
%TF.CreationDate,2025-10-24T23:35:39+02:00*%
%TF.ProjectId,U2O,55324f2e-6b69-4636-9164-5f7063625858,rev?*%
%TF.SameCoordinates,Original*%
%TF.FileFunction,Copper,L1,Top*%
%TF.FilePolarity,Positive*%
%FSLAX46Y46*%
G04 Gerber Fmt 4.6, Leading zero omitted, Abs format (unit mm)*
G04 Created by KiCad (PCBNEW 8.0.5) date 2025-10-24 23:35:39*
%MOMM*%
%LPD*%
G01*
G04 APERTURE LIST*
G04 Aperture macros list*
%AMRoundRect*
0 Rectangle with rounded corners*
0 $1 Rounding radius*
0 $2 $3 $4 $5 $6 $7 $8 $9 X,Y pos of 4 corners*
0 Add a 4 corners polygon primitive as box body*
4,1,4,$2,$3,$4,$5,$6,$7,$8,$9,$2,$3,0*
0 Add four circle primitives for the rounded corners*
1,1,$1+$1,$2,$3*
1,1,$1+$1,$4,$5*
1,1,$1+$1,$6,$7*
1,1,$1+$1,$8,$9*
0 Add four rect primitives between the rounded corners*
20,1,$1+$1,$2,$3,$4,$5,0*
20,1,$1+$1,$4,$5,$6,$7,0*
20,1,$1+$1,$6,$7,$8,$9,0*
20,1,$1+$1,$8,$9,$2,$3,0*%
G04 Aperture macros list end*
%TA.AperFunction,SMDPad,CuDef*%
%ADD10RoundRect,0.225000X0.225000X0.250000X-0.225000X0.250000X-0.225000X-0.250000X0.225000X-0.250000X0*%
%TD*%
%TA.AperFunction,SMDPad,CuDef*%
%ADD11RoundRect,0.225000X-0.250000X0.225000X-0.250000X-0.225000X0.250000X-0.225000X0.250000X0.225000X0*%
%TD*%
%TA.AperFunction,SMDPad,CuDef*%
%ADD12RoundRect,0.225000X0.250000X-0.225000X0.250000X0.225000X-0.250000X0.225000X-0.250000X-0.225000X0*%
%TD*%
%TA.AperFunction,SMDPad,CuDef*%
%ADD13RoundRect,0.218750X0.218750X0.256250X-0.218750X0.256250X-0.218750X-0.256250X0.218750X-0.256250X0*%
%TD*%
%TA.AperFunction,SMDPad,CuDef*%
%ADD14R,1.650000X0.400000*%
%TD*%
%TA.AperFunction,SMDPad,CuDef*%
%ADD15R,0.700000X1.825000*%
%TD*%
%TA.AperFunction,SMDPad,CuDef*%
%ADD16R,1.500000X2.000000*%
%TD*%
%TA.AperFunction,SMDPad,CuDef*%
%ADD17R,2.000000X1.350000*%
%TD*%
%TA.AperFunction,ComponentPad*%
%ADD18O,1.700000X1.350000*%
%TD*%
%TA.AperFunction,ComponentPad*%
%ADD19O,1.500000X1.100000*%
%TD*%
%TA.AperFunction,SMDPad,CuDef*%
%ADD20R,2.500000X1.430000*%
%TD*%
%TA.AperFunction,SMDPad,CuDef*%
%ADD21RoundRect,0.218750X0.256250X-0.218750X0.256250X0.218750X-0.256250X0.218750X-0.256250X-0.218750X0*%
%TD*%
%TA.AperFunction,SMDPad,CuDef*%
%ADD22R,0.300000X0.300000*%
%TD*%
%TA.AperFunction,SMDPad,CuDef*%
%ADD23R,0.300000X0.900000*%
%TD*%
%TA.AperFunction,SMDPad,CuDef*%
%ADD24R,0.900000X0.300000*%
%TD*%
%TA.AperFunction,SMDPad,CuDef*%
%ADD25R,1.800000X1.800000*%
%TD*%
%TA.AperFunction,ComponentPad*%
%ADD26RoundRect,0.249600X-0.850400X-0.550400X0.850400X-0.550400X0.850400X0.550400X-0.850400X0.550400X0*%
%TD*%
%TA.AperFunction,ComponentPad*%
%ADD27O,2.200000X1.600000*%
%TD*%
%TA.AperFunction,ComponentPad*%
%ADD28C,2.000000*%
%TD*%
%TA.AperFunction,SMDPad,CuDef*%
%ADD29RoundRect,0.200000X-0.275000X0.200000X-0.275000X-0.200000X0.275000X-0.200000X0.275000X0.200000X0*%
%TD*%
%TA.AperFunction,SMDPad,CuDef*%
%ADD30RoundRect,0.200000X0.200000X0.275000X-0.200000X0.275000X-0.200000X-0.275000X0.200000X-0.275000X0*%
%TD*%
%TA.AperFunction,SMDPad,CuDef*%
%ADD31RoundRect,0.200000X-0.200000X-0.275000X0.200000X-0.275000X0.200000X0.275000X-0.200000X0.275000X0*%
%TD*%
%TA.AperFunction,SMDPad,CuDef*%
%ADD32RoundRect,0.175000X0.175000X0.325000X-0.175000X0.325000X-0.175000X-0.325000X0.175000X-0.325000X0*%
%TD*%
%TA.AperFunction,SMDPad,CuDef*%
%ADD33RoundRect,0.150000X0.200000X0.150000X-0.200000X0.150000X-0.200000X-0.150000X0.200000X-0.150000X0*%
%TD*%
%TA.AperFunction,ViaPad*%
%ADD34C,1.500000*%
%TD*%
%TA.AperFunction,ViaPad*%
%ADD35C,0.600000*%
%TD*%
%TA.AperFunction,Conductor*%
%ADD36C,0.500000*%
%TD*%
%TA.AperFunction,Conductor*%
%ADD37C,0.250000*%
%TD*%
%TA.AperFunction,Conductor*%
%ADD38C,0.280000*%
%TD*%
%TA.AperFunction,Conductor*%
%ADD39C,0.400000*%
%TD*%
%TA.AperFunction,Conductor*%
%ADD40C,0.300000*%
%TD*%
G04 APERTURE END LIST*
D10*
%TO.P,C8,1*%
%TO.N,GND*%
X31634996Y-26000001D03*
%TO.P,C8,2*%
%TO.N,VCC*%
X30085004Y-25999999D03*
%TD*%
D11*
%TO.P,C7,1*%
%TO.N,GND*%
X31635002Y-21270008D03*
%TO.P,C7,2*%
%TO.N,Net-(J1-VCCT)*%
X31635000Y-22820000D03*
%TD*%
D12*
%TO.P,C4,1*%
%TO.N,VCC*%
X24234998Y-30670004D03*
%TO.P,C4,2*%
%TO.N,GND*%
X24234998Y-29120004D03*
%TD*%
%TO.P,C10,1*%
%TO.N,GND*%
X26565000Y-39930000D03*
%TO.P,C10,2*%
%TO.N,VCC*%
X26565004Y-38380004D03*
%TD*%
D13*
%TO.P,L1,1,1*%
%TO.N,Net-(J1-VCCT)*%
X31637500Y-24410000D03*
%TO.P,L1,2,2*%
%TO.N,VCC*%
X30062500Y-24410000D03*
%TD*%
D14*
%TO.P,J2,1,VBUS*%
%TO.N,V_UNREG*%
X22884998Y-22430001D03*
%TO.P,J2,2,D-*%
%TO.N,D-*%
X22885000Y-23080000D03*
%TO.P,J2,3,D+*%
%TO.N,D+*%
X22885003Y-23729998D03*
%TO.P,J2,4,ID*%
%TO.N,unconnected-(J2-ID-Pad4)*%
X22885000Y-24380000D03*
%TO.P,J2,5,GND*%
%TO.N,GND*%
X22885000Y-25030001D03*
D15*
%TO.P,J2,6,Shield*%
X21685000Y-20780000D03*
D16*
X22985000Y-20880000D03*
D17*
X20935003Y-21000000D03*
D18*
X20005002Y-21000001D03*
D19*
X23004999Y-21310000D03*
D20*
X19735002Y-22770001D03*
X19734997Y-24689998D03*
D19*
X23004998Y-26150000D03*
D18*
X20005000Y-26460000D03*
D17*
X20935001Y-26479999D03*
D16*
X23004997Y-26629997D03*
D15*
X21685003Y-26730000D03*
%TD*%
D21*
%TO.P,L2,1,1*%
%TO.N,Net-(J3-VCCR)*%
X29050000Y-39917500D03*
%TO.P,L2,2,2*%
%TO.N,VCC*%
X29050000Y-38342500D03*
%TD*%
D22*
%TO.P,U1,1,RS485/GPIO.1*%
%TO.N,unconnected-(U1-RS485{slash}GPIO.1-Pad1)*%
X27925001Y-32719997D03*
D23*
%TO.P,U1,2,CLK/GPIO.0*%
%TO.N,unconnected-(U1-CLK{slash}GPIO.0-Pad2)*%
X27425000Y-32419999D03*
%TO.P,U1,3,GND*%
%TO.N,GND*%
X26925002Y-32420001D03*
%TO.P,U1,4,D+*%
%TO.N,D+*%
X26424999Y-32419998D03*
%TO.P,U1,5,D-*%
%TO.N,D-*%
X25925000Y-32419998D03*
D22*
%TO.P,U1,6,VDD*%
%TO.N,VCC*%
X25424998Y-32719996D03*
D24*
%TO.P,U1,7,VREGIN*%
%TO.N,V_UNREG*%
X25125000Y-33219997D03*
%TO.P,U1,8,VBUS*%
%TO.N,V_DIV*%
X25125002Y-33719995D03*
%TO.P,U1,9,~{RST}*%
%TO.N,Net-(U1-~{RST})*%
X25124999Y-34219998D03*
%TO.P,U1,10,NC*%
%TO.N,unconnected-(U1-NC-Pad10)*%
X25124999Y-34719997D03*
D22*
%TO.P,U1,11,~{SUSPEND}*%
%TO.N,unconnected-(U1-~{SUSPEND}-Pad11)*%
X25424997Y-35219999D03*
D23*
%TO.P,U1,12,GND*%
%TO.N,GND*%
X25924998Y-35519997D03*
%TO.P,U1,13,~{WAKEUP}*%
%TO.N,unconnected-(U1-~{WAKEUP}-Pad13)*%
X26424996Y-35519995D03*
%TO.P,U1,14,SUSPEND*%
%TO.N,unconnected-(U1-SUSPEND-Pad14)*%
X26924999Y-35519998D03*
%TO.P,U1,15,~{CTS}*%
%TO.N,unconnected-(U1-~{CTS}-Pad15)*%
X27424998Y-35519998D03*
D22*
%TO.P,U1,16,~{RTS}*%
%TO.N,unconnected-(U1-~{RTS}-Pad16)*%
X27925000Y-35220000D03*
D24*
%TO.P,U1,17,RXD*%
%TO.N,RXD*%
X28224998Y-34719999D03*
%TO.P,U1,18,TXD*%
%TO.N,TXD*%
X28224996Y-34220001D03*
%TO.P,U1,19,~{RXT}/GPIO.3*%
%TO.N,unconnected-(U1-~{RXT}{slash}GPIO.3-Pad19)*%
X28224999Y-33719998D03*
%TO.P,U1,20,~{TXT}/GPIO.2*%
%TO.N,unconnected-(U1-~{TXT}{slash}GPIO.2-Pad20)*%
X28224999Y-33219999D03*
D25*
%TO.P,U1,21,GND*%
%TO.N,GND*%
X26674999Y-33969998D03*
%TD*%
D26*
%TO.P,J1,1,VCCT*%
%TO.N,Net-(J1-VCCT)*%
X36280000Y-20990000D03*
D27*
%TO.P,J1,2,NC*%
%TO.N,unconnected-(J1-NC-Pad2)*%
X36280000Y-23530000D03*
%TO.P,J1,3,VEET*%
%TO.N,GND*%
X36280000Y-26070000D03*
%TO.P,J1,4,Data_in*%
%TO.N,TXD*%
X36280000Y-28610000D03*
D28*
%TO.P,J1,5,HP*%
%TO.N,GND*%
X43980000Y-28610000D03*
%TO.P,J1,8,HP*%
X43980000Y-20990000D03*
%TD*%
D29*
%TO.P,R4,1*%
%TO.N,TXD*%
X31929997Y-31945001D03*
%TO.P,R4,2*%
%TO.N,GND*%
X31930003Y-33594999D03*
%TD*%
D12*
%TO.P,C5,1*%
%TO.N,VCC*%
X22545000Y-30670000D03*
%TO.P,C5,2*%
%TO.N,GND*%
X22545000Y-29120000D03*
%TD*%
D30*
%TO.P,R3,1*%
%TO.N,V_DIV*%
X21954998Y-37309996D03*
%TO.P,R3,2*%
%TO.N,GND*%
X20305000Y-37310000D03*
%TD*%
D12*
%TO.P,C9,1*%
%TO.N,GND*%
X30625000Y-39894994D03*
%TO.P,C9,2*%
%TO.N,Net-(J3-VCCR)*%
X30625004Y-38344998D03*
%TD*%
D11*
%TO.P,C6,1*%
%TO.N,GND*%
X29970002Y-21280008D03*
%TO.P,C6,2*%
%TO.N,Net-(J1-VCCT)*%
X29970000Y-22830000D03*
%TD*%
D31*
%TO.P,R2,1*%
%TO.N,V_UNREG*%
X20305002Y-35670010D03*
%TO.P,R2,2*%
%TO.N,V_DIV*%
X21955000Y-35670000D03*
%TD*%
D30*
%TO.P,R1,1*%
%TO.N,VCC*%
X24965000Y-38390000D03*
%TO.P,R1,2*%
%TO.N,Net-(U1-~{RST})*%
X23315002Y-38390004D03*
%TD*%
D26*
%TO.P,J3,1,Data_Out*%
%TO.N,RXD*%
X36280000Y-31180000D03*
D27*
%TO.P,J3,2,VEER*%
%TO.N,GND*%
X36280000Y-33720000D03*
%TO.P,J3,3,VCCR*%
%TO.N,Net-(J3-VCCR)*%
X36280000Y-36260000D03*
%TO.P,J3,4,NC*%
%TO.N,unconnected-(J3-NC-Pad4)*%
X36280000Y-38800000D03*
D28*
%TO.P,J3,5,HP*%
%TO.N,GND*%
X43980000Y-38800000D03*
%TO.P,J3,8,HP*%
X43980000Y-31180000D03*
%TD*%
D10*
%TO.P,C2,1*%
%TO.N,V_UNREG*%
X21919994Y-33930001D03*
%TO.P,C2,2*%
%TO.N,GND*%
X20370002Y-33929999D03*
%TD*%
%TO.P,C1,1*%
%TO.N,V_UNREG*%
X21919996Y-32250001D03*
%TO.P,C1,2*%
%TO.N,GND*%
X20370004Y-32249999D03*
%TD*%
D32*
%TO.P,D1,1,A*%
%TO.N,GND*%
X27700000Y-26759999D03*
D33*
%TO.P,D1,2,K*%
%TO.N,V_UNREG*%
X27700002Y-25059994D03*
%TO.P,D1,3,K*%
%TO.N,D+*%
X25700001Y-25059999D03*
%TO.P,D1,4,K*%
%TO.N,D-*%
X25700000Y-26960000D03*
%TD*%
D12*
%TO.P,C3,1*%
%TO.N,GND*%
X32209998Y-39879992D03*
%TO.P,C3,2*%
%TO.N,Net-(J3-VCCR)*%
X32210002Y-38329996D03*
%TD*%
D34*
%TO.N,*%
X44260000Y-41390000D03*
X20060000Y-41390000D03*
X44260000Y-18330000D03*
X20060000Y-18330000D03*
D35*
%TO.N,GND*%
X40550000Y-24260000D03*
X19170000Y-32280000D03*
X31840000Y-29260000D03*
X20310000Y-38550000D03*
X27824998Y-27940000D03*
X25930000Y-36690000D03*
X29980000Y-19930000D03*
X27600000Y-23070000D03*
X25070000Y-28050000D03*
X40590000Y-37510000D03*
X31020000Y-30980000D03*
X19160000Y-37320000D03*
X27230000Y-31110000D03*
X25170000Y-39960000D03*
X33010000Y-21330000D03*
X26580000Y-41300000D03*
X31620000Y-27500000D03*
X30590000Y-36600000D03*
X28760000Y-24260000D03*
X33050000Y-26040000D03*
X31700000Y-19960000D03*
X26674999Y-33969998D03*
X33560000Y-39890000D03*
X29610000Y-32410000D03*
X21210000Y-29100000D03*
X24600000Y-27360000D03*
X30820000Y-33600000D03*
X28630000Y-21250000D03*
X19160000Y-33930000D03*
X27980000Y-36900000D03*
X27370000Y-28890000D03*
X32360000Y-36540000D03*
X32220000Y-41310000D03*
X27790000Y-39900000D03*
X30640000Y-41320000D03*
X20370000Y-30980000D03*
X21640000Y-28150000D03*
%TO.N,V_UNREG*%
X22879994Y-33229994D03*
X27990000Y-29920000D03*
%TO.N,VCC*%
X24795002Y-37015002D03*
X28035000Y-38345000D03*
X24795002Y-32090002D03*
X29935000Y-28110000D03*
%TO.N,D-*%
X25160000Y-23720000D03*
X25160000Y-26170000D03*
%TD*%
D36*
%TO.N,GND*%
X23004999Y-21310000D02*
X23004999Y-20899999D01*
D37*
X25924998Y-35519997D02*
X25924998Y-36684998D01*
X22885000Y-26030002D02*
X23004998Y-26150000D01*
X25924998Y-36684998D02*
X25930000Y-36690000D01*
D36*
X20005002Y-26459998D02*
X20005000Y-26460000D01*
X27824998Y-26640005D02*
X27824998Y-27940000D01*
X23004999Y-20899999D02*
X22985000Y-20880000D01*
X22695000Y-21000001D02*
X23004999Y-21310000D01*
X20005000Y-26460000D02*
X20005000Y-21000003D01*
D38*
X26925002Y-32420001D02*
X26925002Y-31414998D01*
D36*
X20315000Y-26150000D02*
X20005000Y-26460000D01*
D38*
X26925002Y-31414998D02*
X27230000Y-31110000D01*
D36*
X20005000Y-21000003D02*
X20005002Y-21000001D01*
D37*
X22885000Y-25030001D02*
X22885000Y-26030002D01*
X36240000Y-33950000D02*
X36280000Y-33990000D01*
D36*
X20005002Y-21000001D02*
X22695000Y-21000001D01*
D37*
%TO.N,V_UNREG*%
X21919994Y-33930001D02*
X21919994Y-34055018D01*
X22179988Y-33930001D02*
X22879994Y-33229995D01*
X21919994Y-33930001D02*
X22179988Y-33930001D01*
D36*
X21919994Y-34055018D02*
X20305002Y-35670010D01*
D39*
X25200661Y-22430000D02*
X28640000Y-25869339D01*
D37*
X22879994Y-33229995D02*
X22879994Y-33229994D01*
D39*
X28640000Y-29270000D02*
X27990000Y-29920000D01*
D38*
X25125000Y-33219997D02*
X22889992Y-33219997D01*
D37*
X22879994Y-33229994D02*
X22879995Y-33229994D01*
X22879995Y-33229994D02*
X22889992Y-33219997D01*
D39*
X28640000Y-25869339D02*
X28640000Y-29270000D01*
D36*
X22889992Y-33219997D02*
X21919996Y-32250001D01*
D39*
X22912169Y-22430000D02*
X25200661Y-22430000D01*
D36*
%TO.N,VCC*%
X24795002Y-37015002D02*
X24795002Y-38220002D01*
D39*
X29047500Y-38345000D02*
X29050000Y-38342500D01*
D36*
X24965000Y-38390000D02*
X26555008Y-38390000D01*
X25320002Y-32620002D02*
X24759998Y-32059998D01*
D39*
X26555008Y-38390000D02*
X26565004Y-38380004D01*
D36*
X24234998Y-30670004D02*
X22545004Y-30670004D01*
X24795002Y-32090002D02*
X24795002Y-31230008D01*
X28035000Y-38345000D02*
X29047500Y-38345000D01*
X26740000Y-38345000D02*
X26705000Y-38380000D01*
D39*
X24795002Y-38220002D02*
X24965000Y-38390000D01*
X29935000Y-28110000D02*
X29935000Y-24875000D01*
D37*
X22545004Y-30670004D02*
X22545000Y-30670000D01*
X24935000Y-38420000D02*
X24974996Y-38380004D01*
D36*
X24795002Y-31230008D02*
X24234998Y-30670004D01*
D39*
X29935000Y-24875000D02*
X30070000Y-24740000D01*
D38*
%TO.N,D-*%
X25160000Y-23720000D02*
X25140000Y-23720000D01*
X25180000Y-26170000D02*
X25160000Y-26170000D01*
X25925000Y-26915000D02*
X25180000Y-26170000D01*
X25140000Y-23720000D02*
X24500000Y-23080000D01*
X25925000Y-32419998D02*
X25925000Y-26915000D01*
X24500000Y-23080000D02*
X22885000Y-23080000D01*
D37*
X25160000Y-26170000D02*
X25160000Y-26175008D01*
D38*
%TO.N,D+*%
X23909998Y-23729998D02*
X22885003Y-23729998D01*
X26424999Y-26244999D02*
X23909998Y-23729998D01*
X26424999Y-32419998D02*
X26424999Y-26244999D01*
D37*
X26405000Y-32399999D02*
X26424999Y-32419998D01*
D38*
%TO.N,TXD*%
X28909999Y-34220001D02*
X34520000Y-28610000D01*
X28224996Y-34220001D02*
X28909999Y-34220001D01*
X34520000Y-28610000D02*
X36280000Y-28610000D01*
D40*
%TO.N,RXD*%
X36280000Y-31460000D02*
X36280000Y-31180000D01*
X28224998Y-34719999D02*
X28454999Y-34950000D01*
X32790000Y-34950000D02*
X36280000Y-31460000D01*
X28454999Y-34950000D02*
X32790000Y-34950000D01*
D38*
%TO.N,Net-(U1-~{RST})*%
X23315002Y-35279994D02*
X23315002Y-38390004D01*
X25124999Y-34219998D02*
X24374998Y-34219998D01*
X24374998Y-34219998D02*
X23315002Y-35279994D01*
D36*
%TO.N,V_DIV*%
X21954998Y-37309996D02*
X21954998Y-35670002D01*
D38*
X21955000Y-35670000D02*
X23905005Y-33719995D01*
D37*
X21954998Y-35670002D02*
X21955000Y-35670000D01*
D38*
X23905005Y-33719995D02*
X25125002Y-33719995D01*
D36*
%TO.N,Net-(J3-VCCR)*%
X35739992Y-36260000D02*
X36280000Y-36260000D01*
X30625004Y-38344998D02*
X32195000Y-38344998D01*
X32195000Y-38344998D02*
X32210002Y-38329996D01*
D37*
X29050000Y-39917500D02*
X29052502Y-39917500D01*
D36*
X30622502Y-38344998D02*
X29050000Y-39917500D01*
X33669996Y-38329996D02*
X35739992Y-36260000D01*
X32210002Y-38329996D02*
X33669996Y-38329996D01*
X30625004Y-38344998D02*
X30622502Y-38344998D01*
%TO.N,Net-(J1-VCCT)*%
X34450000Y-22820000D02*
X36280000Y-20990000D01*
X31637500Y-24410000D02*
X31645000Y-24402500D01*
X31635000Y-22820000D02*
X34450000Y-22820000D01*
D37*
X31625002Y-22810002D02*
X31635000Y-22820000D01*
D36*
X31645000Y-24402500D02*
X31645000Y-22830000D01*
D37*
X31645000Y-22830000D02*
X31635000Y-22820000D01*
D36*
X29989998Y-22810002D02*
X31625002Y-22810002D01*
X29970000Y-22830000D02*
X29989998Y-22810002D01*
%TD*%
%TA.AperFunction,Conductor*%
%TO.N,GND*%
G36*
X44164152Y-16860185D02*
G01*
X44209907Y-16912989D01*
X44219851Y-16982147D01*
X44190826Y-17045703D01*
X44132048Y-17083477D01*
X44107920Y-17088027D01*
X44042023Y-17093793D01*
X44042020Y-17093793D01*
X43830677Y-17150422D01*
X43830668Y-17150426D01*
X43632361Y-17242898D01*
X43632357Y-17242900D01*
X43453121Y-17368402D01*
X43298402Y-17523121D01*
X43172900Y-17702357D01*
X43172898Y-17702361D01*
X43080426Y-17900668D01*
X43080422Y-17900677D01*
X43023793Y-18112020D01*
X43023793Y-18112024D01*
X43004723Y-18329997D01*
X43004723Y-18330002D01*
X43023793Y-18547975D01*
X43023793Y-18547979D01*
X43080422Y-18759322D01*
X43080424Y-18759326D01*
X43080425Y-18759330D01*
X43126661Y-18858484D01*
X43172897Y-18957638D01*
X43172898Y-18957639D01*
X43298402Y-19136877D01*
X43453123Y-19291598D01*
X43534664Y-19348694D01*
X43578288Y-19403269D01*
X43585480Y-19472768D01*
X43553958Y-19535122D01*
X43503802Y-19567548D01*
X43375396Y-19611630D01*
X43375390Y-19611632D01*
X43156761Y-19729949D01*
X43109942Y-19766388D01*
X43109942Y-19766390D01*
X43768940Y-20425387D01*
X43748409Y-20430889D01*
X43611592Y-20509881D01*
X43499881Y-20621592D01*
X43420889Y-20758409D01*
X43415387Y-20778939D01*
X42756564Y-20120116D01*
X42656267Y-20273632D01*
X42556412Y-20501282D01*
X42495387Y-20742261D01*
X42495385Y-20742270D01*
X42474859Y-20989994D01*
X42474859Y-20990005D01*
X42495385Y-21237729D01*
X42495387Y-21237738D01*
X42556412Y-21478717D01*
X42656266Y-21706364D01*
X42756564Y-21859882D01*
X43415387Y-21201059D01*
X43420889Y-21221591D01*
X43499881Y-21358408D01*
X43611592Y-21470119D01*
X43748409Y-21549111D01*
X43768940Y-21554612D01*
X43109942Y-22213609D01*
X43156768Y-22250055D01*
X43156770Y-22250056D01*
X43375385Y-22368364D01*
X43375396Y-22368369D01*
X43610506Y-22449083D01*
X43855707Y-22490000D01*
X44104293Y-22490000D01*
X44349493Y-22449083D01*
X44584603Y-22368369D01*
X44584614Y-22368364D01*
X44803228Y-22250057D01*
X44803231Y-22250055D01*
X44850056Y-22213609D01*
X44191059Y-21554612D01*
X44211591Y-21549111D01*
X44348408Y-21470119D01*
X44460119Y-21358408D01*
X44539111Y-21221591D01*
X44544612Y-21201060D01*
X45203434Y-21859882D01*
X45303731Y-21706369D01*
X45403587Y-21478717D01*
X45464612Y-21237738D01*
X45464614Y-21237729D01*
X45485141Y-20990005D01*
X45485141Y-20989994D01*
X45464614Y-20742270D01*
X45464612Y-20742261D01*
X45403587Y-20501282D01*
X45303731Y-20273630D01*
X45203434Y-20120116D01*
X44544612Y-20778939D01*
X44539111Y-20758409D01*
X44460119Y-20621592D01*
X44348408Y-20509881D01*
X44211591Y-20430889D01*
X44191060Y-20425387D01*
X44850057Y-19766390D01*
X44850056Y-19766389D01*
X44803231Y-19729945D01*
X44748510Y-19700331D01*
X44698920Y-19651111D01*
X44683812Y-19582895D01*
X44707982Y-19517339D01*
X44755121Y-19478895D01*
X44887639Y-19417102D01*
X45066877Y-19291598D01*
X45221598Y-19136877D01*
X45347102Y-18957639D01*
X45439575Y-18759330D01*
X45496207Y-18547977D01*
X45501972Y-18482079D01*
X45527424Y-18417011D01*
X45584015Y-18376032D01*
X45653777Y-18372154D01*
X45714561Y-18406608D01*
X45747069Y-18468455D01*
X45749500Y-18492887D01*
X45749500Y-41227112D01*
X45729815Y-41294151D01*
X45677011Y-41339906D01*
X45607853Y-41349850D01*
X45544297Y-41320825D01*
X45506523Y-41262047D01*
X45501972Y-41237919D01*
X45501955Y-41237729D01*
X45496207Y-41172023D01*
X45439575Y-40960670D01*
X45347102Y-40762362D01*
X45347100Y-40762359D01*
X45347099Y-40762357D01*
X45221599Y-40583124D01*
X45196195Y-40557720D01*
X45066877Y-40428402D01*
X44887639Y-40302898D01*
X44823512Y-40272995D01*
X44771073Y-40226822D01*
X44751922Y-40159628D01*
X44772138Y-40092747D01*
X44799756Y-40062759D01*
X44850056Y-40023609D01*
X44191059Y-39364612D01*
X44211591Y-39359111D01*
X44348408Y-39280119D01*
X44460119Y-39168408D01*
X44539111Y-39031591D01*
X44544612Y-39011060D01*
X45203434Y-39669882D01*
X45303731Y-39516369D01*
X45403587Y-39288717D01*
X45464612Y-39047738D01*
X45464614Y-39047729D01*
X45485141Y-38800005D01*
X45485141Y-38799994D01*
X45464614Y-38552270D01*
X45464612Y-38552261D01*
X45403587Y-38311282D01*
X45303731Y-38083630D01*
X45203434Y-37930116D01*
X44544612Y-38588939D01*
X44539111Y-38568409D01*
X44460119Y-38431592D01*
X44348408Y-38319881D01*
X44211591Y-38240889D01*
X44191060Y-38235387D01*
X44850057Y-37576390D01*
X44850056Y-37576389D01*
X44803229Y-37539943D01*
X44584614Y-37421635D01*
X44584603Y-37421630D01*
X44349493Y-37340916D01*
X44104293Y-37300000D01*
X43855707Y-37300000D01*
X43610506Y-37340916D01*
X43375396Y-37421630D01*
X43375390Y-37421632D01*
X43156761Y-37539949D01*
X43109942Y-37576388D01*
X43109942Y-37576390D01*
X43768940Y-38235387D01*
X43748409Y-38240889D01*
X43611592Y-38319881D01*
X43499881Y-38431592D01*
X43420889Y-38568409D01*
X43415387Y-38588939D01*
X42756564Y-37930116D01*
X42656267Y-38083632D01*
X42556412Y-38311282D01*
X42495387Y-38552261D01*
X42495385Y-38552270D01*
X42474859Y-38799994D01*
X42474859Y-38800005D01*
X42495385Y-39047729D01*
X42495387Y-39047738D01*
X42556412Y-39288717D01*
X42656266Y-39516364D01*
X42756564Y-39669882D01*
X43415387Y-39011059D01*
X43420889Y-39031591D01*
X43499881Y-39168408D01*
X43611592Y-39280119D01*
X43748409Y-39359111D01*
X43768940Y-39364612D01*
X43109942Y-40023609D01*
X43156768Y-40060055D01*
X43156770Y-40060056D01*
X43375385Y-40178364D01*
X43375395Y-40178369D01*
X43436720Y-40199422D01*
X43493735Y-40239807D01*
X43519866Y-40304607D01*
X43506815Y-40373247D01*
X43467583Y-40418276D01*
X43453121Y-40428402D01*
X43298402Y-40583121D01*
X43172900Y-40762357D01*
X43172898Y-40762361D01*
X43080426Y-40960668D01*
X43080422Y-40960677D01*
X43023793Y-41172020D01*
X43023793Y-41172024D01*
X43004723Y-41389997D01*
X43004723Y-41390002D01*
X43023793Y-41607975D01*
X43023793Y-41607979D01*
X43080422Y-41819322D01*
X43080424Y-41819326D01*
X43080425Y-41819330D01*
X43126661Y-41918484D01*
X43172897Y-42017638D01*
X43172898Y-42017639D01*
X43298402Y-42196877D01*
X43453123Y-42351598D01*
X43632361Y-42477102D01*
X43830670Y-42569575D01*
X43830676Y-42569576D01*
X43830677Y-42569577D01*
X43928262Y-42595725D01*
X43987923Y-42632090D01*
X44018452Y-42694937D01*
X44010157Y-42764313D01*
X43965672Y-42818190D01*
X43899120Y-42839465D01*
X43896169Y-42839500D01*
X20423831Y-42839500D01*
X20356792Y-42819815D01*
X20311037Y-42767011D01*
X20301093Y-42697853D01*
X20330118Y-42634297D01*
X20388896Y-42596523D01*
X20391738Y-42595725D01*
X20452828Y-42579355D01*
X20489330Y-42569575D01*
X20687639Y-42477102D01*
X20866877Y-42351598D01*
X21021598Y-42196877D01*
X21147102Y-42017639D01*
X21239575Y-41819330D01*
X21296207Y-41607977D01*
X21315277Y-41390000D01*
X21296207Y-41172023D01*
X21239575Y-40960670D01*
X21147102Y-40762362D01*
X21147100Y-40762359D01*
X21147099Y-40762357D01*
X21021599Y-40583124D01*
X20996195Y-40557720D01*
X20866877Y-40428402D01*
X20687642Y-40302900D01*
X20687638Y-40302897D01*
X20579770Y-40252598D01*
X20489330Y-40210425D01*
X20489326Y-40210424D01*
X20489322Y-40210422D01*
X20462824Y-40203322D01*
X25590001Y-40203322D01*
X25600144Y-40302607D01*
X25653452Y-40463481D01*
X25653457Y-40463492D01*
X25742424Y-40607728D01*
X25742427Y-40607732D01*
X25862267Y-40727572D01*
X25862271Y-40727575D01*
X26006507Y-40816542D01*
X26006518Y-40816547D01*
X26167393Y-40869855D01*
X26266683Y-40879999D01*
X26815000Y-40879999D01*
X26863308Y-40879999D01*
X26863322Y-40879998D01*
X26962607Y-40869855D01*
X27123481Y-40816547D01*
X27123492Y-40816542D01*
X27267728Y-40727575D01*
X27267732Y-40727572D01*
X27387572Y-40607732D01*
X27387575Y-40607728D01*
X27476542Y-40463492D01*
X27476547Y-40463481D01*
X27529855Y-40302606D01*
X27539999Y-40203322D01*
X27540000Y-40203309D01*
X27540000Y-40180000D01*
X26815000Y-40180000D01*
X26815000Y-40879999D01*
X26266683Y-40879999D01*
X26314999Y-40879998D01*
X26315000Y-40879998D01*
X26315000Y-40180000D01*
X25590001Y-40180000D01*
X25590001Y-40203322D01*
X20462824Y-40203322D01*
X20277977Y-40153793D01*
X20060002Y-40134723D01*
X20059998Y-40134723D01*
X19914682Y-40147436D01*
X19842023Y-40153793D01*
X19842020Y-40153793D01*
X19630677Y-40210422D01*
X19630668Y-40210426D01*
X19432361Y-40302898D01*
X19432357Y-40302900D01*
X19253121Y-40428402D01*
X19098402Y-40583121D01*
X18976075Y-40757824D01*
X18921498Y-40801449D01*
X18852000Y-40808643D01*
X18789645Y-40777120D01*
X18754231Y-40716890D01*
X18750500Y-40686701D01*
X18750500Y-37641582D01*
X19405001Y-37641582D01*
X19411408Y-37712102D01*
X19411409Y-37712107D01*
X19461981Y-37874396D01*
X19549927Y-38019877D01*
X19670122Y-38140072D01*
X19815604Y-38228019D01*
X19815603Y-38228019D01*
X19977894Y-38278590D01*
X19977893Y-38278590D01*
X20048408Y-38284998D01*
X20048426Y-38284999D01*
X20054999Y-38284998D01*
X20055000Y-38284998D01*
X20055000Y-37560000D01*
X19405001Y-37560000D01*
X19405001Y-37641582D01*
X18750500Y-37641582D01*
X18750500Y-33631676D01*
X19420002Y-33631676D01*
X19420002Y-33679999D01*
X20120002Y-33679999D01*
X20120002Y-32963363D01*
X20120004Y-32963356D01*
X20120004Y-32499999D01*
X19420005Y-32499999D01*
X19420005Y-32548321D01*
X19430148Y-32647606D01*
X19483456Y-32808480D01*
X19483461Y-32808491D01*
X19572428Y-32952727D01*
X19572431Y-32952731D01*
X19622016Y-33002316D01*
X19655501Y-33063639D01*
X19650517Y-33133331D01*
X19622018Y-33177677D01*
X19572426Y-33227270D01*
X19483459Y-33371506D01*
X19483454Y-33371517D01*
X19430146Y-33532392D01*
X19420002Y-33631676D01*
X18750500Y-33631676D01*
X18750500Y-31951676D01*
X19420004Y-31951676D01*
X19420004Y-31999999D01*
X20120004Y-31999999D01*
X20120004Y-31274998D01*
X20096697Y-31274999D01*
X20096678Y-31275000D01*
X19997396Y-31285143D01*
X19836522Y-31338451D01*
X19836511Y-31338456D01*
X19692275Y-31427423D01*
X19692271Y-31427426D01*
X19572431Y-31547266D01*
X19572428Y-31547270D01*
X19483461Y-31691506D01*
X19483456Y-31691517D01*
X19430148Y-31852392D01*
X19420004Y-31951676D01*
X18750500Y-31951676D01*
X18750500Y-28846677D01*
X21570000Y-28846677D01*
X21570000Y-28870000D01*
X23511634Y-28870000D01*
X23511648Y-28870004D01*
X23984998Y-28870004D01*
X23984998Y-28144468D01*
X24004683Y-28077429D01*
X24034687Y-28045201D01*
X24112187Y-27987183D01*
X24198347Y-27872090D01*
X24198351Y-27872083D01*
X24248593Y-27737376D01*
X24248595Y-27737369D01*
X24254996Y-27677841D01*
X24254997Y-27677824D01*
X24254997Y-26879997D01*
X22578003Y-26879997D01*
X22568027Y-26889972D01*
X22558318Y-26923039D01*
X22505514Y-26968794D01*
X22454003Y-26980000D01*
X21935003Y-26980000D01*
X21935003Y-28193862D01*
X21931714Y-28193862D01*
X21928520Y-28238531D01*
X21886648Y-28294464D01*
X21877435Y-28300735D01*
X21842271Y-28322424D01*
X21842267Y-28322427D01*
X21722427Y-28442267D01*
X21722424Y-28442271D01*
X21633457Y-28586507D01*
X21633452Y-28586518D01*
X21580144Y-28747393D01*
X21570000Y-28846677D01*
X18750500Y-28846677D01*
X18750500Y-27341563D01*
X18770185Y-27274524D01*
X18822989Y-27228769D01*
X18892147Y-27218825D01*
X18955703Y-27247850D01*
X18962181Y-27253882D01*
X19064540Y-27356241D01*
X19064545Y-27356245D01*
X19214162Y-27464947D01*
X19378956Y-27548915D01*
X19378959Y-27548916D01*
X19554852Y-27606066D01*
X19737527Y-27635000D01*
X19755000Y-27635000D01*
X19755000Y-26810000D01*
X20255000Y-26810000D01*
X20255000Y-27654999D01*
X20720872Y-27654999D01*
X20787911Y-27674684D01*
X20833666Y-27727488D01*
X20840599Y-27747717D01*
X20891648Y-27884586D01*
X20891652Y-27884593D01*
X20977812Y-27999687D01*
X20977815Y-27999690D01*
X21092909Y-28085850D01*
X21092916Y-28085854D01*
X21227623Y-28136096D01*
X21227630Y-28136098D01*
X21287158Y-28142499D01*
X21287175Y-28142500D01*
X21435003Y-28142500D01*
X21435003Y-26729999D01*
X20809001Y-26729999D01*
X20741962Y-26710314D01*
X20696207Y-26657510D01*
X20685001Y-26605999D01*
X20685001Y-26353999D01*
X20704686Y-26286960D01*
X20757490Y-26241205D01*
X20809001Y-26229999D01*
X22354001Y-26229999D01*
X22421040Y-26249684D01*
X22466795Y-26302488D01*
X22478001Y-26353999D01*
X22478001Y-26379997D01*
X22575377Y-26379997D01*
X22605444Y-26410064D01*
X22679553Y-26452851D01*
X22762211Y-26475000D01*
X23247785Y-26475000D01*
X23330443Y-26452851D01*
X23404552Y-26410064D01*
X23434619Y-26379997D01*
X24297406Y-26379997D01*
X24364445Y-26399682D01*
X24410200Y-26452486D01*
X24414448Y-26463043D01*
X24434210Y-26519521D01*
X24464018Y-26566960D01*
X24530184Y-26672262D01*
X24657738Y-26799816D01*
X24791473Y-26883847D01*
X24837763Y-26936181D01*
X24849500Y-26988840D01*
X24849500Y-27175701D01*
X24852401Y-27212567D01*
X24852402Y-27212573D01*
X24898254Y-27370393D01*
X24898255Y-27370396D01*
X24898256Y-27370398D01*
X24907713Y-27386389D01*
X24981917Y-27511862D01*
X24981923Y-27511870D01*
X25098129Y-27628076D01*
X25098135Y-27628081D01*
X25223622Y-27702293D01*
X25271304Y-27753360D01*
X25284500Y-27809024D01*
X25284500Y-28372944D01*
X25264815Y-28439983D01*
X25212011Y-28485738D01*
X25142853Y-28495682D01*
X25079297Y-28466657D01*
X25062844Y-28447312D01*
X25062052Y-28447939D01*
X25057570Y-28442271D01*
X24937730Y-28322431D01*
X24937726Y-28322428D01*
X24793490Y-28233461D01*
X24793479Y-28233456D01*
X24632604Y-28180148D01*
X24533320Y-28170004D01*
X24484998Y-28170004D01*
X24484998Y-29246004D01*
X24465313Y-29313043D01*
X24412509Y-29358798D01*
X24360998Y-29370004D01*
X23268364Y-29370004D01*
X23268350Y-29370000D01*
X21570001Y-29370000D01*
X21570001Y-29393322D01*
X21580144Y-29492607D01*
X21633452Y-29653481D01*
X21633457Y-29653492D01*
X21722424Y-29797728D01*
X21722427Y-29797732D01*
X21731660Y-29806965D01*
X21765145Y-29868288D01*
X21760161Y-29937980D01*
X21731663Y-29982324D01*
X21722033Y-29991953D01*
X21722029Y-29991959D01*
X21633001Y-30136294D01*
X21632996Y-30136305D01*
X21579651Y-30297290D01*
X21569500Y-30396647D01*
X21569500Y-30943337D01*
X21569501Y-30943355D01*
X21579650Y-31042707D01*
X21579652Y-31042713D01*
X21609684Y-31133345D01*
X21612086Y-31203173D01*
X21576354Y-31263215D01*
X21530983Y-31290054D01*
X21386299Y-31337998D01*
X21386290Y-31338002D01*
X21241955Y-31427030D01*
X21241949Y-31427034D01*
X21232325Y-31436659D01*
X21171001Y-31470142D01*
X21101309Y-31465155D01*
X21056966Y-31436656D01*
X21047736Y-31427426D01*
X21047732Y-31427423D01*
X20903496Y-31338456D01*
X20903485Y-31338451D01*
X20742610Y-31285143D01*
X20643326Y-31274999D01*
X20620004Y-31274999D01*
X20620004Y-33216635D01*
X20620002Y-33216641D01*
X20620002Y-34055999D01*
X20600317Y-34123038D01*
X20547513Y-34168793D01*
X20496002Y-34179999D01*
X19420003Y-34179999D01*
X19420003Y-34228321D01*
X19430146Y-34327606D01*
X19483454Y-34488480D01*
X19483459Y-34488491D01*
X19572426Y-34632727D01*
X19572429Y-34632731D01*
X19636845Y-34697147D01*
X19670330Y-34758470D01*
X19665346Y-34828162D01*
X19636845Y-34872509D01*
X19549533Y-34959820D01*
X19549532Y-34959821D01*
X19461524Y-35105403D01*
X19410915Y-35267817D01*
X19405784Y-35324285D01*
X19404502Y-35338394D01*
X19404502Y-36001626D01*
X19405978Y-36017867D01*
X19410915Y-36072202D01*
X19410915Y-36072204D01*
X19410916Y-36072206D01*
X19461524Y-36234616D01*
X19549530Y-36380195D01*
X19572011Y-36402676D01*
X19605496Y-36463997D01*
X19600513Y-36533688D01*
X19572013Y-36578037D01*
X19549926Y-36600124D01*
X19461980Y-36745604D01*
X19411409Y-36907893D01*
X19405000Y-36978427D01*
X19405000Y-37060000D01*
X20431000Y-37060000D01*
X20498039Y-37079685D01*
X20543794Y-37132489D01*
X20555000Y-37184000D01*
X20555000Y-38284999D01*
X20561581Y-38284999D01*
X20632102Y-38278591D01*
X20632107Y-38278590D01*
X20794396Y-38228018D01*
X20939877Y-38140072D01*
X20939878Y-38140071D01*
X21041964Y-38037984D01*
X21103287Y-38004498D01*
X21172978Y-38009482D01*
X21217327Y-38037983D01*
X21319809Y-38140465D01*
X21319811Y-38140466D01*
X21319813Y-38140468D01*
X21465392Y-38228474D01*
X21627802Y-38279082D01*
X21698382Y-38285496D01*
X21698385Y-38285496D01*
X22211610Y-38285496D01*
X22211614Y-38285496D01*
X22279282Y-38279346D01*
X22347825Y-38292882D01*
X22398171Y-38341328D01*
X22414502Y-38402837D01*
X22414502Y-38721617D01*
X22420915Y-38792196D01*
X22420915Y-38792198D01*
X22420916Y-38792200D01*
X22471524Y-38954610D01*
X22539871Y-39067670D01*
X22559532Y-39100192D01*
X22679813Y-39220473D01*
X22679815Y-39220474D01*
X22679817Y-39220476D01*
X22825396Y-39308482D01*
X22987806Y-39359090D01*
X23058386Y-39365504D01*
X23058389Y-39365504D01*
X23571615Y-39365504D01*
X23571618Y-39365504D01*
X23642198Y-39359090D01*
X23804608Y-39308482D01*
X23950187Y-39220476D01*
X24052322Y-39118340D01*
X24113643Y-39084856D01*
X24183334Y-39089840D01*
X24227683Y-39118341D01*
X24329811Y-39220469D01*
X24329813Y-39220470D01*
X24329815Y-39220472D01*
X24475394Y-39308478D01*
X24637804Y-39359086D01*
X24708384Y-39365500D01*
X24708387Y-39365500D01*
X25221613Y-39365500D01*
X25221616Y-39365500D01*
X25292196Y-39359086D01*
X25454606Y-39308478D01*
X25454613Y-39308473D01*
X25461445Y-39305400D01*
X25462287Y-39307272D01*
X25519731Y-39292094D01*
X25586209Y-39313599D01*
X25630507Y-39367631D01*
X25638561Y-39437035D01*
X25634056Y-39455051D01*
X25600144Y-39557391D01*
X25590000Y-39656677D01*
X25590000Y-39680000D01*
X27539999Y-39680000D01*
X27539999Y-39656692D01*
X27539998Y-39656677D01*
X27529855Y-39557392D01*
X27476547Y-39396518D01*
X27476542Y-39396507D01*
X27387575Y-39252271D01*
X27387572Y-39252267D01*
X27378343Y-39243038D01*
X27344858Y-39181715D01*
X27349842Y-39112023D01*
X27378347Y-39067672D01*
X27387972Y-39058048D01*
X27399764Y-39038930D01*
X27451708Y-38992205D01*
X27520670Y-38980980D01*
X27571275Y-38999031D01*
X27685473Y-39070787D01*
X27685477Y-39070788D01*
X27685478Y-39070789D01*
X27769507Y-39100192D01*
X27855745Y-39130368D01*
X27855750Y-39130369D01*
X28034996Y-39150565D01*
X28034997Y-39150565D01*
X28034998Y-39150564D01*
X28035000Y-39150565D01*
X28052443Y-39148599D01*
X28121263Y-39160652D01*
X28172644Y-39207999D01*
X28190270Y-39275609D01*
X28171867Y-39336915D01*
X28137454Y-39392706D01*
X28137450Y-39392715D01*
X28136190Y-39396518D01*
X28084564Y-39552315D01*
X28084564Y-39552316D01*
X28084563Y-39552316D01*
X28074500Y-39650818D01*
X28074500Y-40184181D01*
X28084563Y-40282683D01*
X28137450Y-40442284D01*
X28137455Y-40442295D01*
X28225716Y-40585387D01*
X28225719Y-40585391D01*
X28344608Y-40704280D01*
X28344612Y-40704283D01*
X28487704Y-40792544D01*
X28487707Y-40792545D01*
X28487713Y-40792549D01*
X28647315Y-40845436D01*
X28745826Y-40855500D01*
X28745831Y-40855500D01*
X29354169Y-40855500D01*
X29354174Y-40855500D01*
X29452685Y-40845436D01*
X29612287Y-40792549D01*
X29755391Y-40704281D01*
X29757583Y-40702089D01*
X29759461Y-40701063D01*
X29761059Y-40699800D01*
X29761274Y-40700072D01*
X29818904Y-40668600D01*
X29888596Y-40673579D01*
X29915979Y-40689004D01*
X29916121Y-40688776D01*
X29921881Y-40692329D01*
X29922183Y-40692499D01*
X29922275Y-40692572D01*
X30066507Y-40781536D01*
X30066518Y-40781541D01*
X30227393Y-40834849D01*
X30326683Y-40844993D01*
X30374999Y-40844992D01*
X30375000Y-40844992D01*
X30375000Y-40144994D01*
X30875000Y-40144994D01*
X30875000Y-40844993D01*
X30923308Y-40844993D01*
X30923322Y-40844992D01*
X31022607Y-40834849D01*
X31183481Y-40781541D01*
X31183492Y-40781536D01*
X31327728Y-40692569D01*
X31327730Y-40692567D01*
X31337351Y-40682947D01*
X31398673Y-40649460D01*
X31468365Y-40654442D01*
X31501942Y-40673356D01*
X31507266Y-40677565D01*
X31651505Y-40766534D01*
X31651516Y-40766539D01*
X31812391Y-40819847D01*
X31911681Y-40829991D01*
X32459998Y-40829991D01*
X32508306Y-40829991D01*
X32508320Y-40829990D01*
X32607605Y-40819847D01*
X32768479Y-40766539D01*
X32768490Y-40766534D01*
X32912726Y-40677567D01*
X32912730Y-40677564D01*
X33032570Y-40557724D01*
X33032573Y-40557720D01*
X33121540Y-40413484D01*
X33121545Y-40413473D01*
X33174853Y-40252598D01*
X33184997Y-40153314D01*
X33184998Y-40153301D01*
X33184998Y-40129992D01*
X32459998Y-40129992D01*
X32459998Y-40829991D01*
X31911681Y-40829991D01*
X31959997Y-40829990D01*
X31959998Y-40829990D01*
X31959998Y-40129992D01*
X31625278Y-40129992D01*
X31602994Y-40142160D01*
X31576636Y-40144994D01*
X30875000Y-40144994D01*
X30375000Y-40144994D01*
X30375000Y-39768994D01*
X30394685Y-39701955D01*
X30447489Y-39656200D01*
X30499000Y-39644994D01*
X31209720Y-39644994D01*
X31232004Y-39632826D01*
X31258362Y-39629992D01*
X33184997Y-39629992D01*
X33184997Y-39606684D01*
X33184996Y-39606669D01*
X33174853Y-39507384D01*
X33121545Y-39346510D01*
X33121542Y-39346503D01*
X33074103Y-39269594D01*
X33055662Y-39202201D01*
X33076584Y-39135538D01*
X33130226Y-39090768D01*
X33179641Y-39080496D01*
X33743916Y-39080496D01*
X33856765Y-39058048D01*
X33888909Y-39051654D01*
X34025491Y-38995080D01*
X34105440Y-38941660D01*
X34148412Y-38912948D01*
X34469075Y-38592283D01*
X34530397Y-38558800D01*
X34600088Y-38563784D01*
X34656022Y-38605655D01*
X34680439Y-38671120D01*
X34679512Y-38692767D01*
X34679882Y-38692797D01*
X34679500Y-38697647D01*
X34679500Y-38902351D01*
X34711522Y-39104534D01*
X34774781Y-39299223D01*
X34838691Y-39424653D01*
X34854180Y-39455051D01*
X34867715Y-39481613D01*
X34988028Y-39647213D01*
X35132786Y-39791971D01*
X35287749Y-39904556D01*
X35298390Y-39912287D01*
X35414607Y-39971503D01*
X35480776Y-40005218D01*
X35480778Y-40005218D01*
X35480781Y-40005220D01*
X35537377Y-40023609D01*
X35675465Y-40068477D01*
X35776557Y-40084488D01*
X35877648Y-40100500D01*
X35877649Y-40100500D01*
X36682351Y-40100500D01*
X36682352Y-40100500D01*
X36884534Y-40068477D01*
X37079219Y-40005220D01*
X37261610Y-39912287D01*
X37354590Y-39844732D01*
X37427213Y-39791971D01*
X37427215Y-39791968D01*
X37427219Y-39791966D01*
X37571966Y-39647219D01*
X37571968Y-39647215D01*
X37571971Y-39647213D01*
X37624732Y-39574590D01*
X37692287Y-39481610D01*
X37785220Y-39299219D01*
X37848477Y-39104534D01*
X37880500Y-38902352D01*
X37880500Y-38697648D01*
X37848477Y-38495466D01*
X37785220Y-38300781D01*
X37785218Y-38300778D01*
X37785218Y-38300776D01*
X37703536Y-38140468D01*
X37692287Y-38118390D01*
X37667033Y-38083630D01*
X37571971Y-37952786D01*
X37427213Y-37808028D01*
X37261614Y-37687715D01*
X37195144Y-37653847D01*
X37168917Y-37640483D01*
X37118123Y-37592511D01*
X37101328Y-37524690D01*
X37123865Y-37458555D01*
X37168917Y-37419516D01*
X37261610Y-37372287D01*
X37304789Y-37340916D01*
X37427213Y-37251971D01*
X37427215Y-37251968D01*
X37427219Y-37251966D01*
X37571966Y-37107219D01*
X37571968Y-37107215D01*
X37571971Y-37107213D01*
X37665572Y-36978380D01*
X37692287Y-36941610D01*
X37785220Y-36759219D01*
X37848477Y-36564534D01*
X37880500Y-36362352D01*
X37880500Y-36157648D01*
X37866967Y-36072206D01*
X37848477Y-35955465D01*
X37818787Y-35864090D01*
X37785220Y-35760781D01*
X37785218Y-35760778D01*
X37785218Y-35760776D01*
X37709582Y-35612334D01*
X37692287Y-35578390D01*
X37684556Y-35567749D01*
X37571971Y-35412786D01*
X37427213Y-35268028D01*
X37261611Y-35147713D01*
X37168369Y-35100203D01*
X37117574Y-35052229D01*
X37100779Y-34984407D01*
X37123317Y-34918273D01*
X37168371Y-34879234D01*
X37261347Y-34831861D01*
X37426894Y-34711582D01*
X37426895Y-34711582D01*
X37571582Y-34566895D01*
X37571582Y-34566894D01*
X37691859Y-34401349D01*
X37784755Y-34219029D01*
X37847990Y-34024413D01*
X37856609Y-33970000D01*
X36828482Y-33970000D01*
X36839111Y-33951591D01*
X36880000Y-33798991D01*
X36880000Y-33641009D01*
X36839111Y-33488409D01*
X36828482Y-33470000D01*
X37856609Y-33470000D01*
X37847990Y-33415586D01*
X37784755Y-33220970D01*
X37691859Y-33038650D01*
X37571582Y-32873105D01*
X37571582Y-32873104D01*
X37426894Y-32728416D01*
X37333068Y-32660247D01*
X37290403Y-32604917D01*
X37284424Y-32535303D01*
X37317030Y-32473508D01*
X37366947Y-32442225D01*
X37449564Y-32414849D01*
X37598806Y-32322795D01*
X37722795Y-32198806D01*
X37814849Y-32049564D01*
X37870004Y-31883116D01*
X37880500Y-31780379D01*
X37880499Y-30579622D01*
X37870004Y-30476884D01*
X37814849Y-30310436D01*
X37814845Y-30310430D01*
X37814844Y-30310427D01*
X37722797Y-30161197D01*
X37722794Y-30161193D01*
X37598806Y-30037205D01*
X37598802Y-30037202D01*
X37449572Y-29945155D01*
X37449566Y-29945152D01*
X37449564Y-29945151D01*
X37373663Y-29920000D01*
X37339176Y-29908572D01*
X37281731Y-29868799D01*
X37254908Y-29804283D01*
X37267223Y-29735507D01*
X37305294Y-29690548D01*
X37427219Y-29601966D01*
X37571966Y-29457219D01*
X37571968Y-29457215D01*
X37571971Y-29457213D01*
X37657859Y-29338996D01*
X37692287Y-29291610D01*
X37785220Y-29109219D01*
X37848477Y-28914534D01*
X37880500Y-28712352D01*
X37880500Y-28609994D01*
X42474859Y-28609994D01*
X42474859Y-28610005D01*
X42495385Y-28857729D01*
X42495387Y-28857738D01*
X42556412Y-29098717D01*
X42656266Y-29326364D01*
X42756564Y-29479882D01*
X43415387Y-28821059D01*
X43420889Y-28841591D01*
X43499881Y-28978408D01*
X43611592Y-29090119D01*
X43748409Y-29169111D01*
X43768940Y-29174612D01*
X43109942Y-29833609D01*
X43113277Y-29887323D01*
X43113277Y-29902692D01*
X43109942Y-29956390D01*
X43768940Y-30615387D01*
X43748409Y-30620889D01*
X43611592Y-30699881D01*
X43499881Y-30811592D01*
X43420889Y-30948409D01*
X43415387Y-30968939D01*
X42756564Y-30310116D01*
X42656267Y-30463632D01*
X42556412Y-30691282D01*
X42495387Y-30932261D01*
X42495385Y-30932270D01*
X42474859Y-31179994D01*
X42474859Y-31180005D01*
X42495385Y-31427729D01*
X42495387Y-31427738D01*
X42556412Y-31668717D01*
X42656266Y-31896364D01*
X42756564Y-32049882D01*
X43415387Y-31391059D01*
X43420889Y-31411591D01*
X43499881Y-31548408D01*
X43611592Y-31660119D01*
X43748409Y-31739111D01*
X43768940Y-31744612D01*
X43109942Y-32403609D01*
X43156768Y-32440055D01*
X43156770Y-32440056D01*
X43375385Y-32558364D01*
X43375396Y-32558369D01*
X43610506Y-32639083D01*
X43855707Y-32680000D01*
X44104293Y-32680000D01*
X44349493Y-32639083D01*
X44584603Y-32558369D01*
X44584614Y-32558364D01*
X44803228Y-32440057D01*
X44803231Y-32440055D01*
X44850056Y-32403609D01*
X44191059Y-31744612D01*
X44211591Y-31739111D01*
X44348408Y-31660119D01*
X44460119Y-31548408D01*
X44539111Y-31411591D01*
X44544612Y-31391060D01*
X45203434Y-32049882D01*
X45303731Y-31896369D01*
X45403587Y-31668717D01*
X45464612Y-31427738D01*
X45464614Y-31427729D01*
X45485141Y-31180005D01*
X45485141Y-31179994D01*
X45464614Y-30932270D01*
X45464612Y-30932261D01*
X45403587Y-30691282D01*
X45303731Y-30463630D01*
X45203434Y-30310116D01*
X44544612Y-30968939D01*
X44539111Y-30948409D01*
X44460119Y-30811592D01*
X44348408Y-30699881D01*
X44211591Y-30620889D01*
X44191059Y-30615387D01*
X44850056Y-29956390D01*
X44846722Y-29902683D01*
X44846722Y-29887314D01*
X44850056Y-29833609D01*
X44191059Y-29174612D01*
X44211591Y-29169111D01*
X44348408Y-29090119D01*
X44460119Y-28978408D01*
X44539111Y-28841591D01*
X44544612Y-28821060D01*
X45203434Y-29479882D01*
X45303731Y-29326369D01*
X45403587Y-29098717D01*
X45464612Y-28857738D01*
X45464614Y-28857729D01*
X45485141Y-28610005D01*
X45485141Y-28609994D01*
X45464614Y-28362270D01*
X45464612Y-28362261D01*
X45403587Y-28121282D01*
X45303731Y-27893630D01*
X45203434Y-27740116D01*
X44544612Y-28398939D01*
X44539111Y-28378409D01*
X44460119Y-28241592D01*
X44348408Y-28129881D01*
X44211591Y-28050889D01*
X44191060Y-28045387D01*
X44850057Y-27386390D01*
X44850056Y-27386389D01*
X44803229Y-27349943D01*
X44584614Y-27231635D01*
X44584603Y-27231630D01*
X44349493Y-27150916D01*
X44104293Y-27110000D01*
X43855707Y-27110000D01*
X43610506Y-27150916D01*
X43375396Y-27231630D01*
X43375390Y-27231632D01*
X43156761Y-27349949D01*
X43109942Y-27386388D01*
X43109942Y-27386390D01*
X43768940Y-28045387D01*
X43748409Y-28050889D01*
X43611592Y-28129881D01*
X43499881Y-28241592D01*
X43420889Y-28378409D01*
X43415387Y-28398939D01*
X42756564Y-27740116D01*
X42656267Y-27893632D01*
X42556412Y-28121282D01*
X42495387Y-28362261D01*
X42495385Y-28362270D01*
X42474859Y-28609994D01*
X37880500Y-28609994D01*
X37880500Y-28507648D01*
X37872878Y-28459523D01*
X37848477Y-28305465D01*
X37804463Y-28170004D01*
X37785220Y-28110781D01*
X37785218Y-28110778D01*
X37785218Y-28110776D01*
X37728616Y-27999690D01*
X37692287Y-27928390D01*
X37651378Y-27872083D01*
X37571971Y-27762786D01*
X37427213Y-27618028D01*
X37261611Y-27497713D01*
X37168369Y-27450203D01*
X37117574Y-27402229D01*
X37100779Y-27334407D01*
X37123317Y-27268273D01*
X37168371Y-27229234D01*
X37261347Y-27181861D01*
X37426894Y-27061582D01*
X37426895Y-27061582D01*
X37571582Y-26916895D01*
X37571582Y-26916894D01*
X37691859Y-26751349D01*
X37784755Y-26569029D01*
X37847990Y-26374413D01*
X37856609Y-26320000D01*
X36828482Y-26320000D01*
X36839111Y-26301591D01*
X36880000Y-26148991D01*
X36880000Y-25991009D01*
X36839111Y-25838409D01*
X36828482Y-25820000D01*
X37856609Y-25820000D01*
X37847990Y-25765586D01*
X37784755Y-25570970D01*
X37691859Y-25388650D01*
X37571582Y-25223105D01*
X37571582Y-25223104D01*
X37426895Y-25078417D01*
X37261349Y-24958140D01*
X37168370Y-24910765D01*
X37117574Y-24862790D01*
X37100779Y-24794969D01*
X37123316Y-24728835D01*
X37168370Y-24689795D01*
X37261610Y-24642287D01*
X37282770Y-24626913D01*
X37427213Y-24521971D01*
X37427215Y-24521968D01*
X37427219Y-24521966D01*
X37571966Y-24377219D01*
X37571968Y-24377215D01*
X37571971Y-24377213D01*
X37624732Y-24304590D01*
X37692287Y-24211610D01*
X37785220Y-24029219D01*
X37848477Y-23834534D01*
X37880500Y-23632352D01*
X37880500Y-23427648D01*
X37848477Y-23225466D01*
X37841082Y-23202708D01*
X37785218Y-23030776D01*
X37751503Y-22964607D01*
X37692287Y-22848390D01*
X37680471Y-22832127D01*
X37571971Y-22682786D01*
X37427213Y-22538028D01*
X37333653Y-22470054D01*
X37290987Y-22414725D01*
X37285008Y-22345111D01*
X37317613Y-22283316D01*
X37367533Y-22252031D01*
X37449564Y-22224849D01*
X37598806Y-22132795D01*
X37722795Y-22008806D01*
X37814849Y-21859564D01*
X37870004Y-21693116D01*
X37880500Y-21590379D01*
X37880499Y-20389622D01*
X37870004Y-20286884D01*
X37814849Y-20120436D01*
X37814845Y-20120430D01*
X37814844Y-20120427D01*
X37722797Y-19971197D01*
X37722794Y-19971193D01*
X37598806Y-19847205D01*
X37598802Y-19847202D01*
X37449572Y-19755155D01*
X37449566Y-19755152D01*
X37449564Y-19755151D01*
X37283116Y-19699996D01*
X37283113Y-19699995D01*
X37283114Y-19699995D01*
X37180380Y-19689500D01*
X35379628Y-19689500D01*
X35379612Y-19689501D01*
X35276882Y-19699996D01*
X35110438Y-19755150D01*
X35110427Y-19755155D01*
X34961197Y-19847202D01*
X34961193Y-19847205D01*
X34837205Y-19971193D01*
X34837202Y-19971197D01*
X34745155Y-20120427D01*
X34745150Y-20120438D01*
X34689995Y-20286887D01*
X34679500Y-20389613D01*
X34679500Y-21477769D01*
X34659815Y-21544808D01*
X34643181Y-21565450D01*
X34175451Y-22033181D01*
X34114128Y-22066666D01*
X34087770Y-22069500D01*
X32604648Y-22069500D01*
X32537609Y-22049815D01*
X32491854Y-21997011D01*
X32481910Y-21927853D01*
X32499110Y-21880403D01*
X32546544Y-21803500D01*
X32546549Y-21803489D01*
X32599857Y-21642614D01*
X32610001Y-21543330D01*
X32610002Y-21543317D01*
X32610002Y-21520008D01*
X30966122Y-21520008D01*
X30952998Y-21527174D01*
X30926640Y-21530008D01*
X28995003Y-21530008D01*
X28995003Y-21553330D01*
X29005146Y-21652615D01*
X29058454Y-21813489D01*
X29058459Y-21813500D01*
X29147426Y-21957736D01*
X29147429Y-21957740D01*
X29156657Y-21966968D01*
X29190142Y-22028291D01*
X29185158Y-22097983D01*
X29156660Y-22142327D01*
X29147033Y-22151953D01*
X29147029Y-22151959D01*
X29058001Y-22296294D01*
X29057996Y-22296305D01*
X29004651Y-22457290D01*
X28994500Y-22556647D01*
X28994500Y-23103337D01*
X28994501Y-23103355D01*
X29004650Y-23202707D01*
X29004651Y-23202710D01*
X29057996Y-23363694D01*
X29058001Y-23363705D01*
X29147029Y-23508040D01*
X29147032Y-23508044D01*
X29232284Y-23593296D01*
X29265769Y-23654619D01*
X29260785Y-23724311D01*
X29250142Y-23746073D01*
X29187454Y-23847706D01*
X29187451Y-23847713D01*
X29134564Y-24007315D01*
X29134564Y-24007316D01*
X29134563Y-24007316D01*
X29124500Y-24105818D01*
X29124500Y-24714181D01*
X29134563Y-24812683D01*
X29134564Y-24812685D01*
X29145042Y-24844305D01*
X29187450Y-24972285D01*
X29187453Y-24972291D01*
X29216038Y-25018633D01*
X29234500Y-25083731D01*
X29234500Y-25173819D01*
X29214815Y-25240858D01*
X29162011Y-25286613D01*
X29092853Y-25296557D01*
X29029297Y-25267532D01*
X29022819Y-25261500D01*
X28561453Y-24800135D01*
X28530059Y-24747052D01*
X28501746Y-24649596D01*
X28497423Y-24642287D01*
X28418084Y-24508131D01*
X28418083Y-24508129D01*
X28418081Y-24508127D01*
X28418078Y-24508123D01*
X28301872Y-24391917D01*
X28301864Y-24391911D01*
X28160398Y-24308249D01*
X28160395Y-24308248D01*
X28062945Y-24279936D01*
X28009859Y-24248541D01*
X25647207Y-21885888D01*
X25647206Y-21885887D01*
X25532468Y-21809222D01*
X25404993Y-21756421D01*
X25404983Y-21756418D01*
X25269657Y-21729500D01*
X25269655Y-21729500D01*
X25269654Y-21729500D01*
X24359000Y-21729500D01*
X24291961Y-21709815D01*
X24246206Y-21657011D01*
X24235000Y-21605500D01*
X24235000Y-21560000D01*
X23414617Y-21560000D01*
X23465063Y-21509554D01*
X23507850Y-21435445D01*
X23529999Y-21352787D01*
X23529999Y-21267213D01*
X23507850Y-21184555D01*
X23465063Y-21110446D01*
X23404553Y-21049936D01*
X23330444Y-21007149D01*
X23328712Y-21006685D01*
X28995002Y-21006685D01*
X28995002Y-21030008D01*
X29720002Y-21030008D01*
X29720002Y-20330008D01*
X30220002Y-20330008D01*
X30220002Y-21030008D01*
X30638882Y-21030008D01*
X30652006Y-21022842D01*
X30678364Y-21020008D01*
X31385002Y-21020008D01*
X31885002Y-21020008D01*
X32610001Y-21020008D01*
X32610001Y-20996700D01*
X32610000Y-20996685D01*
X32599857Y-20897400D01*
X32546549Y-20736526D01*
X32546544Y-20736515D01*
X32457577Y-20592279D01*
X32457574Y-20592275D01*
X32337734Y-20472435D01*
X32337730Y-20472432D01*
X32193494Y-20383465D01*
X32193483Y-20383460D01*
X32032608Y-20330152D01*
X31933324Y-20320008D01*
X31885002Y-20320008D01*
X31885002Y-21020008D01*
X31385002Y-21020008D01*
X31385002Y-20320008D01*
X31385001Y-20320007D01*
X31336695Y-20320008D01*
X31336677Y-20320009D01*
X31237394Y-20330152D01*
X31076520Y-20383460D01*
X31076509Y-20383465D01*
X30932273Y-20472432D01*
X30932269Y-20472435D01*
X30885183Y-20519522D01*
X30823860Y-20553007D01*
X30754168Y-20548023D01*
X30709821Y-20519522D01*
X30672734Y-20482435D01*
X30672730Y-20482432D01*
X30528494Y-20393465D01*
X30528483Y-20393460D01*
X30367608Y-20340152D01*
X30268324Y-20330008D01*
X30220002Y-20330008D01*
X29720002Y-20330008D01*
X29720001Y-20330007D01*
X29671695Y-20330008D01*
X29671677Y-20330009D01*
X29572394Y-20340152D01*
X29411520Y-20393460D01*
X29411509Y-20393465D01*
X29267273Y-20482432D01*
X29267269Y-20482435D01*
X29147429Y-20602275D01*
X29147426Y-20602279D01*
X29058459Y-20746515D01*
X29058454Y-20746526D01*
X29005146Y-20907401D01*
X28995002Y-21006685D01*
X23328712Y-21006685D01*
X23247786Y-20985000D01*
X22762212Y-20985000D01*
X22679554Y-21007149D01*
X22605445Y-21049936D01*
X22544935Y-21110446D01*
X22533645Y-21130000D01*
X22478003Y-21130000D01*
X22476340Y-21131662D01*
X22458318Y-21193039D01*
X22405514Y-21238794D01*
X22354003Y-21250000D01*
X21346648Y-21250000D01*
X21346639Y-21250001D01*
X20499977Y-21250001D01*
X20535072Y-21214906D01*
X20581150Y-21135096D01*
X20605002Y-21046079D01*
X20605002Y-20953923D01*
X20581150Y-20864906D01*
X20535072Y-20785096D01*
X20499977Y-20750001D01*
X20736357Y-20750001D01*
X20736366Y-20750000D01*
X20792000Y-20750000D01*
X20792000Y-20654000D01*
X20811685Y-20586961D01*
X20864489Y-20541206D01*
X20916000Y-20530000D01*
X21435000Y-20530000D01*
X21935000Y-20530000D01*
X22454000Y-20530000D01*
X22521039Y-20549685D01*
X22566794Y-20602489D01*
X22571327Y-20623327D01*
X22578000Y-20630000D01*
X22735000Y-20630000D01*
X23235000Y-20630000D01*
X24235000Y-20630000D01*
X24235000Y-19832172D01*
X24234999Y-19832155D01*
X24228598Y-19772627D01*
X24228596Y-19772620D01*
X24178354Y-19637913D01*
X24178350Y-19637906D01*
X24092190Y-19522812D01*
X24092187Y-19522809D01*
X23977093Y-19436649D01*
X23977086Y-19436645D01*
X23842379Y-19386403D01*
X23842372Y-19386401D01*
X23782844Y-19380000D01*
X23235000Y-19380000D01*
X23235000Y-20630000D01*
X22735000Y-20630000D01*
X22735000Y-19380000D01*
X22183853Y-19380000D01*
X22183853Y-19379307D01*
X22150283Y-19374173D01*
X22149926Y-19375686D01*
X22142375Y-19373902D01*
X22082842Y-19367500D01*
X21935000Y-19367500D01*
X21935000Y-20530000D01*
X21435000Y-20530000D01*
X21435000Y-19367500D01*
X21287155Y-19367500D01*
X21227627Y-19373901D01*
X21227620Y-19373903D01*
X21092913Y-19424145D01*
X21092906Y-19424149D01*
X21054551Y-19452862D01*
X20992064Y-19476168D01*
X20979693Y-19507797D01*
X20891646Y-19625411D01*
X20891645Y-19625413D01*
X20847291Y-19744333D01*
X20805419Y-19800267D01*
X20739955Y-19824684D01*
X20731109Y-19825000D01*
X20255002Y-19825000D01*
X20255002Y-20650001D01*
X19755002Y-20650001D01*
X19755002Y-19825001D01*
X19737529Y-19825001D01*
X19554854Y-19853934D01*
X19378961Y-19911084D01*
X19378958Y-19911085D01*
X19214164Y-19995053D01*
X19064547Y-20103755D01*
X19064542Y-20103759D01*
X18962181Y-20206121D01*
X18900858Y-20239606D01*
X18831166Y-20234622D01*
X18775233Y-20192750D01*
X18750816Y-20127286D01*
X18750500Y-20118440D01*
X18750500Y-19033299D01*
X18770185Y-18966260D01*
X18822989Y-18920505D01*
X18892147Y-18910561D01*
X18955703Y-18939586D01*
X18976071Y-18962170D01*
X19098402Y-19136877D01*
X19253123Y-19291598D01*
X19432361Y-19417102D01*
X19630670Y-19509575D01*
X19842023Y-19566207D01*
X20024926Y-19582208D01*
X20059998Y-19585277D01*
X20060000Y-19585277D01*
X20060002Y-19585277D01*
X20088254Y-19582805D01*
X20277977Y-19566207D01*
X20489330Y-19509575D01*
X20687639Y-19417102D01*
X20809303Y-19331911D01*
X20868833Y-19311835D01*
X20880974Y-19279284D01*
X20892547Y-19265927D01*
X21021598Y-19136877D01*
X21147102Y-18957639D01*
X21239575Y-18759330D01*
X21296207Y-18547977D01*
X21315277Y-18330000D01*
X21296207Y-18112023D01*
X21239575Y-17900670D01*
X21147102Y-17702362D01*
X21147100Y-17702359D01*
X21147099Y-17702357D01*
X21021599Y-17523124D01*
X21021596Y-17523121D01*
X20866877Y-17368402D01*
X20687639Y-17242898D01*
X20687640Y-17242898D01*
X20687638Y-17242897D01*
X20588484Y-17196661D01*
X20489330Y-17150425D01*
X20489326Y-17150424D01*
X20489322Y-17150422D01*
X20277977Y-17093793D01*
X20212079Y-17088027D01*
X20147011Y-17062576D01*
X20106032Y-17005985D01*
X20102154Y-16936223D01*
X20136608Y-16875439D01*
X20198455Y-16842931D01*
X20222887Y-16840500D01*
X44097113Y-16840500D01*
X44164152Y-16860185D01*
G37*
%TD.AperFunction*%
%TA.AperFunction,Conductor*%
G36*
X34681185Y-34081271D02*
G01*
X34737119Y-34123142D01*
X34755783Y-34159135D01*
X34775244Y-34219029D01*
X34868140Y-34401349D01*
X34988417Y-34566894D01*
X34988417Y-34566895D01*
X35133104Y-34711582D01*
X35298652Y-34831861D01*
X35391628Y-34879234D01*
X35442425Y-34927208D01*
X35459220Y-34995029D01*
X35436683Y-35061164D01*
X35391630Y-35100203D01*
X35298388Y-35147713D01*
X35132786Y-35268028D01*
X34988028Y-35412786D01*
X34867715Y-35578386D01*
X34774781Y-35760776D01*
X34711522Y-35955465D01*
X34679500Y-36157648D01*
X34679500Y-36207762D01*
X34659815Y-36274801D01*
X34643181Y-36295443D01*
X33395447Y-37543177D01*
X33334124Y-37576662D01*
X33307766Y-37579496D01*
X33011876Y-37579496D01*
X32944837Y-37559811D01*
X32924195Y-37543177D01*
X32913046Y-37532028D01*
X32913042Y-37532025D01*
X32768707Y-37442997D01*
X32768701Y-37442994D01*
X32768699Y-37442993D01*
X32768696Y-37442992D01*
X32607711Y-37389647D01*
X32508348Y-37379496D01*
X31911664Y-37379496D01*
X31911646Y-37379497D01*
X31812294Y-37389646D01*
X31812291Y-37389647D01*
X31651307Y-37442992D01*
X31651296Y-37442997D01*
X31506961Y-37532025D01*
X31506955Y-37532029D01*
X31497607Y-37541378D01*
X31436283Y-37574861D01*
X31366591Y-37569874D01*
X31333018Y-37550960D01*
X31328044Y-37547027D01*
X31183709Y-37457999D01*
X31183703Y-37457996D01*
X31183701Y-37457995D01*
X31128351Y-37439654D01*
X31022713Y-37404649D01*
X30923350Y-37394498D01*
X30326666Y-37394498D01*
X30326648Y-37394499D01*
X30227296Y-37404648D01*
X30227293Y-37404649D01*
X30066309Y-37457994D01*
X30066298Y-37457999D01*
X29921963Y-37547027D01*
X29921955Y-37547033D01*
X29921579Y-37547410D01*
X29921257Y-37547585D01*
X29916297Y-37551508D01*
X29915626Y-37550659D01*
X29860253Y-37580890D01*
X29790562Y-37575899D01*
X29756998Y-37556990D01*
X29755394Y-37555722D01*
X29755391Y-37555719D01*
X29755385Y-37555715D01*
X29612295Y-37467455D01*
X29612289Y-37467452D01*
X29612287Y-37467451D01*
X29452685Y-37414564D01*
X29452683Y-37414563D01*
X29354181Y-37404500D01*
X29354174Y-37404500D01*
X28745826Y-37404500D01*
X28745818Y-37404500D01*
X28647316Y-37414563D01*
X28647315Y-37414564D01*
X28571599Y-37439654D01*
X28487715Y-37467450D01*
X28487710Y-37467452D01*
X28343663Y-37556302D01*
X28276270Y-37574742D01*
X28237614Y-37567805D01*
X28214258Y-37559633D01*
X28214257Y-37559632D01*
X28214255Y-37559632D01*
X28214253Y-37559631D01*
X28214246Y-37559630D01*
X28035004Y-37539435D01*
X28034996Y-37539435D01*
X27855750Y-37559630D01*
X27855745Y-37559631D01*
X27685476Y-37619211D01*
X27535685Y-37713332D01*
X27468448Y-37732332D01*
X27401613Y-37711964D01*
X27382032Y-37696020D01*
X27325512Y-37639500D01*
X27268048Y-37582036D01*
X27268045Y-37582034D01*
X27268044Y-37582033D01*
X27123709Y-37493005D01*
X27123703Y-37493002D01*
X27123701Y-37493001D01*
X27039863Y-37465220D01*
X26962713Y-37439655D01*
X26863350Y-37429504D01*
X26266666Y-37429504D01*
X26266648Y-37429505D01*
X26167296Y-37439654D01*
X26167293Y-37439655D01*
X26006309Y-37493000D01*
X26006298Y-37493005D01*
X25861963Y-37582033D01*
X25861959Y-37582036D01*
X25840815Y-37603181D01*
X25779492Y-37636666D01*
X25753134Y-37639500D01*
X25731519Y-37639500D01*
X25664480Y-37619815D01*
X25643837Y-37603180D01*
X25600187Y-37559529D01*
X25594282Y-37554903D01*
X25596110Y-37552569D01*
X25558147Y-37511088D01*
X25545502Y-37456534D01*
X25545502Y-37314974D01*
X25552460Y-37274019D01*
X25580370Y-37194256D01*
X25580371Y-37194251D01*
X25600567Y-37015005D01*
X25600567Y-37014998D01*
X25580371Y-36835752D01*
X25580370Y-36835747D01*
X25520790Y-36665477D01*
X25505057Y-36640439D01*
X25486056Y-36573202D01*
X25506423Y-36506367D01*
X25559691Y-36461153D01*
X25628947Y-36451914D01*
X25653385Y-36458285D01*
X25667617Y-36463593D01*
X25667625Y-36463595D01*
X25727153Y-36469996D01*
X25727170Y-36469997D01*
X25774998Y-36469997D01*
X25774998Y-36468623D01*
X25794683Y-36401584D01*
X25847487Y-36355829D01*
X25916645Y-36345885D01*
X25973307Y-36369355D01*
X25994454Y-36385186D01*
X26025310Y-36408285D01*
X26061106Y-36456105D01*
X26074998Y-36469997D01*
X26122817Y-36469997D01*
X26122831Y-36469996D01*
X26159401Y-36466064D01*
X26185910Y-36466064D01*
X26227123Y-36470495D01*
X26622868Y-36470494D01*
X26661728Y-36466316D01*
X26688234Y-36466316D01*
X26727126Y-36470498D01*
X27122871Y-36470497D01*
X27122872Y-36470496D01*
X27122884Y-36470496D01*
X27161742Y-36466318D01*
X27188250Y-36466318D01*
X27227125Y-36470498D01*
X27622870Y-36470497D01*
X27682481Y-36464089D01*
X27817329Y-36413794D01*
X27932544Y-36327544D01*
X28018794Y-36212329D01*
X28069089Y-36077481D01*
X28075498Y-36017871D01*
X28075497Y-35986977D01*
X28095180Y-35919940D01*
X28147982Y-35874183D01*
X28175135Y-35866737D01*
X28174932Y-35865876D01*
X28182479Y-35864092D01*
X28182481Y-35864091D01*
X28182483Y-35864091D01*
X28317331Y-35813796D01*
X28432546Y-35727546D01*
X28490456Y-35650188D01*
X28546389Y-35608318D01*
X28589722Y-35600500D01*
X32854071Y-35600500D01*
X32965220Y-35578390D01*
X32979744Y-35575501D01*
X33098127Y-35526465D01*
X33123516Y-35509501D01*
X33123517Y-35509501D01*
X33184242Y-35468925D01*
X33204669Y-35455277D01*
X34550176Y-34109768D01*
X34611494Y-34076287D01*
X34681185Y-34081271D01*
G37*
%TD.AperFunction*%
%TA.AperFunction,Conductor*%
G36*
X34844088Y-29294229D02*
G01*
X34900021Y-29336101D01*
X34901051Y-29337496D01*
X34988034Y-29457219D01*
X35132781Y-29601966D01*
X35254704Y-29690548D01*
X35297370Y-29745877D01*
X35303349Y-29815490D01*
X35270744Y-29877286D01*
X35220824Y-29908572D01*
X35110436Y-29945151D01*
X35110427Y-29945155D01*
X34961197Y-30037202D01*
X34961193Y-30037205D01*
X34837205Y-30161193D01*
X34837202Y-30161197D01*
X34745155Y-30310427D01*
X34745150Y-30310438D01*
X34689995Y-30476887D01*
X34679500Y-30579613D01*
X34679500Y-31780371D01*
X34679501Y-31780387D01*
X34689996Y-31883117D01*
X34727399Y-31995993D01*
X34729801Y-32065822D01*
X34697374Y-32122678D01*
X33011373Y-33808680D01*
X32950050Y-33842165D01*
X32923692Y-33844999D01*
X30955004Y-33844999D01*
X30955004Y-33851581D01*
X30961411Y-33922101D01*
X30961412Y-33922106D01*
X31011984Y-34084396D01*
X31028278Y-34111349D01*
X31046115Y-34178903D01*
X31024598Y-34245377D01*
X30970558Y-34289666D01*
X30922162Y-34299500D01*
X30035666Y-34299500D01*
X29968627Y-34279815D01*
X29922872Y-34227011D01*
X29912928Y-34157853D01*
X29941953Y-34094297D01*
X29947985Y-34087819D01*
X30236813Y-33798991D01*
X30743322Y-33292480D01*
X30804645Y-33258996D01*
X30874336Y-33263980D01*
X30930270Y-33305852D01*
X30938844Y-33328840D01*
X30955003Y-33344999D01*
X32905002Y-33344999D01*
X32905002Y-33338416D01*
X32898594Y-33267896D01*
X32898593Y-33267891D01*
X32848021Y-33105602D01*
X32760075Y-32960121D01*
X32657985Y-32858031D01*
X32624500Y-32796708D01*
X32629484Y-32727016D01*
X32657984Y-32682670D01*
X32760469Y-32580186D01*
X32848475Y-32434607D01*
X32899083Y-32272197D01*
X32905497Y-32201617D01*
X32905497Y-31688385D01*
X32899083Y-31617805D01*
X32848475Y-31455395D01*
X32797734Y-31371460D01*
X32779899Y-31303908D01*
X32801416Y-31237434D01*
X32816165Y-31219637D01*
X34713075Y-29322728D01*
X34774396Y-29289245D01*
X34844088Y-29294229D01*
G37*
%TD.AperFunction*%
%TA.AperFunction,Conductor*%
G36*
X34608348Y-23573772D02*
G01*
X34663527Y-23616632D01*
X34685426Y-23669766D01*
X34711522Y-23834534D01*
X34774781Y-24029223D01*
X34867715Y-24211613D01*
X34988028Y-24377213D01*
X35132786Y-24521971D01*
X35278549Y-24627872D01*
X35298390Y-24642287D01*
X35370424Y-24678990D01*
X35391629Y-24689795D01*
X35442425Y-24737770D01*
X35459220Y-24805591D01*
X35436682Y-24871726D01*
X35391629Y-24910765D01*
X35298650Y-24958140D01*
X35133105Y-25078417D01*
X35133104Y-25078417D01*
X34988417Y-25223104D01*
X34988417Y-25223105D01*
X34868140Y-25388650D01*
X34775244Y-25570970D01*
X34712009Y-25765586D01*
X34703391Y-25820000D01*
X35731518Y-25820000D01*
X35720889Y-25838409D01*
X35680000Y-25991009D01*
X35680000Y-26148991D01*
X35720889Y-26301591D01*
X35731518Y-26320000D01*
X34703391Y-26320000D01*
X34712009Y-26374413D01*
X34775244Y-26569029D01*
X34868140Y-26751349D01*
X34988417Y-26916894D01*
X34988417Y-26916895D01*
X35133104Y-27061582D01*
X35298652Y-27181861D01*
X35391628Y-27229234D01*
X35442425Y-27277208D01*
X35459220Y-27345029D01*
X35436683Y-27411164D01*
X35391630Y-27450203D01*
X35298388Y-27497713D01*
X35132786Y-27618028D01*
X34988032Y-27762782D01*
X34988028Y-27762787D01*
X34874981Y-27918385D01*
X34819652Y-27961051D01*
X34774663Y-27969500D01*
X34456913Y-27969500D01*
X34333180Y-27994112D01*
X34333172Y-27994114D01*
X34216608Y-28042397D01*
X34111702Y-28112492D01*
X29330677Y-32893517D01*
X29269354Y-32927002D01*
X29199662Y-32922018D01*
X29143729Y-32880146D01*
X29126813Y-32849166D01*
X29118796Y-32827670D01*
X29118792Y-32827663D01*
X29032546Y-32712454D01*
X29032543Y-32712451D01*
X28917334Y-32626205D01*
X28917327Y-32626201D01*
X28782481Y-32575907D01*
X28782482Y-32575907D01*
X28722882Y-32569500D01*
X28722880Y-32569499D01*
X28722872Y-32569499D01*
X28722864Y-32569499D01*
X28691978Y-32569499D01*
X28624939Y-32549814D01*
X28579184Y-32497010D01*
X28571735Y-32469862D01*
X28570877Y-32470065D01*
X28569093Y-32462517D01*
X28518798Y-32327668D01*
X28518794Y-32327661D01*
X28432548Y-32212452D01*
X28432545Y-32212449D01*
X28317336Y-32126203D01*
X28317329Y-32126199D01*
X28182483Y-32075905D01*
X28174939Y-32074123D01*
X28175476Y-32071849D01*
X28121693Y-32049572D01*
X28081845Y-31992180D01*
X28075499Y-31953021D01*
X28075499Y-31922128D01*
X28075498Y-31922122D01*
X28074275Y-31910747D01*
X28069091Y-31862516D01*
X28057330Y-31830984D01*
X28018797Y-31727670D01*
X28018793Y-31727663D01*
X27932547Y-31612454D01*
X27932544Y-31612451D01*
X27817335Y-31526205D01*
X27817328Y-31526201D01*
X27682486Y-31475909D01*
X27682485Y-31475908D01*
X27682483Y-31475908D01*
X27622873Y-31469499D01*
X27622863Y-31469499D01*
X27227130Y-31469499D01*
X27227121Y-31469500D01*
X27202751Y-31472120D01*
X27133992Y-31459713D01*
X27082856Y-31412101D01*
X27065499Y-31348830D01*
X27065499Y-30383687D01*
X27085184Y-30316648D01*
X27137988Y-30270893D01*
X27207146Y-30260949D01*
X27270702Y-30289974D01*
X27294491Y-30317713D01*
X27360184Y-30422262D01*
X27487738Y-30549816D01*
X27640478Y-30645789D01*
X27770490Y-30691282D01*
X27810745Y-30705368D01*
X27810750Y-30705369D01*
X27989996Y-30725565D01*
X27990000Y-30725565D01*
X27990004Y-30725565D01*
X28169249Y-30705369D01*
X28169252Y-30705368D01*
X28169255Y-30705368D01*
X28339522Y-30645789D01*
X28492262Y-30549816D01*
X28619816Y-30422262D01*
X28715789Y-30269522D01*
X28752007Y-30166013D01*
X28781363Y-30119292D01*
X29184114Y-29716543D01*
X29260775Y-29601811D01*
X29281885Y-29550848D01*
X29293716Y-29522284D01*
X29313580Y-29474328D01*
X29334332Y-29370004D01*
X29340500Y-29338996D01*
X29340500Y-28906220D01*
X29360185Y-28839181D01*
X29412989Y-28793426D01*
X29482147Y-28783482D01*
X29530473Y-28801227D01*
X29585475Y-28835788D01*
X29755745Y-28895368D01*
X29755750Y-28895369D01*
X29934996Y-28915565D01*
X29935000Y-28915565D01*
X29935004Y-28915565D01*
X30114249Y-28895369D01*
X30114252Y-28895368D01*
X30114255Y-28895368D01*
X30284522Y-28835789D01*
X30437262Y-28739816D01*
X30564816Y-28612262D01*
X30660789Y-28459522D01*
X30720368Y-28289255D01*
X30724065Y-28256447D01*
X30740565Y-28110003D01*
X30740565Y-28109996D01*
X30720369Y-27930750D01*
X30720366Y-27930737D01*
X30660790Y-27760479D01*
X30654506Y-27750478D01*
X30635500Y-27684507D01*
X30635500Y-26970846D01*
X30655185Y-26903807D01*
X30694400Y-26865309D01*
X30763048Y-26822967D01*
X30772667Y-26813347D01*
X30833986Y-26779860D01*
X30903678Y-26784839D01*
X30948033Y-26813343D01*
X30957263Y-26822573D01*
X30957267Y-26822576D01*
X31101503Y-26911543D01*
X31101514Y-26911548D01*
X31262389Y-26964856D01*
X31361679Y-26975000D01*
X31884996Y-26975000D01*
X31908304Y-26975000D01*
X31908318Y-26974999D01*
X32007603Y-26964856D01*
X32168477Y-26911548D01*
X32168488Y-26911543D01*
X32312724Y-26822576D01*
X32312728Y-26822573D01*
X32432568Y-26702733D01*
X32432571Y-26702729D01*
X32521538Y-26558493D01*
X32521543Y-26558482D01*
X32574851Y-26397607D01*
X32584995Y-26298323D01*
X32584996Y-26298310D01*
X32584996Y-26250001D01*
X31884996Y-26250001D01*
X31884996Y-26975000D01*
X31361679Y-26975000D01*
X31384996Y-26974999D01*
X31384996Y-25874001D01*
X31404681Y-25806962D01*
X31457485Y-25761207D01*
X31508996Y-25750001D01*
X32584995Y-25750001D01*
X32584995Y-25701693D01*
X32584994Y-25701678D01*
X32574851Y-25602393D01*
X32521543Y-25441519D01*
X32521538Y-25441508D01*
X32432571Y-25297272D01*
X32432568Y-25297268D01*
X32425167Y-25289867D01*
X32391682Y-25228544D01*
X32396666Y-25158852D01*
X32420568Y-25121659D01*
X32419803Y-25121054D01*
X32424275Y-25115396D01*
X32424281Y-25115391D01*
X32512549Y-24972287D01*
X32565436Y-24812685D01*
X32575500Y-24714174D01*
X32575500Y-24105826D01*
X32565436Y-24007315D01*
X32512549Y-23847713D01*
X32458197Y-23759596D01*
X32439758Y-23692204D01*
X32460680Y-23625541D01*
X32514322Y-23580771D01*
X32563737Y-23570500D01*
X34523919Y-23570500D01*
X34528354Y-23569617D01*
X34538757Y-23567548D01*
X34608348Y-23573772D01*
G37*
%TD.AperFunction*%
%TA.AperFunction,Conductor*%
G36*
X27882539Y-26529684D02*
G01*
X27928294Y-26582488D01*
X27939500Y-26633999D01*
X27939500Y-28928479D01*
X27919815Y-28995518D01*
X27903181Y-29016160D01*
X27790708Y-29128633D01*
X27743982Y-29157993D01*
X27640478Y-29194210D01*
X27640475Y-29194212D01*
X27487737Y-29290184D01*
X27360184Y-29417737D01*
X27294493Y-29522284D01*
X27242158Y-29568575D01*
X27173104Y-29579223D01*
X27109256Y-29550848D01*
X27070884Y-29492458D01*
X27065499Y-29456312D01*
X27065499Y-27815631D01*
X27085184Y-27748592D01*
X27137988Y-27702837D01*
X27207146Y-27692893D01*
X27240398Y-27702559D01*
X27245937Y-27705052D01*
X27402442Y-27753820D01*
X27402440Y-27753820D01*
X27449999Y-27758141D01*
X27450000Y-27758141D01*
X27450000Y-26633999D01*
X27469685Y-26566960D01*
X27522489Y-26521205D01*
X27574000Y-26509999D01*
X27815500Y-26509999D01*
X27882539Y-26529684D01*
G37*
%TD.AperFunction*%
%TA.AperFunction,Conductor*%
G36*
X23198037Y-25100184D02*
G01*
X23243792Y-25152988D01*
X23254998Y-25204499D01*
X23254998Y-25826932D01*
X23247785Y-25825000D01*
X22762211Y-25825000D01*
X22754997Y-25826933D01*
X22754997Y-25773001D01*
X22721319Y-25739323D01*
X22687834Y-25678000D01*
X22685000Y-25651642D01*
X22685000Y-25204499D01*
X22704685Y-25137460D01*
X22757489Y-25091705D01*
X22808997Y-25080499D01*
X23130999Y-25080499D01*
X23198037Y-25100184D01*
G37*
%TD.AperFunction*%
%TA.AperFunction,Conductor*%
G36*
X19928041Y-22539686D02*
G01*
X19973796Y-22592490D01*
X19985002Y-22644001D01*
X19985002Y-23976634D01*
X19984997Y-23976651D01*
X19984997Y-24815998D01*
X19965312Y-24883037D01*
X19912508Y-24928792D01*
X19860997Y-24939998D01*
X19608997Y-24939998D01*
X19541958Y-24920313D01*
X19496203Y-24867509D01*
X19484997Y-24815998D01*
X19484997Y-23483365D01*
X19485002Y-23483347D01*
X19485002Y-22644001D01*
X19504687Y-22576962D01*
X19557491Y-22531207D01*
X19609002Y-22520001D01*
X19861002Y-22520001D01*
X19928041Y-22539686D01*
G37*
%TD.AperFunction*%
%TD*%
M02*
