%TF.GenerationSoftware,KiCad,Pcbnew,9.0.4*%
%TF.CreationDate,2025-11-14T05:46:01+01:00*%
%TF.ProjectId,U2O,55324f2e-6b69-4636-9164-5f7063625858,rev?*%
%TF.SameCoordinates,Original*%
%TF.FileFunction,Copper,L1,Top*%
%TF.FilePolarity,Positive*%
%FSLAX46Y46*%
G04 Gerber Fmt 4.6, Leading zero omitted, Abs format (unit mm)*
G04 Created by KiCad (PCBNEW 9.0.4) date 2025-11-14 05:46:01*
%MOMM*%
%LPD*%
G01*
G04 APERTURE LIST*
G04 Aperture macros list*
%AMRoundRect*
0 Rectangle with rounded corners*
0 $1 Rounding radius*
0 $2 $3 $4 $5 $6 $7 $8 $9 X,Y pos of 4 corners*
0 Add a 4 corners polygon primitive as box body*
4,1,4,$2,$3,$4,$5,$6,$7,$8,$9,$2,$3,0*
0 Add four circle primitives for the rounded corners*
1,1,$1+$1,$2,$3*
1,1,$1+$1,$4,$5*
1,1,$1+$1,$6,$7*
1,1,$1+$1,$8,$9*
0 Add four rect primitives between the rounded corners*
20,1,$1+$1,$2,$3,$4,$5,0*
20,1,$1+$1,$4,$5,$6,$7,0*
20,1,$1+$1,$6,$7,$8,$9,0*
20,1,$1+$1,$8,$9,$2,$3,0*%
G04 Aperture macros list end*
%TA.AperFunction,ComponentPad*%
%ADD10RoundRect,0.249600X-0.850400X-0.550400X0.850400X-0.550400X0.850400X0.550400X-0.850400X0.550400X0*%
%TD*%
%TA.AperFunction,ComponentPad*%
%ADD11O,2.200000X1.600000*%
%TD*%
%TA.AperFunction,ComponentPad*%
%ADD12C,2.000000*%
%TD*%
%TA.AperFunction,SMDPad,CuDef*%
%ADD13RoundRect,0.225000X0.250000X-0.225000X0.250000X0.225000X-0.250000X0.225000X-0.250000X-0.225000X0*%
%TD*%
%TA.AperFunction,SMDPad,CuDef*%
%ADD14R,1.650000X0.400000*%
%TD*%
%TA.AperFunction,SMDPad,CuDef*%
%ADD15R,0.700000X1.825000*%
%TD*%
%TA.AperFunction,SMDPad,CuDef*%
%ADD16R,1.500000X2.000000*%
%TD*%
%TA.AperFunction,SMDPad,CuDef*%
%ADD17R,2.000000X1.350000*%
%TD*%
%TA.AperFunction,ComponentPad*%
%ADD18O,1.700000X1.350000*%
%TD*%
%TA.AperFunction,ComponentPad*%
%ADD19O,1.500000X1.100000*%
%TD*%
%TA.AperFunction,SMDPad,CuDef*%
%ADD20R,2.500000X1.430000*%
%TD*%
%TA.AperFunction,SMDPad,CuDef*%
%ADD21RoundRect,0.218750X-0.256250X0.218750X-0.256250X-0.218750X0.256250X-0.218750X0.256250X0.218750X0*%
%TD*%
%TA.AperFunction,SMDPad,CuDef*%
%ADD22R,0.300000X0.300000*%
%TD*%
%TA.AperFunction,SMDPad,CuDef*%
%ADD23R,0.300000X0.900000*%
%TD*%
%TA.AperFunction,SMDPad,CuDef*%
%ADD24R,0.900000X0.300000*%
%TD*%
%TA.AperFunction,SMDPad,CuDef*%
%ADD25R,1.800000X1.800000*%
%TD*%
%TA.AperFunction,SMDPad,CuDef*%
%ADD26RoundRect,0.200000X-0.200000X-0.275000X0.200000X-0.275000X0.200000X0.275000X-0.200000X0.275000X0*%
%TD*%
%TA.AperFunction,SMDPad,CuDef*%
%ADD27RoundRect,0.200000X0.200000X0.275000X-0.200000X0.275000X-0.200000X-0.275000X0.200000X-0.275000X0*%
%TD*%
%TA.AperFunction,SMDPad,CuDef*%
%ADD28RoundRect,0.225000X-0.250000X0.225000X-0.250000X-0.225000X0.250000X-0.225000X0.250000X0.225000X0*%
%TD*%
%TA.AperFunction,SMDPad,CuDef*%
%ADD29RoundRect,0.225000X0.225000X0.250000X-0.225000X0.250000X-0.225000X-0.250000X0.225000X-0.250000X0*%
%TD*%
%TA.AperFunction,SMDPad,CuDef*%
%ADD30RoundRect,0.175000X0.175000X0.325000X-0.175000X0.325000X-0.175000X-0.325000X0.175000X-0.325000X0*%
%TD*%
%TA.AperFunction,SMDPad,CuDef*%
%ADD31RoundRect,0.150000X0.200000X0.150000X-0.200000X0.150000X-0.200000X-0.150000X0.200000X-0.150000X0*%
%TD*%
%TA.AperFunction,ComponentPad*%
%ADD32RoundRect,0.250000X0.550000X-0.550000X0.550000X0.550000X-0.550000X0.550000X-0.550000X-0.550000X0*%
%TD*%
%TA.AperFunction,ComponentPad*%
%ADD33C,1.600000*%
%TD*%
%TA.AperFunction,ViaPad*%
%ADD34C,2.600000*%
%TD*%
%TA.AperFunction,ViaPad*%
%ADD35C,0.600000*%
%TD*%
%TA.AperFunction,Conductor*%
%ADD36C,0.500000*%
%TD*%
%TA.AperFunction,Conductor*%
%ADD37C,0.250000*%
%TD*%
%TA.AperFunction,Conductor*%
%ADD38C,0.280000*%
%TD*%
%TA.AperFunction,Conductor*%
%ADD39C,0.400000*%
%TD*%
%TA.AperFunction,Conductor*%
%ADD40C,0.300000*%
%TD*%
G04 APERTURE END LIST*
D10*
%TO.P,J1,1,A*%
%TO.N,Net-(J1-A)*%
X41045000Y-21100000D03*
D11*
%TO.P,J1,2,K*%
%TO.N,Net-(J1-K)*%
X41045000Y-23640000D03*
%TO.P,J1,3,GND*%
%TO.N,GND*%
X41045000Y-26180000D03*
%TO.P,J1,4,GND*%
X41045000Y-28720000D03*
D12*
%TO.P,J1,5,GND*%
X48745000Y-28720000D03*
%TO.P,J1,8,GND*%
X48745000Y-21100000D03*
%TD*%
D13*
%TO.P,C4,1*%
%TO.N,VCC*%
X24234998Y-30670004D03*
%TO.P,C4,2*%
%TO.N,GND*%
X24234998Y-29120004D03*
%TD*%
%TO.P,C10,1*%
%TO.N,GND*%
X26565000Y-39930000D03*
%TO.P,C10,2*%
%TO.N,VCC*%
X26565004Y-38380004D03*
%TD*%
D14*
%TO.P,J2,1,VBUS*%
%TO.N,V_UNREG*%
X22884998Y-22430001D03*
%TO.P,J2,2,D-*%
%TO.N,D-*%
X22885000Y-23080000D03*
%TO.P,J2,3,D+*%
%TO.N,D+*%
X22885003Y-23729998D03*
%TO.P,J2,4,ID*%
%TO.N,unconnected-(J2-ID-Pad4)*%
X22885000Y-24380000D03*
%TO.P,J2,5,GND*%
%TO.N,GND*%
X22885000Y-25030001D03*
D15*
%TO.P,J2,6,Shield*%
X21685000Y-20780000D03*
D16*
X22985000Y-20880000D03*
D17*
X20935003Y-21000000D03*
D18*
X20005002Y-21000001D03*
D19*
X23004999Y-21310000D03*
D20*
X19735002Y-22770001D03*
X19734997Y-24689998D03*
D19*
X23004998Y-26150000D03*
D18*
X20005000Y-26460000D03*
D17*
X20935001Y-26479999D03*
D16*
X23004997Y-26629997D03*
D15*
X21685003Y-26730000D03*
%TD*%
D21*
%TO.P,L2,1,1*%
%TO.N,Net-(J3-VCCR)*%
X32025000Y-36650000D03*
%TO.P,L2,2,2*%
%TO.N,VCC*%
X32025000Y-38225000D03*
%TD*%
D22*
%TO.P,U1,1,RS485/GPIO.1*%
%TO.N,unconnected-(U1-RS485{slash}GPIO.1-Pad1)*%
X27925001Y-32719997D03*
D23*
%TO.P,U1,2,CLK/GPIO.0*%
%TO.N,unconnected-(U1-CLK{slash}GPIO.0-Pad2)*%
X27425000Y-32419999D03*
%TO.P,U1,3,GND*%
%TO.N,GND*%
X26925002Y-32420001D03*
%TO.P,U1,4,D+*%
%TO.N,D+*%
X26424999Y-32419998D03*
%TO.P,U1,5,D-*%
%TO.N,D-*%
X25925000Y-32419998D03*
D22*
%TO.P,U1,6,VDD*%
%TO.N,VCC*%
X25424998Y-32719996D03*
D24*
%TO.P,U1,7,VREGIN*%
%TO.N,V_UNREG*%
X25125000Y-33219997D03*
%TO.P,U1,8,VBUS*%
%TO.N,V_DIV*%
X25125002Y-33719995D03*
%TO.P,U1,9,~{RST}*%
%TO.N,Net-(U1-~{RST})*%
X25124999Y-34219998D03*
%TO.P,U1,10,NC*%
%TO.N,unconnected-(U1-NC-Pad10)*%
X25124999Y-34719997D03*
D22*
%TO.P,U1,11,~{SUSPEND}*%
%TO.N,unconnected-(U1-~{SUSPEND}-Pad11)*%
X25424997Y-35219999D03*
D23*
%TO.P,U1,12,GND*%
%TO.N,GND*%
X25924998Y-35519997D03*
%TO.P,U1,13,~{WAKEUP}*%
%TO.N,unconnected-(U1-~{WAKEUP}-Pad13)*%
X26424996Y-35519995D03*
%TO.P,U1,14,SUSPEND*%
%TO.N,unconnected-(U1-SUSPEND-Pad14)*%
X26924999Y-35519998D03*
%TO.P,U1,15,~{CTS}*%
%TO.N,unconnected-(U1-~{CTS}-Pad15)*%
X27424998Y-35519998D03*
D22*
%TO.P,U1,16,~{RTS}*%
%TO.N,unconnected-(U1-~{RTS}-Pad16)*%
X27925000Y-35220000D03*
D24*
%TO.P,U1,17,RXD*%
%TO.N,RXD*%
X28224998Y-34719999D03*
%TO.P,U1,18,TXD*%
%TO.N,TXD*%
X28224996Y-34220001D03*
%TO.P,U1,19,~{RXT}/GPIO.3*%
%TO.N,unconnected-(U1-~{RXT}{slash}GPIO.3-Pad19)*%
X28224999Y-33719998D03*
%TO.P,U1,20,~{TXT}/GPIO.2*%
%TO.N,unconnected-(U1-~{TXT}{slash}GPIO.2-Pad20)*%
X28224999Y-33219999D03*
D25*
%TO.P,U1,21,GND*%
%TO.N,GND*%
X26674999Y-33969998D03*
%TD*%
D26*
%TO.P,R4,1*%
%TO.N,VCC*%
X33975004Y-27675003D03*
%TO.P,R4,2*%
%TO.N,Net-(J1-K)*%
X35625002Y-27674997D03*
%TD*%
D13*
%TO.P,C5,1*%
%TO.N,VCC*%
X22545000Y-30670000D03*
%TO.P,C5,2*%
%TO.N,GND*%
X22545000Y-29120000D03*
%TD*%
D27*
%TO.P,R3,1*%
%TO.N,V_DIV*%
X21954998Y-37309996D03*
%TO.P,R3,2*%
%TO.N,GND*%
X20305000Y-37310000D03*
%TD*%
D28*
%TO.P,C9,1*%
%TO.N,GND*%
X33775002Y-36675002D03*
%TO.P,C9,2*%
%TO.N,Net-(J3-VCCR)*%
X33774998Y-38224998D03*
%TD*%
D29*
%TO.P,C6,1*%
%TO.N,Net-(J1-A)*%
X35575000Y-20775000D03*
%TO.P,C6,2*%
%TO.N,Net-(C6-Pad2)*%
X34025008Y-20774998D03*
%TD*%
D26*
%TO.P,R6,1*%
%TO.N,VCC*%
X33975000Y-23074999D03*
%TO.P,R6,2*%
%TO.N,Net-(C6-Pad2)*%
X35625000Y-23074999D03*
%TD*%
%TO.P,R2,1*%
%TO.N,V_UNREG*%
X20305002Y-35670010D03*
%TO.P,R2,2*%
%TO.N,V_DIV*%
X21955000Y-35670000D03*
%TD*%
D27*
%TO.P,R1,1*%
%TO.N,VCC*%
X24965000Y-38390000D03*
%TO.P,R1,2*%
%TO.N,Net-(U1-~{RST})*%
X23315002Y-38390004D03*
%TD*%
D10*
%TO.P,J3,1,Data_Out*%
%TO.N,RXD*%
X41050000Y-31300000D03*
D11*
%TO.P,J3,2,VEER*%
%TO.N,GND*%
X41050000Y-33840000D03*
%TO.P,J3,3,VCCR*%
%TO.N,Net-(J3-VCCR)*%
X41050000Y-36380000D03*
%TO.P,J3,4,NC*%
%TO.N,unconnected-(J3-NC-Pad4)*%
X41050000Y-38920000D03*
D12*
%TO.P,J3,5,HP*%
%TO.N,GND*%
X48750000Y-38920000D03*
%TO.P,J3,8,HP*%
X48750000Y-31300000D03*
%TD*%
D29*
%TO.P,C2,1*%
%TO.N,V_UNREG*%
X21919994Y-33930001D03*
%TO.P,C2,2*%
%TO.N,GND*%
X20370002Y-33929999D03*
%TD*%
%TO.P,C1,1*%
%TO.N,V_UNREG*%
X21919996Y-32250001D03*
%TO.P,C1,2*%
%TO.N,GND*%
X20370004Y-32249999D03*
%TD*%
D30*
%TO.P,D1,1,A*%
%TO.N,GND*%
X27700000Y-26759999D03*
D31*
%TO.P,D1,2,K*%
%TO.N,V_UNREG*%
X27700002Y-25059994D03*
%TO.P,D1,3,K*%
%TO.N,D+*%
X25700001Y-25059999D03*
%TO.P,D1,4,K*%
%TO.N,D-*%
X25700000Y-26960000D03*
%TD*%
D28*
%TO.P,C3,1*%
%TO.N,GND*%
X35525002Y-36675002D03*
%TO.P,C3,2*%
%TO.N,Net-(J3-VCCR)*%
X35524998Y-38224998D03*
%TD*%
D26*
%TO.P,R5,1*%
%TO.N,VCC*%
X33975000Y-25375000D03*
%TO.P,R5,2*%
%TO.N,Net-(J1-A)*%
X35625000Y-25375000D03*
%TD*%
D32*
%TO.P,U2,1,1A*%
%TO.N,TXD*%
X37495000Y-40370000D03*
D33*
%TO.P,U2,2,1B*%
%TO.N,GND*%
X34955000Y-40370000D03*
%TO.P,U2,3,1Y*%
%TO.N,Net-(U2-1Y)*%
X32415000Y-40370000D03*
%TO.P,U2,4,GND*%
%TO.N,GND*%
X29875000Y-40370000D03*
%TO.P,U2,5,2Y*%
%TO.N,Net-(J1-K)*%
X29875000Y-32750000D03*
%TO.P,U2,6,2A*%
%TO.N,Net-(U2-1Y)*%
X32415000Y-32750000D03*
%TO.P,U2,7,2B*%
%TO.N,GND*%
X34955000Y-32750000D03*
%TO.P,U2,8,VCC*%
%TO.N,VCC*%
X37495000Y-32750000D03*
%TD*%
D34*
%TO.N,*%
X49975000Y-42275000D03*
X20350000Y-42275000D03*
X49975000Y-17775000D03*
X20350000Y-17775000D03*
D35*
%TO.N,GND*%
X19170000Y-32280000D03*
X20310000Y-38550000D03*
X27824998Y-27940000D03*
X40150000Y-18900000D03*
X25930000Y-36690000D03*
X25070000Y-28050000D03*
X43750000Y-37650000D03*
X19160000Y-37320000D03*
X43800000Y-27350000D03*
X27230000Y-31110000D03*
X25170000Y-39960000D03*
X28760000Y-24260000D03*
X26674999Y-33969998D03*
X43900000Y-33050000D03*
X38475000Y-36100000D03*
X21210000Y-29100000D03*
X24600000Y-27360000D03*
X29675000Y-42300000D03*
X37075000Y-29500000D03*
X25650000Y-20950000D03*
X32225000Y-22025000D03*
X40025000Y-41350000D03*
X32025000Y-25950000D03*
X19160000Y-33930000D03*
X34650000Y-36675000D03*
X34825000Y-19050000D03*
X30300000Y-36100000D03*
X46225000Y-41850000D03*
X27370000Y-28890000D03*
X43800000Y-22650000D03*
X27790000Y-39900000D03*
X34250000Y-31175000D03*
X34300000Y-42300000D03*
X20370000Y-30980000D03*
X21640000Y-28150000D03*
%TO.N,V_UNREG*%
X22879994Y-33229994D03*
X27990000Y-29920000D03*
%TO.N,VCC*%
X24795002Y-37015002D03*
X28035000Y-38345000D03*
X24795002Y-32090002D03*
X29935000Y-28110000D03*
%TO.N,D-*%
X25160000Y-23720000D03*
X25160000Y-26170000D03*
%TO.N,TXD*%
X34850000Y-34300000D03*
%TD*%
D36*
%TO.N,GND*%
X23004999Y-21310000D02*
X23004999Y-20899999D01*
D37*
X25924998Y-35519997D02*
X25924998Y-36684998D01*
X22885000Y-26030002D02*
X23004998Y-26150000D01*
X25924998Y-36684998D02*
X25930000Y-36690000D01*
D36*
X20005002Y-26459998D02*
X20005000Y-26460000D01*
X27824998Y-26640005D02*
X27824998Y-27940000D01*
X23004999Y-20899999D02*
X22985000Y-20880000D01*
X22695000Y-21000001D02*
X23004999Y-21310000D01*
X20005000Y-26460000D02*
X20005000Y-21000003D01*
D38*
X26925002Y-32420001D02*
X26925002Y-31414998D01*
D36*
X20315000Y-26150000D02*
X20005000Y-26460000D01*
D38*
X26925002Y-31414998D02*
X27230000Y-31110000D01*
D36*
X20005000Y-21000003D02*
X20005002Y-21000001D01*
D37*
X22885000Y-25030001D02*
X22885000Y-26030002D01*
D36*
X20005002Y-21000001D02*
X22695000Y-21000001D01*
D37*
%TO.N,V_UNREG*%
X21919994Y-33930001D02*
X21919994Y-34055018D01*
X22179988Y-33930001D02*
X22879994Y-33229995D01*
X21919994Y-33930001D02*
X22179988Y-33930001D01*
D36*
X21919994Y-34055018D02*
X20305002Y-35670010D01*
D39*
X25200661Y-22430000D02*
X28640000Y-25869339D01*
D37*
X22879994Y-33229995D02*
X22879994Y-33229994D01*
D39*
X28640000Y-29270000D02*
X27990000Y-29920000D01*
D38*
X25125000Y-33219997D02*
X22889992Y-33219997D01*
D37*
X22879994Y-33229994D02*
X22879995Y-33229994D01*
X22879995Y-33229994D02*
X22889992Y-33219997D01*
D39*
X28640000Y-25869339D02*
X28640000Y-29270000D01*
D36*
X22889992Y-33219997D02*
X21919996Y-32250001D01*
D39*
X22912169Y-22430000D02*
X25200661Y-22430000D01*
D36*
%TO.N,VCC*%
X24795002Y-37015002D02*
X24795002Y-38220002D01*
X28035000Y-38345000D02*
X31905000Y-38345000D01*
D39*
X33975004Y-23075003D02*
X33975000Y-23074999D01*
X33975000Y-25375000D02*
X33975004Y-25374996D01*
D36*
X24965000Y-38390000D02*
X26555008Y-38390000D01*
X25320002Y-32620002D02*
X24759998Y-32059998D01*
D39*
X33975000Y-27674999D02*
X33975004Y-27675003D01*
X26555008Y-38390000D02*
X26565004Y-38380004D01*
D36*
X24234998Y-30670004D02*
X22545004Y-30670004D01*
X24795002Y-32090002D02*
X24795002Y-31230008D01*
D39*
X33975000Y-25375000D02*
X33975000Y-27674999D01*
D36*
X26740000Y-38345000D02*
X26705000Y-38380000D01*
D39*
X24795002Y-38220002D02*
X24965000Y-38390000D01*
D36*
X31905000Y-38345000D02*
X32025000Y-38225000D01*
D37*
X22545004Y-30670004D02*
X22545000Y-30670000D01*
X24935000Y-38420000D02*
X24974996Y-38380004D01*
D36*
X24795002Y-31230008D02*
X24234998Y-30670004D01*
D39*
X33975004Y-25374996D02*
X33975004Y-23075003D01*
X29935000Y-28110000D02*
X30369997Y-27675003D01*
X30369997Y-27675003D02*
X33975004Y-27675003D01*
D38*
%TO.N,D-*%
X25160000Y-23720000D02*
X25140000Y-23720000D01*
X25180000Y-26170000D02*
X25160000Y-26170000D01*
X25925000Y-26915000D02*
X25180000Y-26170000D01*
X25140000Y-23720000D02*
X24500000Y-23080000D01*
X25925000Y-32419998D02*
X25925000Y-26915000D01*
X24500000Y-23080000D02*
X22885000Y-23080000D01*
D37*
X25160000Y-26170000D02*
X25160000Y-26175008D01*
D38*
%TO.N,D+*%
X23909998Y-23729998D02*
X22885003Y-23729998D01*
X26424999Y-26244999D02*
X23909998Y-23729998D01*
X26424999Y-32419998D02*
X26424999Y-26244999D01*
D37*
X26405000Y-32399999D02*
X26424999Y-32419998D01*
D38*
%TO.N,TXD*%
X28224996Y-34220001D02*
X34770001Y-34220001D01*
X28224996Y-34220001D02*
X28233999Y-34210998D01*
X34770001Y-34220001D02*
X34850000Y-34300000D01*
D40*
%TO.N,RXD*%
X28454999Y-34950000D02*
X37950000Y-34950000D01*
X37950000Y-34950000D02*
X41050000Y-31850000D01*
X41050000Y-31850000D02*
X41050000Y-31300000D01*
X28224998Y-34719999D02*
X28454999Y-34950000D01*
D38*
%TO.N,Net-(U1-~{RST})*%
X23315002Y-35279994D02*
X23315002Y-38390004D01*
X25124999Y-34219998D02*
X24374998Y-34219998D01*
X24374998Y-34219998D02*
X23315002Y-35279994D01*
D36*
%TO.N,V_DIV*%
X21954998Y-37309996D02*
X21954998Y-35670002D01*
D38*
X21955000Y-35670000D02*
X23905005Y-33719995D01*
D37*
X21954998Y-35670002D02*
X21955000Y-35670000D01*
D38*
X23905005Y-33719995D02*
X25125002Y-33719995D01*
D36*
%TO.N,Net-(J3-VCCR)*%
X40695000Y-36380000D02*
X41050000Y-36380000D01*
X33775000Y-38225000D02*
X38850000Y-38225000D01*
D39*
X32200000Y-36650000D02*
X33774998Y-38224998D01*
D40*
X40150000Y-36600000D02*
X41275000Y-36600000D01*
D36*
X33774998Y-38224998D02*
X33775000Y-38225000D01*
D39*
X32025000Y-36650000D02*
X32200000Y-36650000D01*
D36*
X38850000Y-38225000D02*
X40695000Y-36380000D01*
D39*
%TO.N,Net-(C6-Pad2)*%
X35625000Y-22825000D02*
X34025008Y-21225008D01*
X35625000Y-23074999D02*
X35625000Y-22825000D01*
X34025008Y-21225008D02*
X34025008Y-20774998D01*
%TO.N,Net-(J1-A)*%
X36725000Y-24275000D02*
X36725000Y-21925000D01*
X36575000Y-24425000D02*
X36725000Y-24275000D01*
X40150000Y-21100000D02*
X41045000Y-21100000D01*
X35625000Y-25375000D02*
X36575000Y-24425000D01*
X36725000Y-23050000D02*
X38200000Y-23050000D01*
X38200000Y-23050000D02*
X40150000Y-21100000D01*
X36725000Y-21925000D02*
X35575000Y-20775000D01*
%TO.N,Net-(J1-K)*%
X40964000Y-23559000D02*
X41045000Y-23640000D01*
X35625002Y-27675002D02*
X35625002Y-27674997D01*
X35625002Y-27674997D02*
X36925003Y-27674997D01*
X30300000Y-32750000D02*
X35375003Y-27674997D01*
X40964000Y-23636000D02*
X40964000Y-23559000D01*
X29875000Y-32750000D02*
X30300000Y-32750000D01*
X35375003Y-27674997D02*
X35625002Y-27674997D01*
X36925003Y-27674997D02*
X40964000Y-23636000D01*
%TD*%
%TA.AperFunction,Conductor*%
%TO.N,GND*%
G36*
X48982509Y-16060185D02*
G01*
X49028264Y-16112989D01*
X49038208Y-16182147D01*
X49009183Y-16245703D01*
X48977472Y-16271885D01*
X48972550Y-16274727D01*
X48972545Y-16274730D01*
X48785302Y-16418406D01*
X48785295Y-16418412D01*
X48618412Y-16585295D01*
X48618406Y-16585302D01*
X48474730Y-16772545D01*
X48356719Y-16976943D01*
X48356714Y-16976954D01*
X48266394Y-17195006D01*
X48205306Y-17422989D01*
X48174501Y-17656979D01*
X48174500Y-17656995D01*
X48174500Y-17893004D01*
X48174501Y-17893020D01*
X48205306Y-18127010D01*
X48266394Y-18354993D01*
X48356714Y-18573045D01*
X48356719Y-18573056D01*
X48427677Y-18695957D01*
X48474727Y-18777450D01*
X48474729Y-18777453D01*
X48474730Y-18777454D01*
X48618406Y-18964697D01*
X48618412Y-18964704D01*
X48785295Y-19131587D01*
X48785300Y-19131591D01*
X48785301Y-19131592D01*
X48972550Y-19275273D01*
X49103918Y-19351118D01*
X49176943Y-19393280D01*
X49176948Y-19393282D01*
X49176951Y-19393284D01*
X49395007Y-19483606D01*
X49622986Y-19544693D01*
X49856989Y-19575500D01*
X49856996Y-19575500D01*
X50093004Y-19575500D01*
X50093011Y-19575500D01*
X50327014Y-19544693D01*
X50554993Y-19483606D01*
X50773049Y-19393284D01*
X50977450Y-19275273D01*
X51164699Y-19131592D01*
X51331592Y-18964699D01*
X51475273Y-18777450D01*
X51593284Y-18573049D01*
X51660939Y-18409716D01*
X51704780Y-18355312D01*
X51771074Y-18333247D01*
X51838773Y-18350526D01*
X51886384Y-18401663D01*
X51899500Y-18457168D01*
X51899500Y-41592831D01*
X51879815Y-41659870D01*
X51827011Y-41705625D01*
X51757853Y-41715569D01*
X51694297Y-41686544D01*
X51660939Y-41640284D01*
X51593285Y-41476954D01*
X51593280Y-41476943D01*
X51499512Y-41314534D01*
X51475273Y-41272550D01*
X51386488Y-41156843D01*
X51331593Y-41085302D01*
X51331587Y-41085295D01*
X51164704Y-40918412D01*
X51164697Y-40918406D01*
X50977454Y-40774730D01*
X50977453Y-40774729D01*
X50977450Y-40774727D01*
X50888814Y-40723553D01*
X50773056Y-40656719D01*
X50773045Y-40656714D01*
X50554993Y-40566394D01*
X50327010Y-40505306D01*
X50093020Y-40474501D01*
X50093017Y-40474500D01*
X50093011Y-40474500D01*
X49856989Y-40474500D01*
X49856983Y-40474500D01*
X49856979Y-40474501D01*
X49622989Y-40505306D01*
X49395006Y-40566394D01*
X49176954Y-40656714D01*
X49176943Y-40656719D01*
X48972545Y-40774730D01*
X48785302Y-40918406D01*
X48785295Y-40918412D01*
X48618412Y-41085295D01*
X48618406Y-41085302D01*
X48474730Y-41272545D01*
X48356719Y-41476943D01*
X48356714Y-41476954D01*
X48266394Y-41695006D01*
X48205306Y-41922989D01*
X48174501Y-42156979D01*
X48174500Y-42156995D01*
X48174500Y-42393004D01*
X48174501Y-42393020D01*
X48205306Y-42627010D01*
X48266394Y-42854993D01*
X48356714Y-43073045D01*
X48356719Y-43073056D01*
X48427677Y-43195957D01*
X48474727Y-43277450D01*
X48474729Y-43277453D01*
X48474730Y-43277454D01*
X48618406Y-43464697D01*
X48618412Y-43464704D01*
X48785295Y-43631587D01*
X48785302Y-43631593D01*
X48961930Y-43767124D01*
X49003133Y-43823552D01*
X49007288Y-43893298D01*
X48973076Y-43954218D01*
X48911359Y-43986971D01*
X48886444Y-43989500D01*
X21438556Y-43989500D01*
X21371517Y-43969815D01*
X21325762Y-43917011D01*
X21315818Y-43847853D01*
X21344843Y-43784297D01*
X21363070Y-43767124D01*
X21363279Y-43766963D01*
X21539699Y-43631592D01*
X21706592Y-43464699D01*
X21850273Y-43277450D01*
X21968284Y-43073049D01*
X22058606Y-42854993D01*
X22119693Y-42627014D01*
X22150500Y-42393011D01*
X22150500Y-42156989D01*
X22119693Y-41922986D01*
X22058606Y-41695007D01*
X21968284Y-41476951D01*
X21850273Y-41272550D01*
X21761488Y-41156843D01*
X21706593Y-41085302D01*
X21706587Y-41085295D01*
X21539704Y-40918412D01*
X21539697Y-40918406D01*
X21352454Y-40774730D01*
X21352453Y-40774729D01*
X21352450Y-40774727D01*
X21263814Y-40723553D01*
X21148056Y-40656719D01*
X21148045Y-40656714D01*
X20929993Y-40566394D01*
X20702010Y-40505306D01*
X20468020Y-40474501D01*
X20468017Y-40474500D01*
X20468011Y-40474500D01*
X20231989Y-40474500D01*
X20231983Y-40474500D01*
X20231979Y-40474501D01*
X19997989Y-40505306D01*
X19770006Y-40566394D01*
X19551954Y-40656714D01*
X19551943Y-40656719D01*
X19347545Y-40774730D01*
X19160302Y-40918406D01*
X19160295Y-40918412D01*
X18993412Y-41085295D01*
X18972876Y-41112059D01*
X18916448Y-41153261D01*
X18846702Y-41157416D01*
X18785781Y-41123204D01*
X18753029Y-41061486D01*
X18750500Y-41036572D01*
X18750500Y-40203322D01*
X25590001Y-40203322D01*
X25600144Y-40302607D01*
X25653452Y-40463481D01*
X25653457Y-40463492D01*
X25742424Y-40607728D01*
X25742427Y-40607732D01*
X25862267Y-40727572D01*
X25862271Y-40727575D01*
X26006507Y-40816542D01*
X26006518Y-40816547D01*
X26167393Y-40869855D01*
X26266683Y-40879999D01*
X26815000Y-40879999D01*
X26863308Y-40879999D01*
X26863322Y-40879998D01*
X26962607Y-40869855D01*
X27123481Y-40816547D01*
X27123492Y-40816542D01*
X27267728Y-40727575D01*
X27267732Y-40727572D01*
X27387572Y-40607732D01*
X27387575Y-40607728D01*
X27476542Y-40463492D01*
X27476547Y-40463481D01*
X27529856Y-40302606D01*
X27535209Y-40250213D01*
X27535209Y-40250212D01*
X27539999Y-40203324D01*
X27540000Y-40203309D01*
X27540000Y-40180000D01*
X26815000Y-40180000D01*
X26815000Y-40879999D01*
X26266683Y-40879999D01*
X26314999Y-40879998D01*
X26315000Y-40879998D01*
X26315000Y-40180000D01*
X25590001Y-40180000D01*
X25590001Y-40203322D01*
X18750500Y-40203322D01*
X18750500Y-37641582D01*
X19405001Y-37641582D01*
X19411408Y-37712102D01*
X19411409Y-37712107D01*
X19461981Y-37874396D01*
X19549927Y-38019877D01*
X19670122Y-38140072D01*
X19815604Y-38228019D01*
X19815603Y-38228019D01*
X19977894Y-38278590D01*
X19977893Y-38278590D01*
X20048408Y-38284998D01*
X20048426Y-38284999D01*
X20054999Y-38284998D01*
X20055000Y-38284998D01*
X20055000Y-37560000D01*
X19405001Y-37560000D01*
X19405001Y-37641582D01*
X18750500Y-37641582D01*
X18750500Y-33631676D01*
X19420002Y-33631676D01*
X19420002Y-33679999D01*
X20120002Y-33679999D01*
X20120002Y-32876363D01*
X20120004Y-32876356D01*
X20120004Y-32499999D01*
X19420005Y-32499999D01*
X19420005Y-32548321D01*
X19430148Y-32647606D01*
X19483456Y-32808480D01*
X19483461Y-32808491D01*
X19572428Y-32952727D01*
X19572431Y-32952731D01*
X19622016Y-33002316D01*
X19655501Y-33063639D01*
X19650517Y-33133331D01*
X19622018Y-33177677D01*
X19572426Y-33227270D01*
X19483459Y-33371506D01*
X19483454Y-33371517D01*
X19430146Y-33532392D01*
X19420002Y-33631676D01*
X18750500Y-33631676D01*
X18750500Y-31951676D01*
X19420004Y-31951676D01*
X19420004Y-31999999D01*
X20120004Y-31999999D01*
X20120004Y-31274998D01*
X20096697Y-31274999D01*
X20096678Y-31275000D01*
X19997396Y-31285143D01*
X19836522Y-31338451D01*
X19836511Y-31338456D01*
X19692275Y-31427423D01*
X19692271Y-31427426D01*
X19572431Y-31547266D01*
X19572428Y-31547270D01*
X19483461Y-31691506D01*
X19483456Y-31691517D01*
X19430148Y-31852392D01*
X19420004Y-31951676D01*
X18750500Y-31951676D01*
X18750500Y-28846677D01*
X21570000Y-28846677D01*
X21570000Y-28870000D01*
X23598634Y-28870000D01*
X23598648Y-28870004D01*
X23984998Y-28870004D01*
X23984998Y-28144468D01*
X24004683Y-28077429D01*
X24034687Y-28045201D01*
X24112186Y-27987184D01*
X24112187Y-27987183D01*
X24198349Y-27872085D01*
X24198351Y-27872083D01*
X24248593Y-27737376D01*
X24248595Y-27737369D01*
X24254996Y-27677841D01*
X24254997Y-27677824D01*
X24254997Y-26879997D01*
X21935003Y-26879997D01*
X21935003Y-28193862D01*
X21931714Y-28193862D01*
X21928520Y-28238531D01*
X21886648Y-28294464D01*
X21877435Y-28300735D01*
X21842271Y-28322424D01*
X21842267Y-28322427D01*
X21722427Y-28442267D01*
X21722424Y-28442271D01*
X21633457Y-28586507D01*
X21633452Y-28586518D01*
X21580144Y-28747393D01*
X21570000Y-28846677D01*
X18750500Y-28846677D01*
X18750500Y-27341563D01*
X18770185Y-27274524D01*
X18822989Y-27228769D01*
X18892147Y-27218825D01*
X18955703Y-27247850D01*
X18962181Y-27253882D01*
X19064540Y-27356241D01*
X19064545Y-27356245D01*
X19214162Y-27464947D01*
X19378956Y-27548915D01*
X19378959Y-27548916D01*
X19554852Y-27606066D01*
X19737527Y-27635000D01*
X19755000Y-27635000D01*
X19755000Y-26810000D01*
X20255000Y-26810000D01*
X20255000Y-27654999D01*
X20720872Y-27654999D01*
X20787911Y-27674684D01*
X20833666Y-27727488D01*
X20840599Y-27747717D01*
X20891648Y-27884586D01*
X20891652Y-27884593D01*
X20977812Y-27999687D01*
X20977815Y-27999690D01*
X21092909Y-28085850D01*
X21092916Y-28085854D01*
X21227623Y-28136096D01*
X21227630Y-28136098D01*
X21287158Y-28142499D01*
X21287175Y-28142500D01*
X21435003Y-28142500D01*
X21435003Y-26854000D01*
X21454688Y-26786961D01*
X21507492Y-26741206D01*
X21559003Y-26730000D01*
X21624997Y-26730000D01*
X21624997Y-26729999D01*
X21059001Y-26729999D01*
X20991962Y-26710314D01*
X20946207Y-26657510D01*
X20935001Y-26605999D01*
X20935001Y-26353999D01*
X20954686Y-26286960D01*
X21007490Y-26241205D01*
X21059001Y-26229999D01*
X22441001Y-26229999D01*
X22494151Y-26245605D01*
X22502147Y-26275445D01*
X22544934Y-26349554D01*
X22565001Y-26369621D01*
X22565001Y-26379997D01*
X22575377Y-26379997D01*
X22605444Y-26410064D01*
X22679553Y-26452851D01*
X22762211Y-26475000D01*
X23247785Y-26475000D01*
X23330443Y-26452851D01*
X23404552Y-26410064D01*
X23434619Y-26379997D01*
X24297675Y-26379997D01*
X24364714Y-26399682D01*
X24410469Y-26452486D01*
X24412236Y-26456545D01*
X24450602Y-26549172D01*
X24450609Y-26549185D01*
X24538210Y-26680288D01*
X24538213Y-26680292D01*
X24649710Y-26791789D01*
X24678510Y-26811032D01*
X24780821Y-26879394D01*
X24780828Y-26879397D01*
X24783948Y-26881065D01*
X24785280Y-26882373D01*
X24785887Y-26882779D01*
X24785810Y-26882894D01*
X24833795Y-26930025D01*
X24849500Y-26990426D01*
X24849500Y-27175701D01*
X24852401Y-27212567D01*
X24852402Y-27212573D01*
X24898254Y-27370393D01*
X24898255Y-27370396D01*
X24981917Y-27511862D01*
X24981923Y-27511870D01*
X25098129Y-27628076D01*
X25098135Y-27628081D01*
X25223622Y-27702293D01*
X25271304Y-27753360D01*
X25284500Y-27809024D01*
X25284500Y-28372944D01*
X25264815Y-28439983D01*
X25212011Y-28485738D01*
X25142853Y-28495682D01*
X25079297Y-28466657D01*
X25062844Y-28447312D01*
X25062052Y-28447939D01*
X25057570Y-28442271D01*
X24937730Y-28322431D01*
X24937726Y-28322428D01*
X24793490Y-28233461D01*
X24793479Y-28233456D01*
X24632604Y-28180148D01*
X24533320Y-28170004D01*
X24484998Y-28170004D01*
X24484998Y-28996004D01*
X24465313Y-29063043D01*
X24412509Y-29108798D01*
X24360998Y-29120004D01*
X24234998Y-29120004D01*
X24234998Y-29246004D01*
X24215313Y-29313043D01*
X24162509Y-29358798D01*
X24110998Y-29370004D01*
X23181364Y-29370004D01*
X23181350Y-29370000D01*
X21570001Y-29370000D01*
X21570001Y-29393322D01*
X21580144Y-29492607D01*
X21633452Y-29653481D01*
X21633457Y-29653492D01*
X21722424Y-29797728D01*
X21722427Y-29797732D01*
X21731660Y-29806965D01*
X21765145Y-29868288D01*
X21760161Y-29937980D01*
X21731663Y-29982324D01*
X21722033Y-29991953D01*
X21722029Y-29991959D01*
X21633001Y-30136294D01*
X21632996Y-30136305D01*
X21579651Y-30297290D01*
X21569500Y-30396647D01*
X21569500Y-30943337D01*
X21569501Y-30943355D01*
X21579650Y-31042707D01*
X21579652Y-31042713D01*
X21609684Y-31133345D01*
X21612086Y-31203173D01*
X21576354Y-31263215D01*
X21530983Y-31290054D01*
X21386299Y-31337998D01*
X21386290Y-31338002D01*
X21241955Y-31427030D01*
X21241949Y-31427034D01*
X21232325Y-31436659D01*
X21171001Y-31470142D01*
X21101309Y-31465155D01*
X21056966Y-31436656D01*
X21047736Y-31427426D01*
X21047732Y-31427423D01*
X20903496Y-31338456D01*
X20903485Y-31338451D01*
X20742610Y-31285143D01*
X20643326Y-31274999D01*
X20620004Y-31274999D01*
X20620004Y-33303635D01*
X20620002Y-33303641D01*
X20620002Y-33805999D01*
X20600317Y-33873038D01*
X20547513Y-33918793D01*
X20496002Y-33929999D01*
X20370002Y-33929999D01*
X20370002Y-34055999D01*
X20350317Y-34123038D01*
X20297513Y-34168793D01*
X20246002Y-34179999D01*
X19420003Y-34179999D01*
X19420003Y-34228321D01*
X19430146Y-34327606D01*
X19483454Y-34488480D01*
X19483459Y-34488491D01*
X19572426Y-34632727D01*
X19572429Y-34632731D01*
X19636845Y-34697147D01*
X19670330Y-34758470D01*
X19665346Y-34828162D01*
X19636845Y-34872509D01*
X19549533Y-34959820D01*
X19549532Y-34959821D01*
X19461524Y-35105403D01*
X19410915Y-35267817D01*
X19405784Y-35324285D01*
X19404502Y-35338394D01*
X19404502Y-36001626D01*
X19405978Y-36017867D01*
X19410915Y-36072202D01*
X19410915Y-36072204D01*
X19410916Y-36072206D01*
X19461524Y-36234616D01*
X19549530Y-36380195D01*
X19572011Y-36402676D01*
X19605496Y-36463997D01*
X19600513Y-36533688D01*
X19572013Y-36578037D01*
X19549926Y-36600124D01*
X19461980Y-36745604D01*
X19411409Y-36907893D01*
X19405000Y-36978427D01*
X19405000Y-37060000D01*
X20181000Y-37060000D01*
X20248039Y-37079685D01*
X20293794Y-37132489D01*
X20305000Y-37184000D01*
X20305000Y-37310000D01*
X20431000Y-37310000D01*
X20498039Y-37329685D01*
X20543794Y-37382489D01*
X20555000Y-37434000D01*
X20555000Y-38284999D01*
X20561581Y-38284999D01*
X20632102Y-38278591D01*
X20632107Y-38278590D01*
X20794396Y-38228018D01*
X20939877Y-38140072D01*
X20939878Y-38140071D01*
X21041964Y-38037984D01*
X21103287Y-38004498D01*
X21172978Y-38009482D01*
X21217327Y-38037983D01*
X21319809Y-38140465D01*
X21319811Y-38140466D01*
X21319813Y-38140468D01*
X21465392Y-38228474D01*
X21627802Y-38279082D01*
X21698382Y-38285496D01*
X21698385Y-38285496D01*
X22211610Y-38285496D01*
X22211614Y-38285496D01*
X22279282Y-38279346D01*
X22347825Y-38292882D01*
X22398171Y-38341328D01*
X22414502Y-38402837D01*
X22414502Y-38721617D01*
X22420915Y-38792196D01*
X22420915Y-38792198D01*
X22420916Y-38792200D01*
X22471524Y-38954610D01*
X22559445Y-39100049D01*
X22559532Y-39100192D01*
X22679813Y-39220473D01*
X22679815Y-39220474D01*
X22679817Y-39220476D01*
X22825396Y-39308482D01*
X22987806Y-39359090D01*
X23058386Y-39365504D01*
X23058389Y-39365504D01*
X23571615Y-39365504D01*
X23571618Y-39365504D01*
X23642198Y-39359090D01*
X23804608Y-39308482D01*
X23950187Y-39220476D01*
X24052322Y-39118340D01*
X24113643Y-39084856D01*
X24183334Y-39089840D01*
X24227683Y-39118341D01*
X24329811Y-39220469D01*
X24329813Y-39220470D01*
X24329815Y-39220472D01*
X24475394Y-39308478D01*
X24637804Y-39359086D01*
X24708384Y-39365500D01*
X24708387Y-39365500D01*
X25221613Y-39365500D01*
X25221616Y-39365500D01*
X25292196Y-39359086D01*
X25454606Y-39308478D01*
X25454613Y-39308473D01*
X25461445Y-39305400D01*
X25462287Y-39307272D01*
X25519731Y-39292094D01*
X25586209Y-39313599D01*
X25630507Y-39367631D01*
X25638561Y-39437035D01*
X25634056Y-39455051D01*
X25600144Y-39557391D01*
X25590000Y-39656677D01*
X25590000Y-39680000D01*
X27539999Y-39680000D01*
X27539999Y-39656692D01*
X27539998Y-39656677D01*
X27529855Y-39557392D01*
X27476547Y-39396518D01*
X27476542Y-39396507D01*
X27387575Y-39252271D01*
X27387572Y-39252267D01*
X27378343Y-39243038D01*
X27378058Y-39242517D01*
X27377540Y-39242228D01*
X27361320Y-39211862D01*
X27344858Y-39181715D01*
X27344900Y-39181123D01*
X27344620Y-39180599D01*
X27347389Y-39146314D01*
X27349842Y-39112023D01*
X27350214Y-39111348D01*
X27350246Y-39110957D01*
X27351478Y-39109058D01*
X27367445Y-39080137D01*
X27372474Y-39073545D01*
X27387972Y-39058048D01*
X27403461Y-39032936D01*
X27407192Y-39028047D01*
X27430588Y-39010865D01*
X27452179Y-38991446D01*
X27458416Y-38990430D01*
X27463508Y-38986692D01*
X27492481Y-38984887D01*
X27521142Y-38980223D01*
X27527761Y-38982689D01*
X27533243Y-38982348D01*
X27546097Y-38989521D01*
X27574659Y-39000163D01*
X27655821Y-39054394D01*
X27655823Y-39054395D01*
X27655827Y-39054397D01*
X27794951Y-39112023D01*
X27801503Y-39114737D01*
X27956153Y-39145499D01*
X27956156Y-39145500D01*
X27956158Y-39145500D01*
X28113844Y-39145500D01*
X28113845Y-39145499D01*
X28250379Y-39118341D01*
X28268488Y-39114739D01*
X28268489Y-39114738D01*
X28268497Y-39114737D01*
X28292155Y-39104937D01*
X28339604Y-39095500D01*
X29035870Y-39095500D01*
X29102909Y-39115185D01*
X29148664Y-39167989D01*
X29158608Y-39237147D01*
X29152168Y-39251246D01*
X29149077Y-39290524D01*
X29828554Y-39970000D01*
X29822339Y-39970000D01*
X29720606Y-39997259D01*
X29629394Y-40049920D01*
X29554920Y-40124394D01*
X29502259Y-40215606D01*
X29475000Y-40317339D01*
X29475000Y-40323553D01*
X28795524Y-39644077D01*
X28795523Y-39644077D01*
X28763143Y-39688644D01*
X28670244Y-39870968D01*
X28607009Y-40065582D01*
X28575000Y-40267682D01*
X28575000Y-40472317D01*
X28607009Y-40674417D01*
X28670244Y-40869031D01*
X28763141Y-41051350D01*
X28763147Y-41051359D01*
X28795523Y-41095921D01*
X28795524Y-41095922D01*
X29475000Y-40416446D01*
X29475000Y-40422661D01*
X29502259Y-40524394D01*
X29554920Y-40615606D01*
X29629394Y-40690080D01*
X29720606Y-40742741D01*
X29822339Y-40770000D01*
X29828553Y-40770000D01*
X29149076Y-41449474D01*
X29193650Y-41481859D01*
X29375968Y-41574755D01*
X29570582Y-41637990D01*
X29772683Y-41670000D01*
X29977317Y-41670000D01*
X30179417Y-41637990D01*
X30374031Y-41574755D01*
X30556349Y-41481859D01*
X30600921Y-41449474D01*
X29921447Y-40770000D01*
X29927661Y-40770000D01*
X30029394Y-40742741D01*
X30120606Y-40690080D01*
X30195080Y-40615606D01*
X30247741Y-40524394D01*
X30275000Y-40422661D01*
X30275000Y-40416447D01*
X30954474Y-41095921D01*
X30986861Y-41051347D01*
X30986861Y-41051346D01*
X31034234Y-40958371D01*
X31082208Y-40907575D01*
X31150028Y-40890779D01*
X31216164Y-40913316D01*
X31255203Y-40958369D01*
X31302713Y-41051611D01*
X31423028Y-41217213D01*
X31567786Y-41361971D01*
X31722749Y-41474556D01*
X31733390Y-41482287D01*
X31849607Y-41541503D01*
X31915776Y-41575218D01*
X31915778Y-41575218D01*
X31915781Y-41575220D01*
X32006856Y-41604812D01*
X32110465Y-41638477D01*
X32211557Y-41654488D01*
X32312648Y-41670500D01*
X32312649Y-41670500D01*
X32517351Y-41670500D01*
X32517352Y-41670500D01*
X32719534Y-41638477D01*
X32914219Y-41575220D01*
X33096610Y-41482287D01*
X33225482Y-41388657D01*
X33262213Y-41361971D01*
X33262215Y-41361968D01*
X33262219Y-41361966D01*
X33406966Y-41217219D01*
X33406968Y-41217215D01*
X33406971Y-41217213D01*
X33496075Y-41094570D01*
X33527287Y-41051610D01*
X33574795Y-40958369D01*
X33622769Y-40907573D01*
X33690590Y-40890778D01*
X33756725Y-40913315D01*
X33795765Y-40958369D01*
X33843141Y-41051350D01*
X33843147Y-41051359D01*
X33875523Y-41095921D01*
X33875524Y-41095922D01*
X34555000Y-40416446D01*
X34555000Y-40422661D01*
X34582259Y-40524394D01*
X34634920Y-40615606D01*
X34709394Y-40690080D01*
X34800606Y-40742741D01*
X34902339Y-40770000D01*
X34908553Y-40770000D01*
X34229076Y-41449474D01*
X34273650Y-41481859D01*
X34455968Y-41574755D01*
X34650582Y-41637990D01*
X34852683Y-41670000D01*
X35057317Y-41670000D01*
X35259417Y-41637990D01*
X35454031Y-41574755D01*
X35636349Y-41481859D01*
X35680921Y-41449474D01*
X35001447Y-40770000D01*
X35007661Y-40770000D01*
X35109394Y-40742741D01*
X35200606Y-40690080D01*
X35275080Y-40615606D01*
X35327741Y-40524394D01*
X35355000Y-40422661D01*
X35355000Y-40416448D01*
X36034474Y-41095922D01*
X36051645Y-41094570D01*
X36070154Y-41080298D01*
X36139767Y-41074317D01*
X36201563Y-41106922D01*
X36232851Y-41156843D01*
X36260186Y-41239333D01*
X36260187Y-41239336D01*
X36280674Y-41272550D01*
X36352288Y-41388656D01*
X36476344Y-41512712D01*
X36625666Y-41604814D01*
X36792203Y-41659999D01*
X36894991Y-41670500D01*
X38095008Y-41670499D01*
X38197797Y-41659999D01*
X38364334Y-41604814D01*
X38513656Y-41512712D01*
X38637712Y-41388656D01*
X38729814Y-41239334D01*
X38784999Y-41072797D01*
X38795500Y-40970009D01*
X38795499Y-39769992D01*
X38784999Y-39667203D01*
X38729814Y-39500666D01*
X38637712Y-39351344D01*
X38513656Y-39227288D01*
X38477583Y-39205038D01*
X38430859Y-39153091D01*
X38419638Y-39084128D01*
X38447481Y-39020046D01*
X38505550Y-38981190D01*
X38542681Y-38975500D01*
X38923920Y-38975500D01*
X39021462Y-38956096D01*
X39068913Y-38946658D01*
X39205495Y-38890084D01*
X39256609Y-38855930D01*
X39323285Y-38835052D01*
X39390665Y-38853535D01*
X39437356Y-38905514D01*
X39449500Y-38959032D01*
X39449500Y-39022351D01*
X39481522Y-39224534D01*
X39544781Y-39419223D01*
X39637715Y-39601613D01*
X39758028Y-39767213D01*
X39902786Y-39911971D01*
X40057749Y-40024556D01*
X40068390Y-40032287D01*
X40184607Y-40091503D01*
X40250776Y-40125218D01*
X40250778Y-40125218D01*
X40250781Y-40125220D01*
X40304450Y-40142658D01*
X40445465Y-40188477D01*
X40536616Y-40202914D01*
X40647648Y-40220500D01*
X40647649Y-40220500D01*
X41452351Y-40220500D01*
X41452352Y-40220500D01*
X41654534Y-40188477D01*
X41849219Y-40125220D01*
X42031610Y-40032287D01*
X42197219Y-39911966D01*
X42341966Y-39767219D01*
X42341968Y-39767215D01*
X42341971Y-39767213D01*
X42422268Y-39656692D01*
X42462287Y-39601610D01*
X42555220Y-39419219D01*
X42618477Y-39224534D01*
X42650500Y-39022352D01*
X42650500Y-38817648D01*
X42648013Y-38801947D01*
X47250000Y-38801947D01*
X47250000Y-39038052D01*
X47286934Y-39271247D01*
X47359897Y-39495802D01*
X47467087Y-39706174D01*
X47527338Y-39789104D01*
X47527340Y-39789105D01*
X48185387Y-39131058D01*
X48190889Y-39151591D01*
X48269881Y-39288408D01*
X48381592Y-39400119D01*
X48518409Y-39479111D01*
X48538940Y-39484612D01*
X47880893Y-40142658D01*
X47963828Y-40202914D01*
X48174197Y-40310102D01*
X48398752Y-40383065D01*
X48398751Y-40383065D01*
X48631948Y-40420000D01*
X48868052Y-40420000D01*
X49101247Y-40383065D01*
X49325802Y-40310102D01*
X49536163Y-40202918D01*
X49536169Y-40202914D01*
X49619104Y-40142658D01*
X49619105Y-40142658D01*
X48961058Y-39484612D01*
X48981591Y-39479111D01*
X49118408Y-39400119D01*
X49230119Y-39288408D01*
X49309111Y-39151591D01*
X49314612Y-39131059D01*
X49972658Y-39789105D01*
X49972658Y-39789104D01*
X50032914Y-39706169D01*
X50032918Y-39706163D01*
X50140102Y-39495802D01*
X50213065Y-39271247D01*
X50250000Y-39038052D01*
X50250000Y-38801947D01*
X50213065Y-38568752D01*
X50140102Y-38344197D01*
X50032914Y-38133828D01*
X49972658Y-38050894D01*
X49972658Y-38050893D01*
X49314612Y-38708940D01*
X49309111Y-38688409D01*
X49230119Y-38551592D01*
X49118408Y-38439881D01*
X48981591Y-38360889D01*
X48961059Y-38355387D01*
X49619105Y-37697340D01*
X49619104Y-37697338D01*
X49536174Y-37637087D01*
X49325802Y-37529897D01*
X49101247Y-37456934D01*
X49101248Y-37456934D01*
X48868052Y-37420000D01*
X48631948Y-37420000D01*
X48398752Y-37456934D01*
X48174197Y-37529897D01*
X47963830Y-37637084D01*
X47880894Y-37697340D01*
X48538941Y-38355387D01*
X48518409Y-38360889D01*
X48381592Y-38439881D01*
X48269881Y-38551592D01*
X48190889Y-38688409D01*
X48185387Y-38708941D01*
X47527340Y-38050894D01*
X47467084Y-38133830D01*
X47359897Y-38344197D01*
X47286934Y-38568752D01*
X47250000Y-38801947D01*
X42648013Y-38801947D01*
X42646469Y-38792196D01*
X42618477Y-38615465D01*
X42555218Y-38420776D01*
X42490052Y-38292882D01*
X42462287Y-38238390D01*
X42454556Y-38227749D01*
X42341971Y-38072786D01*
X42197219Y-37928034D01*
X42031610Y-37807713D01*
X41935532Y-37758758D01*
X41932248Y-37756823D01*
X41910874Y-37733998D01*
X41888123Y-37712511D01*
X41887177Y-37708692D01*
X41884490Y-37705823D01*
X41878847Y-37675055D01*
X41871328Y-37644690D01*
X41872596Y-37640968D01*
X41871887Y-37637100D01*
X41883774Y-37608165D01*
X41893865Y-37578555D01*
X41897086Y-37575763D01*
X41898439Y-37572472D01*
X41911060Y-37563654D01*
X41938917Y-37539516D01*
X42031610Y-37492287D01*
X42083656Y-37454474D01*
X42197213Y-37371971D01*
X42197215Y-37371968D01*
X42197219Y-37371966D01*
X42341966Y-37227219D01*
X42341968Y-37227215D01*
X42341971Y-37227213D01*
X42410791Y-37132489D01*
X42462287Y-37061610D01*
X42555220Y-36879219D01*
X42618477Y-36684534D01*
X42650500Y-36482352D01*
X42650500Y-36277648D01*
X42641883Y-36223245D01*
X42618477Y-36075465D01*
X42581615Y-35962016D01*
X42555220Y-35880781D01*
X42555218Y-35880778D01*
X42555218Y-35880776D01*
X42515170Y-35802179D01*
X42462287Y-35698390D01*
X42439912Y-35667593D01*
X42341971Y-35532786D01*
X42197213Y-35388028D01*
X42031611Y-35267713D01*
X41938369Y-35220203D01*
X41887574Y-35172229D01*
X41870779Y-35104407D01*
X41893317Y-35038273D01*
X41938371Y-34999234D01*
X42031347Y-34951861D01*
X42196894Y-34831582D01*
X42196895Y-34831582D01*
X42341582Y-34686895D01*
X42341582Y-34686894D01*
X42461859Y-34521349D01*
X42554755Y-34339029D01*
X42617990Y-34144413D01*
X42626609Y-34090000D01*
X41598482Y-34090000D01*
X41609111Y-34071591D01*
X41650000Y-33918991D01*
X41650000Y-33761009D01*
X41609111Y-33608409D01*
X41598482Y-33590000D01*
X42626609Y-33590000D01*
X42617990Y-33535586D01*
X42554755Y-33340970D01*
X42461859Y-33158650D01*
X42341582Y-32993105D01*
X42341582Y-32993104D01*
X42196894Y-32848416D01*
X42103068Y-32780247D01*
X42060403Y-32724917D01*
X42054424Y-32655303D01*
X42087030Y-32593508D01*
X42136947Y-32562225D01*
X42219564Y-32534849D01*
X42368806Y-32442795D01*
X42492795Y-32318806D01*
X42584849Y-32169564D01*
X42640004Y-32003116D01*
X42650500Y-31900379D01*
X42650499Y-30699622D01*
X42640004Y-30596884D01*
X42584849Y-30430436D01*
X42584845Y-30430430D01*
X42584844Y-30430427D01*
X42492797Y-30281197D01*
X42492794Y-30281193D01*
X42368806Y-30157205D01*
X42368802Y-30157202D01*
X42219572Y-30065155D01*
X42219566Y-30065152D01*
X42219564Y-30065151D01*
X42095705Y-30024108D01*
X42085648Y-30017145D01*
X42073734Y-30014375D01*
X42057458Y-29997628D01*
X42038261Y-29984336D01*
X42033565Y-29973041D01*
X42025040Y-29964269D01*
X42020402Y-29941383D01*
X42011438Y-29919821D01*
X42013594Y-29907779D01*
X42011165Y-29895791D01*
X42019637Y-29874031D01*
X42023753Y-29851045D01*
X42032700Y-29840478D01*
X42036515Y-29830682D01*
X42061826Y-29806084D01*
X42076967Y-29795083D01*
X42076970Y-29795081D01*
X42191895Y-29711582D01*
X42336582Y-29566895D01*
X42336582Y-29566894D01*
X42456859Y-29401349D01*
X42549755Y-29219029D01*
X42612990Y-29024413D01*
X42621609Y-28970000D01*
X41593482Y-28970000D01*
X41604111Y-28951591D01*
X41645000Y-28798991D01*
X41645000Y-28641009D01*
X41634533Y-28601947D01*
X47245000Y-28601947D01*
X47245000Y-28838052D01*
X47281934Y-29071247D01*
X47354897Y-29295802D01*
X47462087Y-29506174D01*
X47522338Y-29589104D01*
X47522340Y-29589105D01*
X48180387Y-28931058D01*
X48185889Y-28951591D01*
X48264881Y-29088408D01*
X48376592Y-29200119D01*
X48513409Y-29279111D01*
X48533940Y-29284612D01*
X47875893Y-29942658D01*
X47878733Y-29978738D01*
X47885202Y-30022610D01*
X47880894Y-30077340D01*
X48538941Y-30735387D01*
X48518409Y-30740889D01*
X48381592Y-30819881D01*
X48269881Y-30931592D01*
X48190889Y-31068409D01*
X48185387Y-31088941D01*
X47527340Y-30430894D01*
X47467084Y-30513830D01*
X47359897Y-30724197D01*
X47286934Y-30948752D01*
X47250000Y-31181947D01*
X47250000Y-31418052D01*
X47286934Y-31651247D01*
X47359897Y-31875802D01*
X47467087Y-32086174D01*
X47527338Y-32169104D01*
X47527340Y-32169105D01*
X48185387Y-31511058D01*
X48190889Y-31531591D01*
X48269881Y-31668408D01*
X48381592Y-31780119D01*
X48518409Y-31859111D01*
X48538940Y-31864612D01*
X47880893Y-32522658D01*
X47963828Y-32582914D01*
X48174197Y-32690102D01*
X48398752Y-32763065D01*
X48398751Y-32763065D01*
X48631948Y-32800000D01*
X48868052Y-32800000D01*
X49101247Y-32763065D01*
X49325802Y-32690102D01*
X49536163Y-32582918D01*
X49536169Y-32582914D01*
X49619104Y-32522658D01*
X49619105Y-32522658D01*
X48961058Y-31864612D01*
X48981591Y-31859111D01*
X49118408Y-31780119D01*
X49230119Y-31668408D01*
X49309111Y-31531591D01*
X49314612Y-31511059D01*
X49972658Y-32169105D01*
X49972658Y-32169104D01*
X50032914Y-32086169D01*
X50032918Y-32086163D01*
X50140102Y-31875802D01*
X50213065Y-31651247D01*
X50250000Y-31418052D01*
X50250000Y-31181947D01*
X50213065Y-30948752D01*
X50140102Y-30724197D01*
X50032914Y-30513828D01*
X49972658Y-30430894D01*
X49972658Y-30430893D01*
X49314612Y-31088940D01*
X49309111Y-31068409D01*
X49230119Y-30931592D01*
X49118408Y-30819881D01*
X48981591Y-30740889D01*
X48961059Y-30735387D01*
X49619105Y-30077340D01*
X49616265Y-30041259D01*
X49609797Y-29997388D01*
X49614104Y-29942657D01*
X48956058Y-29284612D01*
X48976591Y-29279111D01*
X49113408Y-29200119D01*
X49225119Y-29088408D01*
X49304111Y-28951591D01*
X49309612Y-28931059D01*
X49967658Y-29589105D01*
X49967658Y-29589104D01*
X50027914Y-29506169D01*
X50027918Y-29506163D01*
X50135102Y-29295802D01*
X50208065Y-29071247D01*
X50245000Y-28838052D01*
X50245000Y-28601947D01*
X50208065Y-28368752D01*
X50135102Y-28144197D01*
X50027914Y-27933828D01*
X49967658Y-27850894D01*
X49967658Y-27850893D01*
X49309612Y-28508940D01*
X49304111Y-28488409D01*
X49225119Y-28351592D01*
X49113408Y-28239881D01*
X48976591Y-28160889D01*
X48956059Y-28155387D01*
X49614105Y-27497340D01*
X49614104Y-27497338D01*
X49531174Y-27437087D01*
X49320802Y-27329897D01*
X49096247Y-27256934D01*
X49096248Y-27256934D01*
X48863052Y-27220000D01*
X48626948Y-27220000D01*
X48393752Y-27256934D01*
X48169197Y-27329897D01*
X47958830Y-27437084D01*
X47875894Y-27497340D01*
X48533941Y-28155387D01*
X48513409Y-28160889D01*
X48376592Y-28239881D01*
X48264881Y-28351592D01*
X48185889Y-28488409D01*
X48180387Y-28508941D01*
X47522340Y-27850894D01*
X47462084Y-27933830D01*
X47354897Y-28144197D01*
X47281934Y-28368752D01*
X47245000Y-28601947D01*
X41634533Y-28601947D01*
X41604111Y-28488409D01*
X41593482Y-28470000D01*
X42621609Y-28470000D01*
X42612990Y-28415586D01*
X42549755Y-28220970D01*
X42456859Y-28038650D01*
X42336582Y-27873105D01*
X42336582Y-27873104D01*
X42191895Y-27728417D01*
X42081803Y-27648430D01*
X41926221Y-27556866D01*
X41904797Y-27534019D01*
X41882024Y-27512511D01*
X41881089Y-27508735D01*
X41878429Y-27505899D01*
X41872757Y-27475091D01*
X41865229Y-27444690D01*
X41866483Y-27441009D01*
X41865779Y-27437184D01*
X41877663Y-27408200D01*
X41887766Y-27378555D01*
X41890951Y-27375794D01*
X41892287Y-27372538D01*
X41904864Y-27363738D01*
X41932820Y-27339515D01*
X42026349Y-27291859D01*
X42191894Y-27171582D01*
X42191895Y-27171582D01*
X42336582Y-27026895D01*
X42336582Y-27026894D01*
X42456859Y-26861349D01*
X42549755Y-26679029D01*
X42612990Y-26484413D01*
X42621609Y-26430000D01*
X41593482Y-26430000D01*
X41604111Y-26411591D01*
X41645000Y-26258991D01*
X41645000Y-26101009D01*
X41604111Y-25948409D01*
X41593482Y-25930000D01*
X42621609Y-25930000D01*
X42612990Y-25875586D01*
X42549755Y-25680970D01*
X42456859Y-25498650D01*
X42336582Y-25333105D01*
X42336582Y-25333104D01*
X42191895Y-25188417D01*
X42026349Y-25068140D01*
X41933370Y-25020765D01*
X41882574Y-24972790D01*
X41865779Y-24904969D01*
X41888316Y-24838835D01*
X41933370Y-24799795D01*
X42026610Y-24752287D01*
X42068926Y-24721543D01*
X42192213Y-24631971D01*
X42192215Y-24631968D01*
X42192219Y-24631966D01*
X42336966Y-24487219D01*
X42336968Y-24487215D01*
X42336971Y-24487213D01*
X42427084Y-24363181D01*
X42457287Y-24321610D01*
X42547872Y-24143827D01*
X42550218Y-24139223D01*
X42550218Y-24139222D01*
X42550220Y-24139219D01*
X42613477Y-23944534D01*
X42645500Y-23742352D01*
X42645500Y-23537648D01*
X42635924Y-23477191D01*
X42613477Y-23335465D01*
X42550218Y-23140776D01*
X42516503Y-23074607D01*
X42457287Y-22958390D01*
X42442513Y-22938055D01*
X42336971Y-22792786D01*
X42192213Y-22648028D01*
X42098653Y-22580054D01*
X42055987Y-22524725D01*
X42050008Y-22455111D01*
X42082613Y-22393316D01*
X42132533Y-22362031D01*
X42214564Y-22334849D01*
X42363806Y-22242795D01*
X42487795Y-22118806D01*
X42579849Y-21969564D01*
X42635004Y-21803116D01*
X42645500Y-21700379D01*
X42645499Y-20981947D01*
X47245000Y-20981947D01*
X47245000Y-21218052D01*
X47281934Y-21451247D01*
X47354897Y-21675802D01*
X47462087Y-21886174D01*
X47522338Y-21969104D01*
X47522340Y-21969105D01*
X48180387Y-21311058D01*
X48185889Y-21331591D01*
X48264881Y-21468408D01*
X48376592Y-21580119D01*
X48513409Y-21659111D01*
X48533940Y-21664612D01*
X47875893Y-22322658D01*
X47958828Y-22382914D01*
X48169197Y-22490102D01*
X48393752Y-22563065D01*
X48393751Y-22563065D01*
X48626948Y-22600000D01*
X48863052Y-22600000D01*
X49096247Y-22563065D01*
X49320802Y-22490102D01*
X49531163Y-22382918D01*
X49531169Y-22382914D01*
X49614104Y-22322658D01*
X49614105Y-22322658D01*
X48956058Y-21664612D01*
X48976591Y-21659111D01*
X49113408Y-21580119D01*
X49225119Y-21468408D01*
X49304111Y-21331591D01*
X49309612Y-21311059D01*
X49967658Y-21969105D01*
X49967658Y-21969104D01*
X50027914Y-21886169D01*
X50027918Y-21886163D01*
X50135102Y-21675802D01*
X50208065Y-21451247D01*
X50245000Y-21218052D01*
X50245000Y-20981947D01*
X50208065Y-20748752D01*
X50135102Y-20524197D01*
X50027914Y-20313828D01*
X49967658Y-20230894D01*
X49967658Y-20230893D01*
X49309612Y-20888940D01*
X49304111Y-20868409D01*
X49225119Y-20731592D01*
X49113408Y-20619881D01*
X48976591Y-20540889D01*
X48956059Y-20535387D01*
X49614105Y-19877340D01*
X49614104Y-19877338D01*
X49531174Y-19817087D01*
X49359497Y-19729612D01*
X49195414Y-19669155D01*
X49096247Y-19636934D01*
X49096248Y-19636934D01*
X48863052Y-19600000D01*
X48626948Y-19600000D01*
X48393752Y-19636934D01*
X48169197Y-19709897D01*
X47958830Y-19817084D01*
X47875894Y-19877340D01*
X48533941Y-20535387D01*
X48513409Y-20540889D01*
X48376592Y-20619881D01*
X48264881Y-20731592D01*
X48185889Y-20868409D01*
X48180387Y-20888941D01*
X47522340Y-20230894D01*
X47462084Y-20313830D01*
X47354897Y-20524197D01*
X47281934Y-20748752D01*
X47245000Y-20981947D01*
X42645499Y-20981947D01*
X42645499Y-20499622D01*
X42635004Y-20396884D01*
X42579849Y-20230436D01*
X42579845Y-20230430D01*
X42579844Y-20230427D01*
X42487797Y-20081197D01*
X42487794Y-20081193D01*
X42363806Y-19957205D01*
X42363802Y-19957202D01*
X42214572Y-19865155D01*
X42214566Y-19865152D01*
X42214564Y-19865151D01*
X42048116Y-19809996D01*
X42048113Y-19809995D01*
X42048114Y-19809995D01*
X41945380Y-19799500D01*
X40144628Y-19799500D01*
X40144612Y-19799501D01*
X40041882Y-19809996D01*
X39875438Y-19865150D01*
X39875427Y-19865155D01*
X39726197Y-19957202D01*
X39726193Y-19957205D01*
X39602205Y-20081193D01*
X39602202Y-20081197D01*
X39510155Y-20230427D01*
X39510150Y-20230438D01*
X39454995Y-20396887D01*
X39444500Y-20499613D01*
X39444500Y-20763481D01*
X39424815Y-20830520D01*
X39408181Y-20851162D01*
X37946162Y-22313181D01*
X37884839Y-22346666D01*
X37858481Y-22349500D01*
X37549500Y-22349500D01*
X37482461Y-22329815D01*
X37436706Y-22277011D01*
X37425500Y-22225500D01*
X37425500Y-21856006D01*
X37416194Y-21809226D01*
X37416194Y-21809225D01*
X37398580Y-21720672D01*
X37390177Y-21700386D01*
X37345777Y-21593192D01*
X37269112Y-21478454D01*
X36561818Y-20771160D01*
X36528333Y-20709837D01*
X36525499Y-20683479D01*
X36525499Y-20476662D01*
X36525498Y-20476644D01*
X36515349Y-20377292D01*
X36515348Y-20377289D01*
X36494319Y-20313828D01*
X36462003Y-20216303D01*
X36461999Y-20216297D01*
X36461998Y-20216294D01*
X36372970Y-20071959D01*
X36372969Y-20071957D01*
X36372968Y-20071956D01*
X36253044Y-19952032D01*
X36253041Y-19952030D01*
X36253040Y-19952029D01*
X36108705Y-19863001D01*
X36108699Y-19862998D01*
X36108697Y-19862997D01*
X36108688Y-19862994D01*
X35947709Y-19809651D01*
X35848346Y-19799500D01*
X35301662Y-19799500D01*
X35301644Y-19799501D01*
X35202292Y-19809650D01*
X35202289Y-19809651D01*
X35041305Y-19862996D01*
X35041294Y-19863001D01*
X34896959Y-19952029D01*
X34896955Y-19952032D01*
X34887686Y-19961302D01*
X34826363Y-19994787D01*
X34756671Y-19989803D01*
X34712324Y-19961302D01*
X34703052Y-19952030D01*
X34703048Y-19952027D01*
X34558713Y-19862999D01*
X34558707Y-19862996D01*
X34558705Y-19862995D01*
X34558702Y-19862994D01*
X34397717Y-19809649D01*
X34298354Y-19799498D01*
X33751670Y-19799498D01*
X33751652Y-19799499D01*
X33652300Y-19809648D01*
X33652297Y-19809649D01*
X33491313Y-19862994D01*
X33491302Y-19862999D01*
X33346967Y-19952027D01*
X33346963Y-19952030D01*
X33227040Y-20071953D01*
X33227037Y-20071957D01*
X33138009Y-20216292D01*
X33138004Y-20216303D01*
X33084659Y-20377288D01*
X33074508Y-20476645D01*
X33074508Y-21073335D01*
X33074509Y-21073353D01*
X33084658Y-21172705D01*
X33084659Y-21172708D01*
X33138004Y-21333692D01*
X33138009Y-21333703D01*
X33227037Y-21478038D01*
X33227040Y-21478042D01*
X33346963Y-21597965D01*
X33346967Y-21597968D01*
X33492110Y-21687494D01*
X33514694Y-21705351D01*
X33706843Y-21897500D01*
X33740328Y-21958823D01*
X33735344Y-22028515D01*
X33693472Y-22084448D01*
X33653537Y-22102260D01*
X33654068Y-22103962D01*
X33647807Y-22105912D01*
X33647804Y-22105913D01*
X33528678Y-22143033D01*
X33485393Y-22156521D01*
X33339811Y-22244529D01*
X33219530Y-22364810D01*
X33131522Y-22510392D01*
X33080913Y-22672806D01*
X33074500Y-22743385D01*
X33074500Y-23406612D01*
X33080913Y-23477191D01*
X33080913Y-23477193D01*
X33080914Y-23477195D01*
X33131522Y-23639605D01*
X33217928Y-23782538D01*
X33219530Y-23785187D01*
X33238183Y-23803839D01*
X33271670Y-23865161D01*
X33274504Y-23891522D01*
X33274504Y-24558476D01*
X33254819Y-24625515D01*
X33238185Y-24646157D01*
X33219531Y-24664810D01*
X33219530Y-24664811D01*
X33131522Y-24810393D01*
X33080913Y-24972807D01*
X33074500Y-25043386D01*
X33074500Y-25706613D01*
X33080913Y-25777192D01*
X33080913Y-25777194D01*
X33080914Y-25777196D01*
X33131522Y-25939606D01*
X33213246Y-26074794D01*
X33219530Y-26085188D01*
X33238179Y-26103836D01*
X33271666Y-26165158D01*
X33274500Y-26191519D01*
X33274500Y-26850503D01*
X33254815Y-26917542D01*
X33202011Y-26963297D01*
X33150500Y-26974503D01*
X30301001Y-26974503D01*
X30165674Y-27001421D01*
X30165664Y-27001424D01*
X30038189Y-27054225D01*
X29923451Y-27130890D01*
X29740412Y-27313929D01*
X29735792Y-27317140D01*
X29734049Y-27319861D01*
X29714375Y-27332030D01*
X29704381Y-27338979D01*
X29701636Y-27340236D01*
X29701503Y-27340263D01*
X29555821Y-27400606D01*
X29525160Y-27421092D01*
X29516150Y-27425221D01*
X29490980Y-27428871D01*
X29466711Y-27436470D01*
X29456984Y-27433801D01*
X29447004Y-27435249D01*
X29423856Y-27424712D01*
X29399332Y-27417984D01*
X29392593Y-27410481D01*
X29383413Y-27406303D01*
X29369637Y-27384925D01*
X29352642Y-27366005D01*
X29350031Y-27354501D01*
X29345566Y-27347571D01*
X29345550Y-27334748D01*
X29340500Y-27312490D01*
X29340500Y-25800345D01*
X29338605Y-25790821D01*
X29338604Y-25790816D01*
X29329986Y-25747488D01*
X29313580Y-25665011D01*
X29295304Y-25620889D01*
X29260777Y-25537531D01*
X29184112Y-25422793D01*
X29184111Y-25422792D01*
X28561453Y-24800135D01*
X28530059Y-24747052D01*
X28501746Y-24649596D01*
X28418083Y-24508129D01*
X28418081Y-24508127D01*
X28418078Y-24508123D01*
X28301872Y-24391917D01*
X28301864Y-24391911D01*
X28220840Y-24343994D01*
X28160400Y-24308250D01*
X28160399Y-24308249D01*
X28160398Y-24308249D01*
X28160395Y-24308248D01*
X28062945Y-24279936D01*
X28009859Y-24248541D01*
X25647207Y-21885888D01*
X25647206Y-21885887D01*
X25532468Y-21809222D01*
X25404993Y-21756421D01*
X25404983Y-21756418D01*
X25269657Y-21729500D01*
X25269655Y-21729500D01*
X25269654Y-21729500D01*
X24359000Y-21729500D01*
X24291961Y-21709815D01*
X24246206Y-21657011D01*
X24235000Y-21605500D01*
X24235000Y-21560000D01*
X23414617Y-21560000D01*
X23465063Y-21509554D01*
X23507850Y-21435445D01*
X23529999Y-21352787D01*
X23529999Y-21267213D01*
X23507850Y-21184555D01*
X23465063Y-21110446D01*
X23404553Y-21049936D01*
X23330444Y-21007149D01*
X23247786Y-20985000D01*
X22762212Y-20985000D01*
X22679554Y-21007149D01*
X22605445Y-21049936D01*
X22544935Y-21110446D01*
X22502148Y-21184555D01*
X22487310Y-21239925D01*
X22441003Y-21250000D01*
X21433648Y-21250000D01*
X21433639Y-21250001D01*
X20499977Y-21250001D01*
X20535072Y-21214906D01*
X20581150Y-21135096D01*
X20605002Y-21046079D01*
X20605002Y-20953923D01*
X20581150Y-20864906D01*
X20535072Y-20785096D01*
X20499977Y-20750001D01*
X20705000Y-20750001D01*
X20705000Y-20654000D01*
X20712047Y-20630000D01*
X21935000Y-20630000D01*
X22735000Y-20630000D01*
X23235000Y-20630000D01*
X24235000Y-20630000D01*
X24235000Y-19832172D01*
X24234999Y-19832155D01*
X24228598Y-19772627D01*
X24228596Y-19772620D01*
X24178354Y-19637913D01*
X24178350Y-19637906D01*
X24092190Y-19522812D01*
X24092187Y-19522809D01*
X23977093Y-19436649D01*
X23977086Y-19436645D01*
X23842379Y-19386403D01*
X23842372Y-19386401D01*
X23782844Y-19380000D01*
X23235000Y-19380000D01*
X23235000Y-20630000D01*
X22735000Y-20630000D01*
X22735000Y-19380000D01*
X22183853Y-19380000D01*
X22183853Y-19379307D01*
X22150283Y-19374173D01*
X22149926Y-19375686D01*
X22142375Y-19373902D01*
X22082842Y-19367500D01*
X21935000Y-19367500D01*
X21935000Y-20630000D01*
X20712047Y-20630000D01*
X20724685Y-20586961D01*
X20777489Y-20541206D01*
X20829000Y-20530000D01*
X21435000Y-20530000D01*
X21435000Y-19357561D01*
X21413470Y-19318132D01*
X21418454Y-19248440D01*
X21459148Y-19193400D01*
X21539699Y-19131592D01*
X21706592Y-18964699D01*
X21850273Y-18777450D01*
X21968284Y-18573049D01*
X22058606Y-18354993D01*
X22119693Y-18127014D01*
X22150500Y-17893011D01*
X22150500Y-17656989D01*
X22119693Y-17422986D01*
X22058606Y-17195007D01*
X21968284Y-16976951D01*
X21968282Y-16976948D01*
X21968280Y-16976943D01*
X21926118Y-16903918D01*
X21850273Y-16772550D01*
X21761928Y-16657416D01*
X21706593Y-16585302D01*
X21706587Y-16585295D01*
X21539704Y-16418412D01*
X21539697Y-16418406D01*
X21352454Y-16274730D01*
X21352453Y-16274729D01*
X21352450Y-16274727D01*
X21347528Y-16271885D01*
X21299314Y-16221320D01*
X21286092Y-16152712D01*
X21312060Y-16087848D01*
X21368974Y-16047320D01*
X21409530Y-16040500D01*
X48915470Y-16040500D01*
X48982509Y-16060185D01*
G37*
%TD.AperFunction*%
%TA.AperFunction,Conductor*%
G36*
X33370173Y-39166234D02*
G01*
X33370667Y-39163930D01*
X33377283Y-39165346D01*
X33377288Y-39165346D01*
X33377290Y-39165347D01*
X33476653Y-39175498D01*
X34073342Y-39175497D01*
X34091582Y-39173633D01*
X34160271Y-39186401D01*
X34211157Y-39234279D01*
X34223907Y-39285354D01*
X34908554Y-39970000D01*
X34902339Y-39970000D01*
X34800606Y-39997259D01*
X34709394Y-40049920D01*
X34634920Y-40124394D01*
X34582259Y-40215606D01*
X34555000Y-40317339D01*
X34555000Y-40323553D01*
X33875524Y-39644077D01*
X33875523Y-39644077D01*
X33843143Y-39688644D01*
X33795765Y-39781630D01*
X33747790Y-39832426D01*
X33679969Y-39849221D01*
X33613834Y-39826683D01*
X33574795Y-39781630D01*
X33536348Y-39706174D01*
X33527287Y-39688390D01*
X33527285Y-39688387D01*
X33527284Y-39688385D01*
X33406971Y-39522786D01*
X33258774Y-39374589D01*
X33259899Y-39373463D01*
X33225530Y-39320802D01*
X33225039Y-39250934D01*
X33262400Y-39191892D01*
X33325750Y-39162421D01*
X33370173Y-39166234D01*
G37*
%TD.AperFunction*%
%TA.AperFunction,Conductor*%
G36*
X31431767Y-39095950D02*
G01*
X31433238Y-39095573D01*
X31467977Y-39101793D01*
X31568281Y-39135031D01*
X31625725Y-39174802D01*
X31652548Y-39239318D01*
X31640233Y-39308094D01*
X31602162Y-39353054D01*
X31567782Y-39378032D01*
X31423028Y-39522786D01*
X31302713Y-39688388D01*
X31255203Y-39781630D01*
X31207228Y-39832426D01*
X31139407Y-39849220D01*
X31073272Y-39826682D01*
X31034234Y-39781628D01*
X30986861Y-39688652D01*
X30954474Y-39644077D01*
X30954474Y-39644076D01*
X30275000Y-40323551D01*
X30275000Y-40317339D01*
X30247741Y-40215606D01*
X30195080Y-40124394D01*
X30120606Y-40049920D01*
X30029394Y-39997259D01*
X29927661Y-39970000D01*
X29921446Y-39970000D01*
X30600922Y-39290524D01*
X30598906Y-39264917D01*
X30598578Y-39264491D01*
X30592597Y-39194878D01*
X30625202Y-39133082D01*
X30686039Y-39098723D01*
X30714128Y-39095500D01*
X31428976Y-39095500D01*
X31431767Y-39095950D01*
G37*
%TD.AperFunction*%
%TA.AperFunction,Conductor*%
G36*
X36514358Y-38995185D02*
G01*
X36560113Y-39047989D01*
X36570057Y-39117147D01*
X36541032Y-39180703D01*
X36512416Y-39205039D01*
X36476342Y-39227289D01*
X36352289Y-39351342D01*
X36260187Y-39500663D01*
X36260186Y-39500666D01*
X36232852Y-39583155D01*
X36193079Y-39640599D01*
X36128563Y-39667422D01*
X36059787Y-39655107D01*
X36048020Y-39645143D01*
X36034474Y-39644076D01*
X35355000Y-40323551D01*
X35355000Y-40317339D01*
X35327741Y-40215606D01*
X35275080Y-40124394D01*
X35200606Y-40049920D01*
X35109394Y-39997259D01*
X35007661Y-39970000D01*
X35001446Y-39970000D01*
X35687758Y-39283688D01*
X35696759Y-39240848D01*
X35745810Y-39191091D01*
X35806011Y-39175497D01*
X35823342Y-39175497D01*
X35823350Y-39175496D01*
X35823353Y-39175496D01*
X35896842Y-39167989D01*
X35922706Y-39165347D01*
X36083695Y-39112001D01*
X36228042Y-39022966D01*
X36239189Y-39011819D01*
X36266116Y-38997115D01*
X36291935Y-38980523D01*
X36298135Y-38979631D01*
X36300512Y-38978334D01*
X36326870Y-38975500D01*
X36447319Y-38975500D01*
X36514358Y-38995185D01*
G37*
%TD.AperFunction*%
%TA.AperFunction,Conductor*%
G36*
X31375345Y-35620185D02*
G01*
X31421100Y-35672989D01*
X31431044Y-35742147D01*
X31402019Y-35805703D01*
X31373405Y-35830036D01*
X31333283Y-35854784D01*
X31319607Y-35863220D01*
X31200719Y-35982108D01*
X31200716Y-35982112D01*
X31112455Y-36125204D01*
X31112451Y-36125213D01*
X31059564Y-36284815D01*
X31059564Y-36284816D01*
X31059563Y-36284816D01*
X31049500Y-36383318D01*
X31049500Y-36916681D01*
X31059563Y-37015183D01*
X31112450Y-37174784D01*
X31112455Y-37174795D01*
X31200716Y-37317887D01*
X31200719Y-37317891D01*
X31232647Y-37349819D01*
X31236985Y-37357764D01*
X31244233Y-37363190D01*
X31253467Y-37387949D01*
X31266132Y-37411142D01*
X31265486Y-37420171D01*
X31268650Y-37428654D01*
X31263033Y-37454474D01*
X31261148Y-37480834D01*
X31255329Y-37489887D01*
X31253798Y-37496927D01*
X31232647Y-37525181D01*
X31199647Y-37558181D01*
X31138324Y-37591666D01*
X31111966Y-37594500D01*
X28339604Y-37594500D01*
X28292155Y-37585062D01*
X28268497Y-37575263D01*
X28268493Y-37575262D01*
X28268488Y-37575260D01*
X28113845Y-37544500D01*
X28113842Y-37544500D01*
X27956158Y-37544500D01*
X27956155Y-37544500D01*
X27801510Y-37575261D01*
X27801498Y-37575264D01*
X27655827Y-37635602D01*
X27655814Y-37635609D01*
X27540095Y-37712931D01*
X27473417Y-37733809D01*
X27406037Y-37715324D01*
X27383523Y-37697511D01*
X27326980Y-37640968D01*
X27268048Y-37582036D01*
X27268045Y-37582034D01*
X27268044Y-37582033D01*
X27123709Y-37493005D01*
X27123703Y-37493002D01*
X27123701Y-37493001D01*
X27121537Y-37492284D01*
X26962713Y-37439655D01*
X26863350Y-37429504D01*
X26266666Y-37429504D01*
X26266648Y-37429505D01*
X26167296Y-37439654D01*
X26167293Y-37439655D01*
X26006309Y-37493000D01*
X26006298Y-37493005D01*
X25861963Y-37582033D01*
X25861959Y-37582036D01*
X25840815Y-37603181D01*
X25813887Y-37617884D01*
X25788069Y-37634477D01*
X25781868Y-37635368D01*
X25779492Y-37636666D01*
X25753134Y-37639500D01*
X25731519Y-37639500D01*
X25664480Y-37619815D01*
X25643837Y-37603180D01*
X25600187Y-37559529D01*
X25594282Y-37554903D01*
X25596110Y-37552569D01*
X25558147Y-37511088D01*
X25545502Y-37456534D01*
X25545502Y-37319606D01*
X25554941Y-37272153D01*
X25564739Y-37248499D01*
X25595502Y-37093844D01*
X25595502Y-36936160D01*
X25595502Y-36936157D01*
X25595501Y-36936155D01*
X25564739Y-36781505D01*
X25564737Y-36781500D01*
X25504398Y-36635827D01*
X25503383Y-36633928D01*
X25503151Y-36632817D01*
X25502065Y-36630194D01*
X25502562Y-36629987D01*
X25489137Y-36565526D01*
X25514134Y-36500281D01*
X25570437Y-36458907D01*
X25640170Y-36454541D01*
X25656071Y-36459287D01*
X25667618Y-36463593D01*
X25667625Y-36463595D01*
X25727153Y-36469996D01*
X25727170Y-36469997D01*
X25774998Y-36469997D01*
X25774998Y-36468623D01*
X25778792Y-36455699D01*
X25777832Y-36442263D01*
X25788445Y-36422826D01*
X25794683Y-36401584D01*
X25804861Y-36392764D01*
X25811318Y-36380940D01*
X25830756Y-36370326D01*
X25847487Y-36355829D01*
X25860817Y-36353912D01*
X25872642Y-36347456D01*
X25894729Y-36349036D01*
X25916645Y-36345885D01*
X25930416Y-36351589D01*
X25942333Y-36352442D01*
X25973305Y-36369354D01*
X26016506Y-36401694D01*
X26025310Y-36408285D01*
X26061106Y-36456105D01*
X26074998Y-36469997D01*
X26122817Y-36469997D01*
X26122831Y-36469996D01*
X26159401Y-36466064D01*
X26185910Y-36466064D01*
X26227123Y-36470495D01*
X26622868Y-36470494D01*
X26661728Y-36466316D01*
X26688234Y-36466316D01*
X26727126Y-36470498D01*
X27122871Y-36470497D01*
X27122872Y-36470496D01*
X27122884Y-36470496D01*
X27161742Y-36466318D01*
X27188250Y-36466318D01*
X27227125Y-36470498D01*
X27622870Y-36470497D01*
X27682481Y-36464089D01*
X27817329Y-36413794D01*
X27932544Y-36327544D01*
X28018794Y-36212329D01*
X28069089Y-36077481D01*
X28075498Y-36017871D01*
X28075497Y-35986977D01*
X28095180Y-35919940D01*
X28147982Y-35874183D01*
X28175135Y-35866737D01*
X28174932Y-35865876D01*
X28182479Y-35864092D01*
X28182481Y-35864091D01*
X28182483Y-35864091D01*
X28317331Y-35813796D01*
X28432546Y-35727546D01*
X28490456Y-35650188D01*
X28546389Y-35608318D01*
X28589722Y-35600500D01*
X31308306Y-35600500D01*
X31375345Y-35620185D01*
G37*
%TD.AperFunction*%
%TA.AperFunction,Conductor*%
G36*
X39492229Y-34385618D02*
G01*
X39520335Y-34384414D01*
X39526611Y-34388077D01*
X39533861Y-34388596D01*
X39556382Y-34405455D01*
X39580677Y-34419636D01*
X39586655Y-34428117D01*
X39589795Y-34430467D01*
X39601013Y-34448483D01*
X39638140Y-34521349D01*
X39758417Y-34686894D01*
X39758417Y-34686895D01*
X39903104Y-34831582D01*
X40068652Y-34951861D01*
X40161628Y-34999234D01*
X40212425Y-35047208D01*
X40229220Y-35115029D01*
X40206683Y-35181164D01*
X40161630Y-35220203D01*
X40068388Y-35267713D01*
X39902786Y-35388028D01*
X39758028Y-35532786D01*
X39637715Y-35698386D01*
X39544781Y-35880776D01*
X39481522Y-36075465D01*
X39449500Y-36277648D01*
X39449500Y-36482351D01*
X39450798Y-36490547D01*
X39441842Y-36559840D01*
X39416005Y-36597625D01*
X38575451Y-37438181D01*
X38514128Y-37471666D01*
X38487770Y-37474500D01*
X36494644Y-37474500D01*
X36427605Y-37454815D01*
X36381850Y-37402011D01*
X36371906Y-37332853D01*
X36389106Y-37285403D01*
X36436544Y-37208494D01*
X36436549Y-37208483D01*
X36489857Y-37047608D01*
X36500001Y-36948324D01*
X36500002Y-36948311D01*
X36500002Y-36925002D01*
X33899002Y-36925002D01*
X33831963Y-36905317D01*
X33786208Y-36852513D01*
X33775002Y-36801002D01*
X33775002Y-36549002D01*
X33794687Y-36481963D01*
X33847491Y-36436208D01*
X33899002Y-36425002D01*
X36500001Y-36425002D01*
X36500001Y-36401694D01*
X36500000Y-36401679D01*
X36489857Y-36302394D01*
X36436549Y-36141520D01*
X36436544Y-36141509D01*
X36347577Y-35997273D01*
X36347574Y-35997269D01*
X36227734Y-35877429D01*
X36227730Y-35877426D01*
X36150903Y-35830038D01*
X36104178Y-35778090D01*
X36092957Y-35709127D01*
X36120800Y-35645045D01*
X36178869Y-35606190D01*
X36216000Y-35600500D01*
X38014071Y-35600500D01*
X38098615Y-35583682D01*
X38139744Y-35575501D01*
X38258127Y-35526465D01*
X38364669Y-35455277D01*
X39402850Y-34417095D01*
X39427533Y-34403616D01*
X39450530Y-34387406D01*
X39457791Y-34387094D01*
X39464170Y-34383612D01*
X39492229Y-34385618D01*
G37*
%TD.AperFunction*%
%TA.AperFunction,Conductor*%
G36*
X36034474Y-33475922D02*
G01*
X36034474Y-33475921D01*
X36066861Y-33431347D01*
X36066861Y-33431346D01*
X36114234Y-33338371D01*
X36162208Y-33287575D01*
X36230028Y-33270779D01*
X36296164Y-33293316D01*
X36335203Y-33338369D01*
X36382713Y-33431611D01*
X36503028Y-33597213D01*
X36647786Y-33741971D01*
X36768225Y-33829473D01*
X36813390Y-33862287D01*
X36922474Y-33917868D01*
X36995776Y-33955218D01*
X36995778Y-33955218D01*
X36995781Y-33955220D01*
X37100137Y-33989127D01*
X37190465Y-34018477D01*
X37291557Y-34034488D01*
X37392648Y-34050500D01*
X37392649Y-34050500D01*
X37597346Y-34050500D01*
X37597352Y-34050500D01*
X37615139Y-34047682D01*
X37684428Y-34056635D01*
X37737881Y-34101629D01*
X37758523Y-34168380D01*
X37739800Y-34235694D01*
X37722225Y-34257828D01*
X37716881Y-34263173D01*
X37655561Y-34296664D01*
X37629192Y-34299500D01*
X35767848Y-34299500D01*
X35700809Y-34279815D01*
X35655054Y-34227011D01*
X35646231Y-34199692D01*
X35619738Y-34066508D01*
X35619737Y-34066507D01*
X35619737Y-34066503D01*
X35595830Y-34008788D01*
X35588362Y-33939319D01*
X35619637Y-33876840D01*
X35637506Y-33861018D01*
X35680921Y-33829473D01*
X35001446Y-33150000D01*
X35007661Y-33150000D01*
X35109394Y-33122741D01*
X35200606Y-33070080D01*
X35275080Y-32995606D01*
X35327741Y-32904394D01*
X35355000Y-32802661D01*
X35355000Y-32796448D01*
X36034474Y-33475922D01*
G37*
%TD.AperFunction*%
%TA.AperFunction,Conductor*%
G36*
X39385245Y-26307924D02*
G01*
X39441179Y-26349796D01*
X39464385Y-26404708D01*
X39477009Y-26484417D01*
X39540244Y-26679031D01*
X39633140Y-26861349D01*
X39753417Y-27026894D01*
X39753417Y-27026895D01*
X39898104Y-27171582D01*
X40063650Y-27291859D01*
X40157179Y-27339515D01*
X40207975Y-27387490D01*
X40224770Y-27455311D01*
X40202232Y-27521446D01*
X40157179Y-27560485D01*
X40063650Y-27608140D01*
X39898105Y-27728417D01*
X39898104Y-27728417D01*
X39753417Y-27873104D01*
X39753417Y-27873105D01*
X39633140Y-28038650D01*
X39540244Y-28220970D01*
X39477009Y-28415586D01*
X39468391Y-28470000D01*
X40496518Y-28470000D01*
X40485889Y-28488409D01*
X40445000Y-28641009D01*
X40445000Y-28798991D01*
X40485889Y-28951591D01*
X40496518Y-28970000D01*
X39468391Y-28970000D01*
X39477009Y-29024413D01*
X39540244Y-29219029D01*
X39633140Y-29401349D01*
X39753417Y-29566894D01*
X39753417Y-29566895D01*
X39898104Y-29711582D01*
X39898110Y-29711587D01*
X40031306Y-29808360D01*
X40073972Y-29863690D01*
X40079951Y-29933303D01*
X40047345Y-29995098D01*
X39997426Y-30026384D01*
X39880436Y-30065151D01*
X39880427Y-30065155D01*
X39731197Y-30157202D01*
X39731193Y-30157205D01*
X39607205Y-30281193D01*
X39607202Y-30281197D01*
X39515155Y-30430427D01*
X39515150Y-30430438D01*
X39459995Y-30596887D01*
X39449500Y-30699613D01*
X39449500Y-31900371D01*
X39449501Y-31900387D01*
X39459996Y-32003117D01*
X39483525Y-32074123D01*
X39515151Y-32169564D01*
X39565246Y-32250781D01*
X39576350Y-32268782D01*
X39594790Y-32336174D01*
X39573868Y-32402838D01*
X39558492Y-32421560D01*
X39002836Y-32977216D01*
X38941513Y-33010701D01*
X38871821Y-33005717D01*
X38815888Y-32963845D01*
X38791471Y-32898381D01*
X38792681Y-32870148D01*
X38795500Y-32852352D01*
X38795500Y-32647648D01*
X38773909Y-32511331D01*
X38763477Y-32445465D01*
X38723849Y-32323503D01*
X38700220Y-32250781D01*
X38700218Y-32250778D01*
X38700218Y-32250776D01*
X38636742Y-32126199D01*
X38607287Y-32068390D01*
X38575092Y-32024077D01*
X38486971Y-31902786D01*
X38342213Y-31758028D01*
X38176613Y-31637715D01*
X38176612Y-31637714D01*
X38176610Y-31637713D01*
X38087190Y-31592151D01*
X37994223Y-31544781D01*
X37799534Y-31481522D01*
X37624995Y-31453878D01*
X37597352Y-31449500D01*
X37392648Y-31449500D01*
X37368329Y-31453351D01*
X37190465Y-31481522D01*
X36995776Y-31544781D01*
X36813386Y-31637715D01*
X36647786Y-31758028D01*
X36503028Y-31902786D01*
X36382713Y-32068388D01*
X36335203Y-32161630D01*
X36287228Y-32212426D01*
X36219407Y-32229220D01*
X36153272Y-32206682D01*
X36114234Y-32161628D01*
X36066861Y-32068652D01*
X36034474Y-32024077D01*
X36034474Y-32024076D01*
X35355000Y-32703551D01*
X35355000Y-32697339D01*
X35327741Y-32595606D01*
X35275080Y-32504394D01*
X35200606Y-32429920D01*
X35109394Y-32377259D01*
X35007661Y-32350000D01*
X35001446Y-32350000D01*
X35680922Y-31670524D01*
X35680921Y-31670523D01*
X35636359Y-31638147D01*
X35636350Y-31638141D01*
X35454031Y-31545244D01*
X35259417Y-31482009D01*
X35057317Y-31450000D01*
X34852683Y-31450000D01*
X34650582Y-31482009D01*
X34455968Y-31545244D01*
X34273644Y-31638143D01*
X34229077Y-31670523D01*
X34229077Y-31670524D01*
X34908554Y-32350000D01*
X34902339Y-32350000D01*
X34800606Y-32377259D01*
X34709394Y-32429920D01*
X34634920Y-32504394D01*
X34582259Y-32595606D01*
X34555000Y-32697339D01*
X34555000Y-32703553D01*
X33875524Y-32024077D01*
X33875523Y-32024077D01*
X33843143Y-32068644D01*
X33795765Y-32161630D01*
X33747790Y-32212426D01*
X33679969Y-32229221D01*
X33613834Y-32206683D01*
X33574795Y-32161630D01*
X33556742Y-32126199D01*
X33527287Y-32068390D01*
X33527285Y-32068387D01*
X33527284Y-32068385D01*
X33406971Y-31902786D01*
X33262213Y-31758028D01*
X33096613Y-31637715D01*
X33096612Y-31637714D01*
X33096610Y-31637713D01*
X32914219Y-31544780D01*
X32790913Y-31504715D01*
X32733238Y-31465278D01*
X32706040Y-31400920D01*
X32717955Y-31332074D01*
X32741548Y-31299107D01*
X35353841Y-28686816D01*
X35415164Y-28653331D01*
X35441522Y-28650497D01*
X35881615Y-28650497D01*
X35881618Y-28650497D01*
X35952198Y-28644083D01*
X36114608Y-28593475D01*
X36260187Y-28505469D01*
X36298999Y-28466657D01*
X36353841Y-28411816D01*
X36415164Y-28378331D01*
X36441522Y-28375497D01*
X36993999Y-28375497D01*
X37085043Y-28357386D01*
X37129331Y-28348577D01*
X37193072Y-28322174D01*
X37256810Y-28295774D01*
X37256811Y-28295773D01*
X37256814Y-28295772D01*
X37371546Y-28219111D01*
X39254231Y-26336424D01*
X39315554Y-26302940D01*
X39385245Y-26307924D01*
G37*
%TD.AperFunction*%
%TA.AperFunction,Conductor*%
G36*
X33186842Y-28383830D02*
G01*
X33215837Y-28389564D01*
X33222365Y-28394260D01*
X33225523Y-28395188D01*
X33241075Y-28407720D01*
X33244487Y-28410175D01*
X33245346Y-28411002D01*
X33339819Y-28505475D01*
X33349635Y-28511409D01*
X33359626Y-28521028D01*
X33394268Y-28581705D01*
X33390606Y-28651479D01*
X33361304Y-28698037D01*
X30530894Y-31528447D01*
X30469571Y-31561932D01*
X30399879Y-31556948D01*
X30386917Y-31551250D01*
X30374217Y-31544779D01*
X30179536Y-31481523D01*
X30023587Y-31456823D01*
X29977352Y-31449500D01*
X29772648Y-31449500D01*
X29748329Y-31453351D01*
X29570465Y-31481522D01*
X29375776Y-31544781D01*
X29193386Y-31637715D01*
X29027786Y-31758028D01*
X28883028Y-31902786D01*
X28762713Y-32068388D01*
X28675731Y-32239098D01*
X28627757Y-32289893D01*
X28559936Y-32306688D01*
X28493801Y-32284150D01*
X28465983Y-32257116D01*
X28432547Y-32212451D01*
X28432545Y-32212449D01*
X28432544Y-32212448D01*
X28317336Y-32126203D01*
X28317329Y-32126199D01*
X28182483Y-32075905D01*
X28174939Y-32074123D01*
X28175476Y-32071849D01*
X28121693Y-32049572D01*
X28081845Y-31992180D01*
X28075499Y-31953021D01*
X28075499Y-31922128D01*
X28075498Y-31922122D01*
X28069091Y-31862515D01*
X28018797Y-31727670D01*
X28018793Y-31727663D01*
X27932547Y-31612454D01*
X27932544Y-31612451D01*
X27817335Y-31526205D01*
X27817328Y-31526201D01*
X27682486Y-31475909D01*
X27682485Y-31475908D01*
X27682483Y-31475908D01*
X27622873Y-31469499D01*
X27622863Y-31469499D01*
X27227130Y-31469499D01*
X27227121Y-31469500D01*
X27202751Y-31472120D01*
X27133992Y-31459713D01*
X27082856Y-31412101D01*
X27065499Y-31348830D01*
X27065499Y-30386022D01*
X27085184Y-30318983D01*
X27137988Y-30273228D01*
X27207146Y-30263284D01*
X27270702Y-30292309D01*
X27292601Y-30317131D01*
X27368210Y-30430288D01*
X27368213Y-30430292D01*
X27479707Y-30541786D01*
X27479711Y-30541789D01*
X27610814Y-30629390D01*
X27610827Y-30629397D01*
X27756498Y-30689735D01*
X27756503Y-30689737D01*
X27911153Y-30720499D01*
X27911156Y-30720500D01*
X27911158Y-30720500D01*
X28068844Y-30720500D01*
X28068845Y-30720499D01*
X28223497Y-30689737D01*
X28369179Y-30629394D01*
X28500289Y-30541789D01*
X28611789Y-30430289D01*
X28699394Y-30299179D01*
X28699395Y-30299176D01*
X28699397Y-30299173D01*
X28759192Y-30154812D01*
X28786067Y-30114588D01*
X29184114Y-29716543D01*
X29260775Y-29601811D01*
X29266039Y-29589104D01*
X29300391Y-29506169D01*
X29313580Y-29474328D01*
X29334332Y-29370004D01*
X29340500Y-29338996D01*
X29340500Y-28907509D01*
X29360185Y-28840470D01*
X29412989Y-28794715D01*
X29482147Y-28784771D01*
X29533392Y-28804408D01*
X29555812Y-28819389D01*
X29555827Y-28819397D01*
X29678005Y-28870004D01*
X29701503Y-28879737D01*
X29856153Y-28910499D01*
X29856156Y-28910500D01*
X29856158Y-28910500D01*
X30013844Y-28910500D01*
X30013845Y-28910499D01*
X30168497Y-28879737D01*
X30314179Y-28819394D01*
X30445289Y-28731789D01*
X30556789Y-28620289D01*
X30644394Y-28489179D01*
X30659773Y-28452048D01*
X30703613Y-28397648D01*
X30769907Y-28375582D01*
X30774334Y-28375503D01*
X33158484Y-28375503D01*
X33186842Y-28383830D01*
G37*
%TD.AperFunction*%
%TA.AperFunction,Conductor*%
G36*
X27882539Y-26779684D02*
G01*
X27928294Y-26832488D01*
X27939500Y-26883999D01*
X27939500Y-28928479D01*
X27919815Y-28995518D01*
X27903181Y-29016161D01*
X27795411Y-29123930D01*
X27755183Y-29150809D01*
X27610824Y-29210604D01*
X27610814Y-29210609D01*
X27479711Y-29298210D01*
X27479707Y-29298213D01*
X27368213Y-29409707D01*
X27368210Y-29409711D01*
X27292601Y-29522868D01*
X27238989Y-29567673D01*
X27169664Y-29576380D01*
X27106636Y-29546225D01*
X27069917Y-29486782D01*
X27065499Y-29453977D01*
X27065499Y-27815631D01*
X27085184Y-27748592D01*
X27137988Y-27702837D01*
X27207146Y-27692893D01*
X27240398Y-27702559D01*
X27245937Y-27705052D01*
X27402442Y-27753820D01*
X27402440Y-27753820D01*
X27449999Y-27758141D01*
X27450000Y-27758141D01*
X27450000Y-26883999D01*
X27452550Y-26875313D01*
X27451262Y-26866352D01*
X27462240Y-26842311D01*
X27469685Y-26816960D01*
X27476525Y-26811032D01*
X27480287Y-26802796D01*
X27502521Y-26788506D01*
X27522489Y-26771205D01*
X27533003Y-26768917D01*
X27539065Y-26765022D01*
X27574000Y-26759999D01*
X27815500Y-26759999D01*
X27882539Y-26779684D01*
G37*
%TD.AperFunction*%
%TA.AperFunction,Conductor*%
G36*
X41295000Y-28171517D02*
G01*
X41276591Y-28160889D01*
X41123991Y-28120000D01*
X40966009Y-28120000D01*
X40813409Y-28160889D01*
X40795000Y-28171517D01*
X40795000Y-26728482D01*
X40813409Y-26739111D01*
X40966009Y-26780000D01*
X41123991Y-26780000D01*
X41276591Y-26739111D01*
X41295000Y-26728482D01*
X41295000Y-28171517D01*
G37*
%TD.AperFunction*%
%TA.AperFunction,Conductor*%
G36*
X19928041Y-22789686D02*
G01*
X19973796Y-22842490D01*
X19985002Y-22894001D01*
X19985002Y-24063634D01*
X19984997Y-24063651D01*
X19984997Y-24565998D01*
X19965312Y-24633037D01*
X19912508Y-24678792D01*
X19860997Y-24689998D01*
X19608997Y-24689998D01*
X19541958Y-24670313D01*
X19496203Y-24617509D01*
X19484997Y-24565998D01*
X19484997Y-23396365D01*
X19485002Y-23396347D01*
X19485002Y-22894001D01*
X19504687Y-22826962D01*
X19557491Y-22781207D01*
X19609002Y-22770001D01*
X19861002Y-22770001D01*
X19928041Y-22789686D01*
G37*
%TD.AperFunction*%
%TA.AperFunction,Conductor*%
G36*
X18955703Y-18919714D02*
G01*
X18972877Y-18937942D01*
X18993408Y-18964700D01*
X19160295Y-19131587D01*
X19160300Y-19131591D01*
X19160301Y-19131592D01*
X19347550Y-19275273D01*
X19478918Y-19351118D01*
X19551943Y-19393280D01*
X19551948Y-19393282D01*
X19551951Y-19393284D01*
X19770007Y-19483606D01*
X19997986Y-19544693D01*
X20231989Y-19575500D01*
X20231996Y-19575500D01*
X20468004Y-19575500D01*
X20468011Y-19575500D01*
X20702014Y-19544693D01*
X20713818Y-19541530D01*
X20783666Y-19543189D01*
X20841531Y-19582349D01*
X20869037Y-19646577D01*
X20862097Y-19704636D01*
X20847291Y-19744333D01*
X20805420Y-19800267D01*
X20739956Y-19824684D01*
X20731109Y-19825000D01*
X20255002Y-19825000D01*
X20255002Y-20650001D01*
X19755002Y-20650001D01*
X19755002Y-19825001D01*
X19737529Y-19825001D01*
X19554854Y-19853934D01*
X19378961Y-19911084D01*
X19378958Y-19911085D01*
X19214164Y-19995053D01*
X19064547Y-20103755D01*
X19064542Y-20103759D01*
X18962181Y-20206121D01*
X18900858Y-20239606D01*
X18831166Y-20234622D01*
X18775233Y-20192750D01*
X18750816Y-20127286D01*
X18750500Y-20118440D01*
X18750500Y-19013427D01*
X18770185Y-18946388D01*
X18822989Y-18900633D01*
X18892147Y-18890689D01*
X18955703Y-18919714D01*
G37*
%TD.AperFunction*%
%TD*%
M02*
