%TF.GenerationSoftware,KiCad,Pcbnew,9.0.4*%
%TF.CreationDate,2025-11-14T05:46:01+01:00*%
%TF.ProjectId,U2O,55324f2e-6b69-4636-9164-5f7063625858,rev?*%
%TF.SameCoordinates,Original*%
%TF.FileFunction,Soldermask,Top*%
%TF.FilePolarity,Negative*%
%FSLAX46Y46*%
G04 Gerber Fmt 4.6, Leading zero omitted, Abs format (unit mm)*
G04 Created by KiCad (PCBNEW 9.0.4) date 2025-11-14 05:46:01*
%MOMM*%
%LPD*%
G01*
G04 APERTURE LIST*
G04 Aperture macros list*
%AMRoundRect*
0 Rectangle with rounded corners*
0 $1 Rounding radius*
0 $2 $3 $4 $5 $6 $7 $8 $9 X,Y pos of 4 corners*
0 Add a 4 corners polygon primitive as box body*
4,1,4,$2,$3,$4,$5,$6,$7,$8,$9,$2,$3,0*
0 Add four circle primitives for the rounded corners*
1,1,$1+$1,$2,$3*
1,1,$1+$1,$4,$5*
1,1,$1+$1,$6,$7*
1,1,$1+$1,$8,$9*
0 Add four rect primitives between the rounded corners*
20,1,$1+$1,$2,$3,$4,$5,0*
20,1,$1+$1,$4,$5,$6,$7,0*
20,1,$1+$1,$6,$7,$8,$9,0*
20,1,$1+$1,$8,$9,$2,$3,0*%
G04 Aperture macros list end*
%ADD10RoundRect,0.249600X-0.850400X-0.550400X0.850400X-0.550400X0.850400X0.550400X-0.850400X0.550400X0*%
%ADD11O,2.200000X1.600000*%
%ADD12C,2.000000*%
%ADD13RoundRect,0.225000X0.250000X-0.225000X0.250000X0.225000X-0.250000X0.225000X-0.250000X-0.225000X0*%
%ADD14R,1.650000X0.400000*%
%ADD15R,0.700000X1.825000*%
%ADD16R,1.500000X2.000000*%
%ADD17R,2.000000X1.350000*%
%ADD18O,1.700000X1.350000*%
%ADD19O,1.500000X1.100000*%
%ADD20R,2.500000X1.430000*%
%ADD21RoundRect,0.218750X-0.256250X0.218750X-0.256250X-0.218750X0.256250X-0.218750X0.256250X0.218750X0*%
%ADD22R,0.300000X0.300000*%
%ADD23R,0.300000X0.900000*%
%ADD24R,0.900000X0.300000*%
%ADD25R,1.800000X1.800000*%
%ADD26RoundRect,0.200000X-0.200000X-0.275000X0.200000X-0.275000X0.200000X0.275000X-0.200000X0.275000X0*%
%ADD27RoundRect,0.200000X0.200000X0.275000X-0.200000X0.275000X-0.200000X-0.275000X0.200000X-0.275000X0*%
%ADD28RoundRect,0.225000X-0.250000X0.225000X-0.250000X-0.225000X0.250000X-0.225000X0.250000X0.225000X0*%
%ADD29RoundRect,0.225000X0.225000X0.250000X-0.225000X0.250000X-0.225000X-0.250000X0.225000X-0.250000X0*%
%ADD30RoundRect,0.175000X0.175000X0.325000X-0.175000X0.325000X-0.175000X-0.325000X0.175000X-0.325000X0*%
%ADD31RoundRect,0.150000X0.200000X0.150000X-0.200000X0.150000X-0.200000X-0.150000X0.200000X-0.150000X0*%
%ADD32RoundRect,0.250000X0.550000X-0.550000X0.550000X0.550000X-0.550000X0.550000X-0.550000X-0.550000X0*%
%ADD33C,1.600000*%
G04 APERTURE END LIST*
D10*
%TO.C,J1*%
X41045000Y-21100000D03*
D11*
X41045000Y-23640000D03*
X41045000Y-26180000D03*
X41045000Y-28720000D03*
D12*
X48745000Y-28720000D03*
X48745000Y-21100000D03*
%TD*%
D13*
%TO.C,C4*%
X24234998Y-30670004D03*
X24234998Y-29120004D03*
%TD*%
%TO.C,C10*%
X26565000Y-39930000D03*
X26565004Y-38380004D03*
%TD*%
D14*
%TO.C,J2*%
X22884998Y-22430001D03*
X22885000Y-23080000D03*
X22885003Y-23729998D03*
X22885000Y-24380000D03*
X22885000Y-25030001D03*
D15*
X21685000Y-20780000D03*
D16*
X22985000Y-20880000D03*
D17*
X20935003Y-21000000D03*
D18*
X20005002Y-21000001D03*
D19*
X23004999Y-21310000D03*
D20*
X19735002Y-22770001D03*
X19734997Y-24689998D03*
D19*
X23004998Y-26150000D03*
D18*
X20005000Y-26460000D03*
D17*
X20935001Y-26479999D03*
D16*
X23004997Y-26629997D03*
D15*
X21685003Y-26730000D03*
%TD*%
D21*
%TO.C,L2*%
X32025000Y-36650000D03*
X32025000Y-38225000D03*
%TD*%
D22*
%TO.C,U1*%
X27925001Y-32719997D03*
D23*
X27425000Y-32419999D03*
X26925002Y-32420001D03*
X26424999Y-32419998D03*
X25925000Y-32419998D03*
D22*
X25424998Y-32719996D03*
D24*
X25125000Y-33219997D03*
X25125002Y-33719995D03*
X25124999Y-34219998D03*
X25124999Y-34719997D03*
D22*
X25424997Y-35219999D03*
D23*
X25924998Y-35519997D03*
X26424996Y-35519995D03*
X26924999Y-35519998D03*
X27424998Y-35519998D03*
D22*
X27925000Y-35220000D03*
D24*
X28224998Y-34719999D03*
X28224996Y-34220001D03*
X28224999Y-33719998D03*
X28224999Y-33219999D03*
D25*
X26674999Y-33969998D03*
%TD*%
D26*
%TO.C,R4*%
X33975004Y-27675003D03*
X35625002Y-27674997D03*
%TD*%
D13*
%TO.C,C5*%
X22545000Y-30670000D03*
X22545000Y-29120000D03*
%TD*%
D27*
%TO.C,R3*%
X21954998Y-37309996D03*
X20305000Y-37310000D03*
%TD*%
D28*
%TO.C,C9*%
X33775002Y-36675002D03*
X33774998Y-38224998D03*
%TD*%
D29*
%TO.C,C6*%
X35575000Y-20775000D03*
X34025008Y-20774998D03*
%TD*%
D26*
%TO.C,R6*%
X33975000Y-23074999D03*
X35625000Y-23074999D03*
%TD*%
%TO.C,R2*%
X20305002Y-35670010D03*
X21955000Y-35670000D03*
%TD*%
D27*
%TO.C,R1*%
X24965000Y-38390000D03*
X23315002Y-38390004D03*
%TD*%
D10*
%TO.C,J3*%
X41050000Y-31300000D03*
D11*
X41050000Y-33840000D03*
X41050000Y-36380000D03*
X41050000Y-38920000D03*
D12*
X48750000Y-38920000D03*
X48750000Y-31300000D03*
%TD*%
D29*
%TO.C,C2*%
X21919994Y-33930001D03*
X20370002Y-33929999D03*
%TD*%
%TO.C,C1*%
X21919996Y-32250001D03*
X20370004Y-32249999D03*
%TD*%
D30*
%TO.C,D1*%
X27700000Y-26759999D03*
D31*
X27700002Y-25059994D03*
X25700001Y-25059999D03*
X25700000Y-26960000D03*
%TD*%
D28*
%TO.C,C3*%
X35525002Y-36675002D03*
X35524998Y-38224998D03*
%TD*%
D26*
%TO.C,R5*%
X33975000Y-25375000D03*
X35625000Y-25375000D03*
%TD*%
D32*
%TO.C,U2*%
X37495000Y-40370000D03*
D33*
X34955000Y-40370000D03*
X32415000Y-40370000D03*
X29875000Y-40370000D03*
X29875000Y-32750000D03*
X32415000Y-32750000D03*
X34955000Y-32750000D03*
X37495000Y-32750000D03*
%TD*%
M02*
