M48
; DRILL file {KiCad 8.0.5} date 2025-10-24T23:36:13+0200
; FORMAT={-:-/ absolute / inch / decimal}
; #@! TF.CreationDate,2025-10-24T23:36:13+02:00
; #@! TF.GenerationSoftware,Kicad,Pcbnew,8.0.5
; #@! TF.FileFunction,Plated,1,2,PTH
FMAT,2
INCH
; #@! TA.AperFunction,Plated,PTH,ViaDrill
T1C0.0118
; #@! TA.AperFunction,Plated,PTH,ComponentDrill
T2C0.0256
; #@! TA.AperFunction,Plated,PTH,ComponentDrill
T3C0.0276
; #@! TA.AperFunction,Plated,PTH,ViaDrill
T4C0.0472
; #@! TA.AperFunction,Plated,PTH,ComponentDrill
T5C0.0472
%
G90
G05
T1
X0.7543Y-1.3358
X0.7543Y-1.4693
X0.7547Y-1.2709
X0.7996Y-1.5177
X0.802Y-1.2197
X0.835Y-1.1457
X0.852Y-1.1083
X0.9008Y-1.3083
X0.9685Y-1.0772
X0.9762Y-1.2634
X0.9762Y-1.4573
X0.987Y-1.1043
X0.9906Y-0.9339
X0.9906Y-1.0303
X0.9909Y-1.5732
X1.0209Y-1.4445
X1.0465Y-1.626
X1.0502Y-1.3374
X1.072Y-1.2248
X1.0776Y-1.1374
X1.0866Y-0.9083
X1.0941Y-1.5709
X1.0955Y-1.1
X1.1016Y-1.4528
X1.102Y-1.178
X1.1037Y-1.5096
X1.1272Y-0.8366
X1.1323Y-0.9551
X1.1657Y-1.276
X1.1785Y-1.1067
X1.1803Y-0.7846
X1.2043Y-1.4409
X1.2063Y-1.6268
X1.2134Y-1.3228
X1.2213Y-1.2197
X1.2449Y-1.0827
X1.248Y-0.7858
X1.2535Y-1.152
X1.2685Y-1.6264
X1.274Y-1.4386
X1.2996Y-0.8398
X1.3012Y-1.0252
X1.3213Y-1.5705
X1.5965Y-0.9551
X1.598Y-1.4768
T4
X0.7898Y-0.7217
X0.7898Y-1.6295
X1.7425Y-0.7217
X1.7425Y-1.6295
T5
X1.4283Y-0.8264
X1.4283Y-0.9264
X1.4283Y-1.0264
X1.4283Y-1.1264
X1.4283Y-1.2276
X1.4283Y-1.3276
X1.4283Y-1.4276
X1.4283Y-1.5276
X1.7315Y-0.8264
X1.7315Y-1.1264
X1.7315Y-1.2276
X1.7315Y-1.5276
T2
G00X0.8978Y-1.0295
M15
G01X0.9136Y-1.0295
M16
G05
G00X0.8978Y-0.839
M15
G01X0.9136Y-0.839
M16
G05
T3
G00X0.7778Y-1.0417
M15
G01X0.7974Y-1.0417
M16
G05
G00X0.7778Y-0.8268
M15
G01X0.7974Y-0.8268
M16
G05
M30
