%TF.GenerationSoftware,KiCad,Pcbnew,9.0.4*%
%TF.CreationDate,2025-12-13T14:18:45+01:00*%
%TF.ProjectId,U2O,55324f2e-6b69-4636-9164-5f7063625858,rev?*%
%TF.SameCoordinates,Original*%
%TF.FileFunction,Legend,Bot*%
%TF.FilePolarity,Positive*%
%FSLAX46Y46*%
G04 Gerber Fmt 4.6, Leading zero omitted, Abs format (unit mm)*
G04 Created by KiCad (PCBNEW 9.0.4) date 2025-12-13 14:18:45*
%MOMM*%
%LPD*%
G01*
G04 APERTURE LIST*
%ADD10C,0.150000*%
%ADD11C,0.120000*%
G04 APERTURE END LIST*
D10*
X31659580Y-32682142D02*
X31707200Y-32634523D01*
X31707200Y-32634523D02*
X31754819Y-32491666D01*
X31754819Y-32491666D02*
X31754819Y-32396428D01*
X31754819Y-32396428D02*
X31707200Y-32253571D01*
X31707200Y-32253571D02*
X31611961Y-32158333D01*
X31611961Y-32158333D02*
X31516723Y-32110714D01*
X31516723Y-32110714D02*
X31326247Y-32063095D01*
X31326247Y-32063095D02*
X31183390Y-32063095D01*
X31183390Y-32063095D02*
X30992914Y-32110714D01*
X30992914Y-32110714D02*
X30897676Y-32158333D01*
X30897676Y-32158333D02*
X30802438Y-32253571D01*
X30802438Y-32253571D02*
X30754819Y-32396428D01*
X30754819Y-32396428D02*
X30754819Y-32491666D01*
X30754819Y-32491666D02*
X30802438Y-32634523D01*
X30802438Y-32634523D02*
X30850057Y-32682142D01*
X31754819Y-33634523D02*
X31754819Y-33063095D01*
X31754819Y-33348809D02*
X30754819Y-33348809D01*
X30754819Y-33348809D02*
X30897676Y-33253571D01*
X30897676Y-33253571D02*
X30992914Y-33158333D01*
X30992914Y-33158333D02*
X31040533Y-33063095D01*
X31754819Y-34586904D02*
X31754819Y-34015476D01*
X31754819Y-34301190D02*
X30754819Y-34301190D01*
X30754819Y-34301190D02*
X30897676Y-34205952D01*
X30897676Y-34205952D02*
X30992914Y-34110714D01*
X30992914Y-34110714D02*
X31040533Y-34015476D01*
X33334580Y-32807142D02*
X33382200Y-32759523D01*
X33382200Y-32759523D02*
X33429819Y-32616666D01*
X33429819Y-32616666D02*
X33429819Y-32521428D01*
X33429819Y-32521428D02*
X33382200Y-32378571D01*
X33382200Y-32378571D02*
X33286961Y-32283333D01*
X33286961Y-32283333D02*
X33191723Y-32235714D01*
X33191723Y-32235714D02*
X33001247Y-32188095D01*
X33001247Y-32188095D02*
X32858390Y-32188095D01*
X32858390Y-32188095D02*
X32667914Y-32235714D01*
X32667914Y-32235714D02*
X32572676Y-32283333D01*
X32572676Y-32283333D02*
X32477438Y-32378571D01*
X32477438Y-32378571D02*
X32429819Y-32521428D01*
X32429819Y-32521428D02*
X32429819Y-32616666D01*
X32429819Y-32616666D02*
X32477438Y-32759523D01*
X32477438Y-32759523D02*
X32525057Y-32807142D01*
X33429819Y-33759523D02*
X33429819Y-33188095D01*
X33429819Y-33473809D02*
X32429819Y-33473809D01*
X32429819Y-33473809D02*
X32572676Y-33378571D01*
X32572676Y-33378571D02*
X32667914Y-33283333D01*
X32667914Y-33283333D02*
X32715533Y-33188095D01*
X32525057Y-34140476D02*
X32477438Y-34188095D01*
X32477438Y-34188095D02*
X32429819Y-34283333D01*
X32429819Y-34283333D02*
X32429819Y-34521428D01*
X32429819Y-34521428D02*
X32477438Y-34616666D01*
X32477438Y-34616666D02*
X32525057Y-34664285D01*
X32525057Y-34664285D02*
X32620295Y-34711904D01*
X32620295Y-34711904D02*
X32715533Y-34711904D01*
X32715533Y-34711904D02*
X32858390Y-34664285D01*
X32858390Y-34664285D02*
X33429819Y-34092857D01*
X33429819Y-34092857D02*
X33429819Y-34711904D01*
X38911904Y-41854819D02*
X38911904Y-42664342D01*
X38911904Y-42664342D02*
X38864285Y-42759580D01*
X38864285Y-42759580D02*
X38816666Y-42807200D01*
X38816666Y-42807200D02*
X38721428Y-42854819D01*
X38721428Y-42854819D02*
X38530952Y-42854819D01*
X38530952Y-42854819D02*
X38435714Y-42807200D01*
X38435714Y-42807200D02*
X38388095Y-42759580D01*
X38388095Y-42759580D02*
X38340476Y-42664342D01*
X38340476Y-42664342D02*
X38340476Y-41854819D01*
X37911904Y-41950057D02*
X37864285Y-41902438D01*
X37864285Y-41902438D02*
X37769047Y-41854819D01*
X37769047Y-41854819D02*
X37530952Y-41854819D01*
X37530952Y-41854819D02*
X37435714Y-41902438D01*
X37435714Y-41902438D02*
X37388095Y-41950057D01*
X37388095Y-41950057D02*
X37340476Y-42045295D01*
X37340476Y-42045295D02*
X37340476Y-42140533D01*
X37340476Y-42140533D02*
X37388095Y-42283390D01*
X37388095Y-42283390D02*
X37959523Y-42854819D01*
X37959523Y-42854819D02*
X37340476Y-42854819D01*
D11*
%TO.C,C11*%
X30715000Y-29609420D02*
X30715000Y-29890580D01*
X31735000Y-29609420D02*
X31735000Y-29890580D01*
%TO.C,C12*%
X32465000Y-29890580D02*
X32465000Y-29609420D01*
X33485000Y-29890580D02*
X33485000Y-29609420D01*
%TO.C,U2*%
X28545000Y-33910000D02*
X38825000Y-33910000D01*
X28545000Y-39210000D02*
X28545000Y-33910000D01*
X38825000Y-33910000D02*
X38825000Y-35560000D01*
X38825000Y-37560000D02*
X38825000Y-39210000D01*
X38825000Y-39210000D02*
X28545000Y-39210000D01*
X38825000Y-37560000D02*
G75*
G02*
X38825000Y-35560000I0J1000000D01*
G01*
%TD*%
M02*
