%TF.GenerationSoftware,KiCad,Pcbnew,9.0.4*%
%TF.CreationDate,2025-12-13T14:18:45+01:00*%
%TF.ProjectId,U2O,55324f2e-6b69-4636-9164-5f7063625858,rev?*%
%TF.SameCoordinates,Original*%
%TF.FileFunction,Legend,Top*%
%TF.FilePolarity,Positive*%
%FSLAX46Y46*%
G04 Gerber Fmt 4.6, Leading zero omitted, Abs format (unit mm)*
G04 Created by KiCad (PCBNEW 9.0.4) date 2025-12-13 14:18:45*
%MOMM*%
%LPD*%
G01*
G04 APERTURE LIST*
%ADD10C,0.150000*%
%ADD11C,0.120000*%
G04 APERTURE END LIST*
D10*
X38266666Y-18274819D02*
X38266666Y-18989104D01*
X38266666Y-18989104D02*
X38219047Y-19131961D01*
X38219047Y-19131961D02*
X38123809Y-19227200D01*
X38123809Y-19227200D02*
X37980952Y-19274819D01*
X37980952Y-19274819D02*
X37885714Y-19274819D01*
X39266666Y-19274819D02*
X38695238Y-19274819D01*
X38980952Y-19274819D02*
X38980952Y-18274819D01*
X38980952Y-18274819D02*
X38885714Y-18417676D01*
X38885714Y-18417676D02*
X38790476Y-18512914D01*
X38790476Y-18512914D02*
X38695238Y-18560533D01*
X25759580Y-30166666D02*
X25807200Y-30214285D01*
X25807200Y-30214285D02*
X25854819Y-30357142D01*
X25854819Y-30357142D02*
X25854819Y-30452380D01*
X25854819Y-30452380D02*
X25807200Y-30595237D01*
X25807200Y-30595237D02*
X25711961Y-30690475D01*
X25711961Y-30690475D02*
X25616723Y-30738094D01*
X25616723Y-30738094D02*
X25426247Y-30785713D01*
X25426247Y-30785713D02*
X25283390Y-30785713D01*
X25283390Y-30785713D02*
X25092914Y-30738094D01*
X25092914Y-30738094D02*
X24997676Y-30690475D01*
X24997676Y-30690475D02*
X24902438Y-30595237D01*
X24902438Y-30595237D02*
X24854819Y-30452380D01*
X24854819Y-30452380D02*
X24854819Y-30357142D01*
X24854819Y-30357142D02*
X24902438Y-30214285D01*
X24902438Y-30214285D02*
X24950057Y-30166666D01*
X25188152Y-29309523D02*
X25854819Y-29309523D01*
X24807200Y-29547618D02*
X25521485Y-29785713D01*
X25521485Y-29785713D02*
X25521485Y-29166666D01*
X25957142Y-41834580D02*
X25909523Y-41882200D01*
X25909523Y-41882200D02*
X25766666Y-41929819D01*
X25766666Y-41929819D02*
X25671428Y-41929819D01*
X25671428Y-41929819D02*
X25528571Y-41882200D01*
X25528571Y-41882200D02*
X25433333Y-41786961D01*
X25433333Y-41786961D02*
X25385714Y-41691723D01*
X25385714Y-41691723D02*
X25338095Y-41501247D01*
X25338095Y-41501247D02*
X25338095Y-41358390D01*
X25338095Y-41358390D02*
X25385714Y-41167914D01*
X25385714Y-41167914D02*
X25433333Y-41072676D01*
X25433333Y-41072676D02*
X25528571Y-40977438D01*
X25528571Y-40977438D02*
X25671428Y-40929819D01*
X25671428Y-40929819D02*
X25766666Y-40929819D01*
X25766666Y-40929819D02*
X25909523Y-40977438D01*
X25909523Y-40977438D02*
X25957142Y-41025057D01*
X26909523Y-41929819D02*
X26338095Y-41929819D01*
X26623809Y-41929819D02*
X26623809Y-40929819D01*
X26623809Y-40929819D02*
X26528571Y-41072676D01*
X26528571Y-41072676D02*
X26433333Y-41167914D01*
X26433333Y-41167914D02*
X26338095Y-41215533D01*
X27528571Y-40929819D02*
X27623809Y-40929819D01*
X27623809Y-40929819D02*
X27719047Y-40977438D01*
X27719047Y-40977438D02*
X27766666Y-41025057D01*
X27766666Y-41025057D02*
X27814285Y-41120295D01*
X27814285Y-41120295D02*
X27861904Y-41310771D01*
X27861904Y-41310771D02*
X27861904Y-41548866D01*
X27861904Y-41548866D02*
X27814285Y-41739342D01*
X27814285Y-41739342D02*
X27766666Y-41834580D01*
X27766666Y-41834580D02*
X27719047Y-41882200D01*
X27719047Y-41882200D02*
X27623809Y-41929819D01*
X27623809Y-41929819D02*
X27528571Y-41929819D01*
X27528571Y-41929819D02*
X27433333Y-41882200D01*
X27433333Y-41882200D02*
X27385714Y-41834580D01*
X27385714Y-41834580D02*
X27338095Y-41739342D01*
X27338095Y-41739342D02*
X27290476Y-41548866D01*
X27290476Y-41548866D02*
X27290476Y-41310771D01*
X27290476Y-41310771D02*
X27338095Y-41120295D01*
X27338095Y-41120295D02*
X27385714Y-41025057D01*
X27385714Y-41025057D02*
X27433333Y-40977438D01*
X27433333Y-40977438D02*
X27528571Y-40929819D01*
X23066666Y-17954819D02*
X23066666Y-18669104D01*
X23066666Y-18669104D02*
X23019047Y-18811961D01*
X23019047Y-18811961D02*
X22923809Y-18907200D01*
X22923809Y-18907200D02*
X22780952Y-18954819D01*
X22780952Y-18954819D02*
X22685714Y-18954819D01*
X23495238Y-18050057D02*
X23542857Y-18002438D01*
X23542857Y-18002438D02*
X23638095Y-17954819D01*
X23638095Y-17954819D02*
X23876190Y-17954819D01*
X23876190Y-17954819D02*
X23971428Y-18002438D01*
X23971428Y-18002438D02*
X24019047Y-18050057D01*
X24019047Y-18050057D02*
X24066666Y-18145295D01*
X24066666Y-18145295D02*
X24066666Y-18240533D01*
X24066666Y-18240533D02*
X24019047Y-18383390D01*
X24019047Y-18383390D02*
X23447619Y-18954819D01*
X23447619Y-18954819D02*
X24066666Y-18954819D01*
X30133333Y-37854819D02*
X29657143Y-37854819D01*
X29657143Y-37854819D02*
X29657143Y-36854819D01*
X30419048Y-36950057D02*
X30466667Y-36902438D01*
X30466667Y-36902438D02*
X30561905Y-36854819D01*
X30561905Y-36854819D02*
X30800000Y-36854819D01*
X30800000Y-36854819D02*
X30895238Y-36902438D01*
X30895238Y-36902438D02*
X30942857Y-36950057D01*
X30942857Y-36950057D02*
X30990476Y-37045295D01*
X30990476Y-37045295D02*
X30990476Y-37140533D01*
X30990476Y-37140533D02*
X30942857Y-37283390D01*
X30942857Y-37283390D02*
X30371429Y-37854819D01*
X30371429Y-37854819D02*
X30990476Y-37854819D01*
X27413095Y-36454819D02*
X27413095Y-37264342D01*
X27413095Y-37264342D02*
X27460714Y-37359580D01*
X27460714Y-37359580D02*
X27508333Y-37407200D01*
X27508333Y-37407200D02*
X27603571Y-37454819D01*
X27603571Y-37454819D02*
X27794047Y-37454819D01*
X27794047Y-37454819D02*
X27889285Y-37407200D01*
X27889285Y-37407200D02*
X27936904Y-37359580D01*
X27936904Y-37359580D02*
X27984523Y-37264342D01*
X27984523Y-37264342D02*
X27984523Y-36454819D01*
X28984523Y-37454819D02*
X28413095Y-37454819D01*
X28698809Y-37454819D02*
X28698809Y-36454819D01*
X28698809Y-36454819D02*
X28603571Y-36597676D01*
X28603571Y-36597676D02*
X28508333Y-36692914D01*
X28508333Y-36692914D02*
X28413095Y-36740533D01*
X37308333Y-28229819D02*
X36975000Y-27753628D01*
X36736905Y-28229819D02*
X36736905Y-27229819D01*
X36736905Y-27229819D02*
X37117857Y-27229819D01*
X37117857Y-27229819D02*
X37213095Y-27277438D01*
X37213095Y-27277438D02*
X37260714Y-27325057D01*
X37260714Y-27325057D02*
X37308333Y-27420295D01*
X37308333Y-27420295D02*
X37308333Y-27563152D01*
X37308333Y-27563152D02*
X37260714Y-27658390D01*
X37260714Y-27658390D02*
X37213095Y-27706009D01*
X37213095Y-27706009D02*
X37117857Y-27753628D01*
X37117857Y-27753628D02*
X36736905Y-27753628D01*
X38165476Y-27563152D02*
X38165476Y-28229819D01*
X37927381Y-27182200D02*
X37689286Y-27896485D01*
X37689286Y-27896485D02*
X38308333Y-27896485D01*
X20983333Y-29409580D02*
X20935714Y-29457200D01*
X20935714Y-29457200D02*
X20792857Y-29504819D01*
X20792857Y-29504819D02*
X20697619Y-29504819D01*
X20697619Y-29504819D02*
X20554762Y-29457200D01*
X20554762Y-29457200D02*
X20459524Y-29361961D01*
X20459524Y-29361961D02*
X20411905Y-29266723D01*
X20411905Y-29266723D02*
X20364286Y-29076247D01*
X20364286Y-29076247D02*
X20364286Y-28933390D01*
X20364286Y-28933390D02*
X20411905Y-28742914D01*
X20411905Y-28742914D02*
X20459524Y-28647676D01*
X20459524Y-28647676D02*
X20554762Y-28552438D01*
X20554762Y-28552438D02*
X20697619Y-28504819D01*
X20697619Y-28504819D02*
X20792857Y-28504819D01*
X20792857Y-28504819D02*
X20935714Y-28552438D01*
X20935714Y-28552438D02*
X20983333Y-28600057D01*
X21888095Y-28504819D02*
X21411905Y-28504819D01*
X21411905Y-28504819D02*
X21364286Y-28981009D01*
X21364286Y-28981009D02*
X21411905Y-28933390D01*
X21411905Y-28933390D02*
X21507143Y-28885771D01*
X21507143Y-28885771D02*
X21745238Y-28885771D01*
X21745238Y-28885771D02*
X21840476Y-28933390D01*
X21840476Y-28933390D02*
X21888095Y-28981009D01*
X21888095Y-28981009D02*
X21935714Y-29076247D01*
X21935714Y-29076247D02*
X21935714Y-29314342D01*
X21935714Y-29314342D02*
X21888095Y-29409580D01*
X21888095Y-29409580D02*
X21840476Y-29457200D01*
X21840476Y-29457200D02*
X21745238Y-29504819D01*
X21745238Y-29504819D02*
X21507143Y-29504819D01*
X21507143Y-29504819D02*
X21411905Y-29457200D01*
X21411905Y-29457200D02*
X21364286Y-29409580D01*
X21358333Y-39254819D02*
X21025000Y-38778628D01*
X20786905Y-39254819D02*
X20786905Y-38254819D01*
X20786905Y-38254819D02*
X21167857Y-38254819D01*
X21167857Y-38254819D02*
X21263095Y-38302438D01*
X21263095Y-38302438D02*
X21310714Y-38350057D01*
X21310714Y-38350057D02*
X21358333Y-38445295D01*
X21358333Y-38445295D02*
X21358333Y-38588152D01*
X21358333Y-38588152D02*
X21310714Y-38683390D01*
X21310714Y-38683390D02*
X21263095Y-38731009D01*
X21263095Y-38731009D02*
X21167857Y-38778628D01*
X21167857Y-38778628D02*
X20786905Y-38778628D01*
X21691667Y-38254819D02*
X22310714Y-38254819D01*
X22310714Y-38254819D02*
X21977381Y-38635771D01*
X21977381Y-38635771D02*
X22120238Y-38635771D01*
X22120238Y-38635771D02*
X22215476Y-38683390D01*
X22215476Y-38683390D02*
X22263095Y-38731009D01*
X22263095Y-38731009D02*
X22310714Y-38826247D01*
X22310714Y-38826247D02*
X22310714Y-39064342D01*
X22310714Y-39064342D02*
X22263095Y-39159580D01*
X22263095Y-39159580D02*
X22215476Y-39207200D01*
X22215476Y-39207200D02*
X22120238Y-39254819D01*
X22120238Y-39254819D02*
X21834524Y-39254819D01*
X21834524Y-39254819D02*
X21739286Y-39207200D01*
X21739286Y-39207200D02*
X21691667Y-39159580D01*
X33558333Y-36134580D02*
X33510714Y-36182200D01*
X33510714Y-36182200D02*
X33367857Y-36229819D01*
X33367857Y-36229819D02*
X33272619Y-36229819D01*
X33272619Y-36229819D02*
X33129762Y-36182200D01*
X33129762Y-36182200D02*
X33034524Y-36086961D01*
X33034524Y-36086961D02*
X32986905Y-35991723D01*
X32986905Y-35991723D02*
X32939286Y-35801247D01*
X32939286Y-35801247D02*
X32939286Y-35658390D01*
X32939286Y-35658390D02*
X32986905Y-35467914D01*
X32986905Y-35467914D02*
X33034524Y-35372676D01*
X33034524Y-35372676D02*
X33129762Y-35277438D01*
X33129762Y-35277438D02*
X33272619Y-35229819D01*
X33272619Y-35229819D02*
X33367857Y-35229819D01*
X33367857Y-35229819D02*
X33510714Y-35277438D01*
X33510714Y-35277438D02*
X33558333Y-35325057D01*
X34034524Y-36229819D02*
X34225000Y-36229819D01*
X34225000Y-36229819D02*
X34320238Y-36182200D01*
X34320238Y-36182200D02*
X34367857Y-36134580D01*
X34367857Y-36134580D02*
X34463095Y-35991723D01*
X34463095Y-35991723D02*
X34510714Y-35801247D01*
X34510714Y-35801247D02*
X34510714Y-35420295D01*
X34510714Y-35420295D02*
X34463095Y-35325057D01*
X34463095Y-35325057D02*
X34415476Y-35277438D01*
X34415476Y-35277438D02*
X34320238Y-35229819D01*
X34320238Y-35229819D02*
X34129762Y-35229819D01*
X34129762Y-35229819D02*
X34034524Y-35277438D01*
X34034524Y-35277438D02*
X33986905Y-35325057D01*
X33986905Y-35325057D02*
X33939286Y-35420295D01*
X33939286Y-35420295D02*
X33939286Y-35658390D01*
X33939286Y-35658390D02*
X33986905Y-35753628D01*
X33986905Y-35753628D02*
X34034524Y-35801247D01*
X34034524Y-35801247D02*
X34129762Y-35848866D01*
X34129762Y-35848866D02*
X34320238Y-35848866D01*
X34320238Y-35848866D02*
X34415476Y-35801247D01*
X34415476Y-35801247D02*
X34463095Y-35753628D01*
X34463095Y-35753628D02*
X34510714Y-35658390D01*
X31833333Y-21084580D02*
X31785714Y-21132200D01*
X31785714Y-21132200D02*
X31642857Y-21179819D01*
X31642857Y-21179819D02*
X31547619Y-21179819D01*
X31547619Y-21179819D02*
X31404762Y-21132200D01*
X31404762Y-21132200D02*
X31309524Y-21036961D01*
X31309524Y-21036961D02*
X31261905Y-20941723D01*
X31261905Y-20941723D02*
X31214286Y-20751247D01*
X31214286Y-20751247D02*
X31214286Y-20608390D01*
X31214286Y-20608390D02*
X31261905Y-20417914D01*
X31261905Y-20417914D02*
X31309524Y-20322676D01*
X31309524Y-20322676D02*
X31404762Y-20227438D01*
X31404762Y-20227438D02*
X31547619Y-20179819D01*
X31547619Y-20179819D02*
X31642857Y-20179819D01*
X31642857Y-20179819D02*
X31785714Y-20227438D01*
X31785714Y-20227438D02*
X31833333Y-20275057D01*
X32690476Y-20179819D02*
X32500000Y-20179819D01*
X32500000Y-20179819D02*
X32404762Y-20227438D01*
X32404762Y-20227438D02*
X32357143Y-20275057D01*
X32357143Y-20275057D02*
X32261905Y-20417914D01*
X32261905Y-20417914D02*
X32214286Y-20608390D01*
X32214286Y-20608390D02*
X32214286Y-20989342D01*
X32214286Y-20989342D02*
X32261905Y-21084580D01*
X32261905Y-21084580D02*
X32309524Y-21132200D01*
X32309524Y-21132200D02*
X32404762Y-21179819D01*
X32404762Y-21179819D02*
X32595238Y-21179819D01*
X32595238Y-21179819D02*
X32690476Y-21132200D01*
X32690476Y-21132200D02*
X32738095Y-21084580D01*
X32738095Y-21084580D02*
X32785714Y-20989342D01*
X32785714Y-20989342D02*
X32785714Y-20751247D01*
X32785714Y-20751247D02*
X32738095Y-20656009D01*
X32738095Y-20656009D02*
X32690476Y-20608390D01*
X32690476Y-20608390D02*
X32595238Y-20560771D01*
X32595238Y-20560771D02*
X32404762Y-20560771D01*
X32404762Y-20560771D02*
X32309524Y-20608390D01*
X32309524Y-20608390D02*
X32261905Y-20656009D01*
X32261905Y-20656009D02*
X32214286Y-20751247D01*
X31833333Y-23554819D02*
X31500000Y-23078628D01*
X31261905Y-23554819D02*
X31261905Y-22554819D01*
X31261905Y-22554819D02*
X31642857Y-22554819D01*
X31642857Y-22554819D02*
X31738095Y-22602438D01*
X31738095Y-22602438D02*
X31785714Y-22650057D01*
X31785714Y-22650057D02*
X31833333Y-22745295D01*
X31833333Y-22745295D02*
X31833333Y-22888152D01*
X31833333Y-22888152D02*
X31785714Y-22983390D01*
X31785714Y-22983390D02*
X31738095Y-23031009D01*
X31738095Y-23031009D02*
X31642857Y-23078628D01*
X31642857Y-23078628D02*
X31261905Y-23078628D01*
X32690476Y-22554819D02*
X32500000Y-22554819D01*
X32500000Y-22554819D02*
X32404762Y-22602438D01*
X32404762Y-22602438D02*
X32357143Y-22650057D01*
X32357143Y-22650057D02*
X32261905Y-22792914D01*
X32261905Y-22792914D02*
X32214286Y-22983390D01*
X32214286Y-22983390D02*
X32214286Y-23364342D01*
X32214286Y-23364342D02*
X32261905Y-23459580D01*
X32261905Y-23459580D02*
X32309524Y-23507200D01*
X32309524Y-23507200D02*
X32404762Y-23554819D01*
X32404762Y-23554819D02*
X32595238Y-23554819D01*
X32595238Y-23554819D02*
X32690476Y-23507200D01*
X32690476Y-23507200D02*
X32738095Y-23459580D01*
X32738095Y-23459580D02*
X32785714Y-23364342D01*
X32785714Y-23364342D02*
X32785714Y-23126247D01*
X32785714Y-23126247D02*
X32738095Y-23031009D01*
X32738095Y-23031009D02*
X32690476Y-22983390D01*
X32690476Y-22983390D02*
X32595238Y-22935771D01*
X32595238Y-22935771D02*
X32404762Y-22935771D01*
X32404762Y-22935771D02*
X32309524Y-22983390D01*
X32309524Y-22983390D02*
X32261905Y-23031009D01*
X32261905Y-23031009D02*
X32214286Y-23126247D01*
X19729819Y-35836671D02*
X19253628Y-36170004D01*
X19729819Y-36408099D02*
X18729819Y-36408099D01*
X18729819Y-36408099D02*
X18729819Y-36027147D01*
X18729819Y-36027147D02*
X18777438Y-35931909D01*
X18777438Y-35931909D02*
X18825057Y-35884290D01*
X18825057Y-35884290D02*
X18920295Y-35836671D01*
X18920295Y-35836671D02*
X19063152Y-35836671D01*
X19063152Y-35836671D02*
X19158390Y-35884290D01*
X19158390Y-35884290D02*
X19206009Y-35931909D01*
X19206009Y-35931909D02*
X19253628Y-36027147D01*
X19253628Y-36027147D02*
X19253628Y-36408099D01*
X18825057Y-35455718D02*
X18777438Y-35408099D01*
X18777438Y-35408099D02*
X18729819Y-35312861D01*
X18729819Y-35312861D02*
X18729819Y-35074766D01*
X18729819Y-35074766D02*
X18777438Y-34979528D01*
X18777438Y-34979528D02*
X18825057Y-34931909D01*
X18825057Y-34931909D02*
X18920295Y-34884290D01*
X18920295Y-34884290D02*
X19015533Y-34884290D01*
X19015533Y-34884290D02*
X19158390Y-34931909D01*
X19158390Y-34931909D02*
X19729819Y-35503337D01*
X19729819Y-35503337D02*
X19729819Y-34884290D01*
X23973334Y-40274821D02*
X23640001Y-39798630D01*
X23401906Y-40274821D02*
X23401906Y-39274821D01*
X23401906Y-39274821D02*
X23782858Y-39274821D01*
X23782858Y-39274821D02*
X23878096Y-39322440D01*
X23878096Y-39322440D02*
X23925715Y-39370059D01*
X23925715Y-39370059D02*
X23973334Y-39465297D01*
X23973334Y-39465297D02*
X23973334Y-39608154D01*
X23973334Y-39608154D02*
X23925715Y-39703392D01*
X23925715Y-39703392D02*
X23878096Y-39751011D01*
X23878096Y-39751011D02*
X23782858Y-39798630D01*
X23782858Y-39798630D02*
X23401906Y-39798630D01*
X24925715Y-40274821D02*
X24354287Y-40274821D01*
X24640001Y-40274821D02*
X24640001Y-39274821D01*
X24640001Y-39274821D02*
X24544763Y-39417678D01*
X24544763Y-39417678D02*
X24449525Y-39512916D01*
X24449525Y-39512916D02*
X24354287Y-39560535D01*
X39446666Y-40754819D02*
X39446666Y-41469104D01*
X39446666Y-41469104D02*
X39399047Y-41611961D01*
X39399047Y-41611961D02*
X39303809Y-41707200D01*
X39303809Y-41707200D02*
X39160952Y-41754819D01*
X39160952Y-41754819D02*
X39065714Y-41754819D01*
X39827619Y-40754819D02*
X40446666Y-40754819D01*
X40446666Y-40754819D02*
X40113333Y-41135771D01*
X40113333Y-41135771D02*
X40256190Y-41135771D01*
X40256190Y-41135771D02*
X40351428Y-41183390D01*
X40351428Y-41183390D02*
X40399047Y-41231009D01*
X40399047Y-41231009D02*
X40446666Y-41326247D01*
X40446666Y-41326247D02*
X40446666Y-41564342D01*
X40446666Y-41564342D02*
X40399047Y-41659580D01*
X40399047Y-41659580D02*
X40351428Y-41707200D01*
X40351428Y-41707200D02*
X40256190Y-41754819D01*
X40256190Y-41754819D02*
X39970476Y-41754819D01*
X39970476Y-41754819D02*
X39875238Y-41707200D01*
X39875238Y-41707200D02*
X39827619Y-41659580D01*
X23373333Y-34489580D02*
X23325714Y-34537200D01*
X23325714Y-34537200D02*
X23182857Y-34584819D01*
X23182857Y-34584819D02*
X23087619Y-34584819D01*
X23087619Y-34584819D02*
X22944762Y-34537200D01*
X22944762Y-34537200D02*
X22849524Y-34441961D01*
X22849524Y-34441961D02*
X22801905Y-34346723D01*
X22801905Y-34346723D02*
X22754286Y-34156247D01*
X22754286Y-34156247D02*
X22754286Y-34013390D01*
X22754286Y-34013390D02*
X22801905Y-33822914D01*
X22801905Y-33822914D02*
X22849524Y-33727676D01*
X22849524Y-33727676D02*
X22944762Y-33632438D01*
X22944762Y-33632438D02*
X23087619Y-33584819D01*
X23087619Y-33584819D02*
X23182857Y-33584819D01*
X23182857Y-33584819D02*
X23325714Y-33632438D01*
X23325714Y-33632438D02*
X23373333Y-33680057D01*
X23754286Y-33680057D02*
X23801905Y-33632438D01*
X23801905Y-33632438D02*
X23897143Y-33584819D01*
X23897143Y-33584819D02*
X24135238Y-33584819D01*
X24135238Y-33584819D02*
X24230476Y-33632438D01*
X24230476Y-33632438D02*
X24278095Y-33680057D01*
X24278095Y-33680057D02*
X24325714Y-33775295D01*
X24325714Y-33775295D02*
X24325714Y-33870533D01*
X24325714Y-33870533D02*
X24278095Y-34013390D01*
X24278095Y-34013390D02*
X23706667Y-34584819D01*
X23706667Y-34584819D02*
X24325714Y-34584819D01*
X20058333Y-31284580D02*
X20010714Y-31332200D01*
X20010714Y-31332200D02*
X19867857Y-31379819D01*
X19867857Y-31379819D02*
X19772619Y-31379819D01*
X19772619Y-31379819D02*
X19629762Y-31332200D01*
X19629762Y-31332200D02*
X19534524Y-31236961D01*
X19534524Y-31236961D02*
X19486905Y-31141723D01*
X19486905Y-31141723D02*
X19439286Y-30951247D01*
X19439286Y-30951247D02*
X19439286Y-30808390D01*
X19439286Y-30808390D02*
X19486905Y-30617914D01*
X19486905Y-30617914D02*
X19534524Y-30522676D01*
X19534524Y-30522676D02*
X19629762Y-30427438D01*
X19629762Y-30427438D02*
X19772619Y-30379819D01*
X19772619Y-30379819D02*
X19867857Y-30379819D01*
X19867857Y-30379819D02*
X20010714Y-30427438D01*
X20010714Y-30427438D02*
X20058333Y-30475057D01*
X21010714Y-31379819D02*
X20439286Y-31379819D01*
X20725000Y-31379819D02*
X20725000Y-30379819D01*
X20725000Y-30379819D02*
X20629762Y-30522676D01*
X20629762Y-30522676D02*
X20534524Y-30617914D01*
X20534524Y-30617914D02*
X20439286Y-30665533D01*
X26986905Y-23654819D02*
X26986905Y-22654819D01*
X26986905Y-22654819D02*
X27225000Y-22654819D01*
X27225000Y-22654819D02*
X27367857Y-22702438D01*
X27367857Y-22702438D02*
X27463095Y-22797676D01*
X27463095Y-22797676D02*
X27510714Y-22892914D01*
X27510714Y-22892914D02*
X27558333Y-23083390D01*
X27558333Y-23083390D02*
X27558333Y-23226247D01*
X27558333Y-23226247D02*
X27510714Y-23416723D01*
X27510714Y-23416723D02*
X27463095Y-23511961D01*
X27463095Y-23511961D02*
X27367857Y-23607200D01*
X27367857Y-23607200D02*
X27225000Y-23654819D01*
X27225000Y-23654819D02*
X26986905Y-23654819D01*
X28510714Y-23654819D02*
X27939286Y-23654819D01*
X28225000Y-23654819D02*
X28225000Y-22654819D01*
X28225000Y-22654819D02*
X28129762Y-22797676D01*
X28129762Y-22797676D02*
X28034524Y-22892914D01*
X28034524Y-22892914D02*
X27939286Y-22940533D01*
X37083333Y-37259580D02*
X37035714Y-37307200D01*
X37035714Y-37307200D02*
X36892857Y-37354819D01*
X36892857Y-37354819D02*
X36797619Y-37354819D01*
X36797619Y-37354819D02*
X36654762Y-37307200D01*
X36654762Y-37307200D02*
X36559524Y-37211961D01*
X36559524Y-37211961D02*
X36511905Y-37116723D01*
X36511905Y-37116723D02*
X36464286Y-36926247D01*
X36464286Y-36926247D02*
X36464286Y-36783390D01*
X36464286Y-36783390D02*
X36511905Y-36592914D01*
X36511905Y-36592914D02*
X36559524Y-36497676D01*
X36559524Y-36497676D02*
X36654762Y-36402438D01*
X36654762Y-36402438D02*
X36797619Y-36354819D01*
X36797619Y-36354819D02*
X36892857Y-36354819D01*
X36892857Y-36354819D02*
X37035714Y-36402438D01*
X37035714Y-36402438D02*
X37083333Y-36450057D01*
X37416667Y-36354819D02*
X38035714Y-36354819D01*
X38035714Y-36354819D02*
X37702381Y-36735771D01*
X37702381Y-36735771D02*
X37845238Y-36735771D01*
X37845238Y-36735771D02*
X37940476Y-36783390D01*
X37940476Y-36783390D02*
X37988095Y-36831009D01*
X37988095Y-36831009D02*
X38035714Y-36926247D01*
X38035714Y-36926247D02*
X38035714Y-37164342D01*
X38035714Y-37164342D02*
X37988095Y-37259580D01*
X37988095Y-37259580D02*
X37940476Y-37307200D01*
X37940476Y-37307200D02*
X37845238Y-37354819D01*
X37845238Y-37354819D02*
X37559524Y-37354819D01*
X37559524Y-37354819D02*
X37464286Y-37307200D01*
X37464286Y-37307200D02*
X37416667Y-37259580D01*
X31758333Y-25879819D02*
X31425000Y-25403628D01*
X31186905Y-25879819D02*
X31186905Y-24879819D01*
X31186905Y-24879819D02*
X31567857Y-24879819D01*
X31567857Y-24879819D02*
X31663095Y-24927438D01*
X31663095Y-24927438D02*
X31710714Y-24975057D01*
X31710714Y-24975057D02*
X31758333Y-25070295D01*
X31758333Y-25070295D02*
X31758333Y-25213152D01*
X31758333Y-25213152D02*
X31710714Y-25308390D01*
X31710714Y-25308390D02*
X31663095Y-25356009D01*
X31663095Y-25356009D02*
X31567857Y-25403628D01*
X31567857Y-25403628D02*
X31186905Y-25403628D01*
X32663095Y-24879819D02*
X32186905Y-24879819D01*
X32186905Y-24879819D02*
X32139286Y-25356009D01*
X32139286Y-25356009D02*
X32186905Y-25308390D01*
X32186905Y-25308390D02*
X32282143Y-25260771D01*
X32282143Y-25260771D02*
X32520238Y-25260771D01*
X32520238Y-25260771D02*
X32615476Y-25308390D01*
X32615476Y-25308390D02*
X32663095Y-25356009D01*
X32663095Y-25356009D02*
X32710714Y-25451247D01*
X32710714Y-25451247D02*
X32710714Y-25689342D01*
X32710714Y-25689342D02*
X32663095Y-25784580D01*
X32663095Y-25784580D02*
X32615476Y-25832200D01*
X32615476Y-25832200D02*
X32520238Y-25879819D01*
X32520238Y-25879819D02*
X32282143Y-25879819D01*
X32282143Y-25879819D02*
X32186905Y-25832200D01*
X32186905Y-25832200D02*
X32139286Y-25784580D01*
D11*
%TO.C,J1*%
X38125000Y-19690000D02*
X45505000Y-19690000D01*
X38125000Y-19703000D02*
X38125000Y-20930000D01*
X38125000Y-20930000D02*
X38625000Y-20930000D01*
X38125000Y-24290000D02*
X38125000Y-25530000D01*
X38125000Y-25530000D02*
X38625000Y-25530000D01*
X38125000Y-28890000D02*
X38125000Y-30130000D01*
X38125000Y-30130000D02*
X50445000Y-30130000D01*
X38625000Y-20930000D02*
X38625000Y-24290000D01*
X38625000Y-24290000D02*
X38125000Y-24290000D01*
X38625000Y-25530000D02*
X38625000Y-28890000D01*
X38625000Y-28890000D02*
X38125000Y-28890000D01*
X40045000Y-19430000D02*
X42045000Y-19430000D01*
X45505000Y-18190000D02*
X45505000Y-19690000D01*
X46355000Y-19330000D02*
X47015000Y-19330000D01*
X46355000Y-19690000D02*
X46355000Y-19330000D01*
X47015000Y-18190000D02*
X45505000Y-18190000D01*
X47015000Y-19330000D02*
X47015000Y-18190000D01*
X50445000Y-19690000D02*
X46375000Y-19690000D01*
X50445000Y-30130000D02*
X54875000Y-28610000D01*
X51975000Y-21360000D02*
X55175000Y-22220000D01*
X51975000Y-28680000D02*
X51975000Y-21360000D01*
X54885000Y-21210000D02*
X50455000Y-19690000D01*
X55185000Y-27590000D02*
X51975000Y-28680000D01*
X54884757Y-21209810D02*
G75*
G02*
X55175000Y-22220000I510243J-400190D01*
G01*
X55176216Y-27591507D02*
G75*
G02*
X54875000Y-28610000I218784J-618493D01*
G01*
%TO.C,C4*%
X23724995Y-30035579D02*
X23724994Y-29754422D01*
X24745002Y-30035586D02*
X24745001Y-29754429D01*
%TO.C,C10*%
X26055001Y-39295581D02*
X26055002Y-39014421D01*
X27075002Y-39295583D02*
X27075003Y-39014423D01*
%TO.C,J2*%
X18385000Y-19880000D02*
X21185000Y-19880001D01*
X18385000Y-27580000D02*
X21185000Y-27580000D01*
X21184995Y-19580001D02*
X21185000Y-19880001D01*
X21184995Y-19580001D02*
X22735000Y-19580003D01*
X21184999Y-27880000D02*
X22734997Y-27880002D01*
X21185000Y-27580000D02*
X21184999Y-27880000D01*
X24394999Y-21555000D02*
X24845002Y-21155001D01*
X24845001Y-21955000D02*
X24394999Y-21555000D01*
X24845002Y-21155001D02*
X24845001Y-21955000D01*
%TO.C,L2*%
X31514999Y-37274720D02*
X31514999Y-37600279D01*
X32535001Y-37274721D02*
X32535001Y-37600280D01*
%TO.C,U1*%
X25014997Y-35629998D02*
X25514999Y-35629998D01*
X25014999Y-32309996D02*
X25514999Y-32309998D01*
X25014999Y-32809998D02*
X25014999Y-32309996D01*
X25014999Y-35129998D02*
X25014997Y-35629998D01*
X27834999Y-32309998D02*
X28084999Y-32309998D01*
X28334999Y-32809998D02*
X28334999Y-32609996D01*
X28334999Y-35129998D02*
X28334999Y-35630000D01*
X28334999Y-35630000D02*
X27834999Y-35629998D01*
X28664999Y-32549998D02*
X28335001Y-32309998D01*
X28664999Y-32069998D01*
X28664999Y-32549998D01*
G36*
X28664999Y-32549998D02*
G01*
X28335001Y-32309998D01*
X28664999Y-32069998D01*
X28664999Y-32549998D01*
G37*
%TO.C,R4*%
X34562744Y-28197495D02*
X35037260Y-28197500D01*
X34562746Y-27152500D02*
X35037262Y-27152505D01*
%TO.C,C5*%
X22034997Y-30035575D02*
X22034996Y-29754418D01*
X23055004Y-30035582D02*
X23055003Y-29754425D01*
%TO.C,R3*%
X21367256Y-37832498D02*
X20892740Y-37832495D01*
X21367258Y-36787501D02*
X20892742Y-36787498D01*
%TO.C,C9*%
X33265000Y-37309419D02*
X33264999Y-37590579D01*
X34285001Y-37309421D02*
X34285000Y-37590581D01*
%TO.C,C6*%
X34940579Y-21285002D02*
X34659422Y-21285004D01*
X34940586Y-20264994D02*
X34659429Y-20264996D01*
%TO.C,R6*%
X34562742Y-22552499D02*
X35037258Y-22552499D01*
X34562742Y-23597499D02*
X35037258Y-23597499D01*
%TO.C,R2*%
X20892744Y-35147505D02*
X21367258Y-35147510D01*
X20892744Y-36192500D02*
X21367258Y-36192505D01*
%TO.C,R1*%
X24377258Y-38912502D02*
X23902742Y-38912499D01*
X24377260Y-37867505D02*
X23902744Y-37867502D01*
%TO.C,J3*%
X38130000Y-29890000D02*
X45510000Y-29890000D01*
X38130000Y-29903000D02*
X38130000Y-31130000D01*
X38130000Y-31130000D02*
X38630000Y-31130000D01*
X38130000Y-34490000D02*
X38130000Y-35730000D01*
X38130000Y-35730000D02*
X38630000Y-35730000D01*
X38130000Y-39090000D02*
X38130000Y-40330000D01*
X38130000Y-40330000D02*
X50450000Y-40330000D01*
X38630000Y-31130000D02*
X38630000Y-34490000D01*
X38630000Y-34490000D02*
X38130000Y-34490000D01*
X38630000Y-35730000D02*
X38630000Y-39090000D01*
X38630000Y-39090000D02*
X38130000Y-39090000D01*
X40050000Y-29630000D02*
X42050000Y-29630000D01*
X45510000Y-28390000D02*
X45510000Y-29890000D01*
X46360000Y-29530000D02*
X47020000Y-29530000D01*
X46360000Y-29890000D02*
X46360000Y-29530000D01*
X47020000Y-28390000D02*
X45510000Y-28390000D01*
X47020000Y-29530000D02*
X47020000Y-28390000D01*
X50450000Y-29890000D02*
X46380000Y-29890000D01*
X50450000Y-40330000D02*
X54880000Y-38810000D01*
X51980000Y-31560000D02*
X55180000Y-32420000D01*
X51980000Y-38880000D02*
X51980000Y-31560000D01*
X54890000Y-31410000D02*
X50460000Y-29890000D01*
X55190000Y-37790000D02*
X51980000Y-38880000D01*
X54889757Y-31409810D02*
G75*
G02*
X55180000Y-32420000I510243J-400190D01*
G01*
X55181216Y-37791507D02*
G75*
G02*
X54880000Y-38810000I218784J-618493D01*
G01*
%TO.C,C2*%
X21285577Y-34440003D02*
X21004416Y-34440001D01*
X21285580Y-33419999D02*
X21004419Y-33419997D01*
%TO.C,C1*%
X21285579Y-32760003D02*
X21004418Y-32760001D01*
X21285582Y-31739999D02*
X21004421Y-31739997D01*
%TO.C,D1*%
X26050002Y-27569995D02*
X27320001Y-27569997D01*
X27350000Y-24449999D02*
X26050004Y-24449997D01*
X27940000Y-27849998D02*
X27460004Y-27849997D01*
X27700002Y-27519997D01*
X27940000Y-27849998D01*
G36*
X27940000Y-27849998D02*
G01*
X27460004Y-27849997D01*
X27700002Y-27519997D01*
X27940000Y-27849998D01*
G37*
%TO.C,C3*%
X35015000Y-37309419D02*
X35014999Y-37590579D01*
X36035001Y-37309421D02*
X36035000Y-37590581D01*
%TO.C,R5*%
X34562742Y-24852500D02*
X35037258Y-24852500D01*
X34562742Y-25897500D02*
X35037258Y-25897500D01*
%TD*%
M02*
