%TF.GenerationSoftware,KiCad,Pcbnew,9.0.4*%
%TF.CreationDate,2025-12-13T14:12:13+01:00*%
%TF.ProjectId,U2O,55324f2e-6b69-4636-9164-5f7063625858,rev?*%
%TF.SameCoordinates,Original*%
%TF.FileFunction,Copper,L2,Bot*%
%TF.FilePolarity,Positive*%
%FSLAX46Y46*%
G04 Gerber Fmt 4.6, Leading zero omitted, Abs format (unit mm)*
G04 Created by KiCad (PCBNEW 9.0.4) date 2025-12-13 14:12:13*
%MOMM*%
%LPD*%
G01*
G04 APERTURE LIST*
G04 Aperture macros list*
%AMRoundRect*
0 Rectangle with rounded corners*
0 $1 Rounding radius*
0 $2 $3 $4 $5 $6 $7 $8 $9 X,Y pos of 4 corners*
0 Add a 4 corners polygon primitive as box body*
4,1,4,$2,$3,$4,$5,$6,$7,$8,$9,$2,$3,0*
0 Add four circle primitives for the rounded corners*
1,1,$1+$1,$2,$3*
1,1,$1+$1,$4,$5*
1,1,$1+$1,$6,$7*
1,1,$1+$1,$8,$9*
0 Add four rect primitives between the rounded corners*
20,1,$1+$1,$2,$3,$4,$5,0*
20,1,$1+$1,$4,$5,$6,$7,0*
20,1,$1+$1,$6,$7,$8,$9,0*
20,1,$1+$1,$8,$9,$2,$3,0*%
G04 Aperture macros list end*
%TA.AperFunction,ComponentPad*%
%ADD10O,1.700000X1.350000*%
%TD*%
%TA.AperFunction,ComponentPad*%
%ADD11O,1.500000X1.100000*%
%TD*%
%TA.AperFunction,ComponentPad*%
%ADD12RoundRect,0.249600X-0.850400X-0.550400X0.850400X-0.550400X0.850400X0.550400X-0.850400X0.550400X0*%
%TD*%
%TA.AperFunction,ComponentPad*%
%ADD13O,2.200000X1.600000*%
%TD*%
%TA.AperFunction,ComponentPad*%
%ADD14C,2.000000*%
%TD*%
%TA.AperFunction,ViaPad*%
%ADD15C,1.500000*%
%TD*%
%TA.AperFunction,ViaPad*%
%ADD16C,0.600000*%
%TD*%
%TA.AperFunction,Conductor*%
%ADD17C,0.400000*%
%TD*%
%TA.AperFunction,Conductor*%
%ADD18C,0.250000*%
%TD*%
%TA.AperFunction,Conductor*%
%ADD19C,0.500000*%
%TD*%
%TA.AperFunction,Conductor*%
%ADD20C,0.280000*%
%TD*%
G04 APERTURE END LIST*
D10*
%TO.P,J2,6,Shield*%
%TO.N,GND*%
X20005002Y-21000001D03*
D11*
X23004999Y-21310000D03*
X23004998Y-26150000D03*
D10*
X20005000Y-26460000D03*
%TD*%
D12*
%TO.P,J1,1,VCCT*%
%TO.N,Net-(J1-VCCT)*%
X36280000Y-20990000D03*
D13*
%TO.P,J1,2,NC*%
%TO.N,unconnected-(J1-NC-Pad2)*%
X36280000Y-23530000D03*
%TO.P,J1,3,VEET*%
%TO.N,GND*%
X36280000Y-26070000D03*
%TO.P,J1,4,Data_in*%
%TO.N,TXD*%
X36280000Y-28610000D03*
D14*
%TO.P,J1,5,HP*%
%TO.N,GND*%
X43980000Y-28610000D03*
%TO.P,J1,8,HP*%
X43980000Y-20990000D03*
%TD*%
D12*
%TO.P,J3,1,Data_Out*%
%TO.N,RXD*%
X36280000Y-31180000D03*
D13*
%TO.P,J3,2,VEER*%
%TO.N,GND*%
X36280000Y-33720000D03*
%TO.P,J3,3,VCCR*%
%TO.N,Net-(J3-VCCR)*%
X36280000Y-36260000D03*
%TO.P,J3,4,NC*%
%TO.N,unconnected-(J3-NC-Pad4)*%
X36280000Y-38800000D03*
D14*
%TO.P,J3,5,HP*%
%TO.N,GND*%
X43980000Y-38800000D03*
%TO.P,J3,8,HP*%
X43980000Y-31180000D03*
%TD*%
D15*
%TO.N,*%
X44260000Y-41390000D03*
X20060000Y-41390000D03*
X44260000Y-18330000D03*
X20060000Y-18330000D03*
D16*
%TO.N,GND*%
X40550000Y-24260000D03*
X19170000Y-32280000D03*
X31840000Y-29260000D03*
X20310000Y-38550000D03*
X27824998Y-27940000D03*
X25930000Y-36690000D03*
X29980000Y-19930000D03*
X27600000Y-23070000D03*
X25070000Y-28050000D03*
X40590000Y-37510000D03*
X31020000Y-30980000D03*
X19160000Y-37320000D03*
X27230000Y-31110000D03*
X25170000Y-39960000D03*
X33010000Y-21330000D03*
X26580000Y-41300000D03*
X31620000Y-27500000D03*
X30590000Y-36600000D03*
X28760000Y-24260000D03*
X33050000Y-26040000D03*
X31700000Y-19960000D03*
X26674999Y-33969998D03*
X33560000Y-39890000D03*
X29610000Y-32410000D03*
X21210000Y-29100000D03*
X24600000Y-27360000D03*
X30820000Y-33600000D03*
X28630000Y-21250000D03*
X19160000Y-33930000D03*
X27980000Y-36900000D03*
X27370000Y-28890000D03*
X32360000Y-36540000D03*
X32220000Y-41310000D03*
X27790000Y-39900000D03*
X30640000Y-41320000D03*
X20370000Y-30980000D03*
X21640000Y-28150000D03*
%TO.N,V_UNREG*%
X22879994Y-33229994D03*
X27990000Y-29920000D03*
%TO.N,VCC*%
X24795002Y-37015002D03*
X28035000Y-38345000D03*
X24795002Y-32090002D03*
X29935000Y-28110000D03*
%TO.N,D-*%
X25160000Y-23720000D03*
X25160000Y-26170000D03*
%TD*%
D17*
%TO.N,V_UNREG*%
X25975054Y-29920000D02*
X22879994Y-33015060D01*
D18*
X22879994Y-32900006D02*
X22879994Y-33229994D01*
D17*
X27990000Y-29920000D02*
X25975054Y-29920000D01*
X22879994Y-33015060D02*
X22879994Y-33229994D01*
%TO.N,VCC*%
X29935000Y-30190000D02*
X29935000Y-28110000D01*
X28034998Y-32090002D02*
X29935000Y-30190000D01*
X24795002Y-32090002D02*
X28034998Y-32090002D01*
X24795002Y-32090002D02*
X24795002Y-37015002D01*
D19*
X24795002Y-37015002D02*
X26125000Y-38345000D01*
X26125000Y-38345000D02*
X28035000Y-38345000D01*
D20*
%TO.N,D-*%
X25160000Y-23720000D02*
X25160000Y-26170000D01*
%TD*%
%TA.AperFunction,Conductor*%
%TO.N,GND*%
G36*
X27572860Y-30622126D02*
G01*
X27577939Y-30621210D01*
X27612136Y-30629939D01*
X27677031Y-30656819D01*
X27756503Y-30689737D01*
X27911153Y-30720499D01*
X27911156Y-30720500D01*
X27911158Y-30720500D01*
X28068843Y-30720500D01*
X28080430Y-30718194D01*
X28098588Y-30714583D01*
X28168178Y-30720809D01*
X28223356Y-30763671D01*
X28246602Y-30829561D01*
X28230535Y-30897558D01*
X28210461Y-30923881D01*
X27781160Y-31353183D01*
X27719837Y-31386668D01*
X27693479Y-31389502D01*
X25795571Y-31389502D01*
X25728532Y-31369817D01*
X25682777Y-31317013D01*
X25672833Y-31247855D01*
X25701858Y-31184299D01*
X25707890Y-31177821D01*
X26228892Y-30656819D01*
X26290215Y-30623334D01*
X26316573Y-30620500D01*
X27564684Y-30620500D01*
X27572860Y-30622126D01*
G37*
%TD.AperFunction*%
%TA.AperFunction,Conductor*%
G36*
X44162037Y-16860185D02*
G01*
X44207792Y-16912989D01*
X44217736Y-16982147D01*
X44188711Y-17045703D01*
X44129933Y-17083477D01*
X44114396Y-17086973D01*
X43967173Y-17110290D01*
X43779970Y-17171117D01*
X43604594Y-17260476D01*
X43513741Y-17326485D01*
X43445354Y-17376172D01*
X43445352Y-17376174D01*
X43445351Y-17376174D01*
X43306174Y-17515351D01*
X43306174Y-17515352D01*
X43306172Y-17515354D01*
X43256485Y-17583741D01*
X43190476Y-17674594D01*
X43101117Y-17849970D01*
X43040290Y-18037173D01*
X43009500Y-18231577D01*
X43009500Y-18428422D01*
X43040290Y-18622826D01*
X43101117Y-18810029D01*
X43165919Y-18937209D01*
X43190476Y-18985405D01*
X43306172Y-19144646D01*
X43445354Y-19283828D01*
X43536351Y-19349941D01*
X43579015Y-19405270D01*
X43584994Y-19474883D01*
X43552388Y-19536678D01*
X43501783Y-19568189D01*
X43404195Y-19599897D01*
X43193830Y-19707084D01*
X43110894Y-19767340D01*
X43768941Y-20425387D01*
X43748409Y-20430889D01*
X43611592Y-20509881D01*
X43499881Y-20621592D01*
X43420889Y-20758409D01*
X43415387Y-20778941D01*
X42757340Y-20120894D01*
X42697084Y-20203830D01*
X42589897Y-20414197D01*
X42516934Y-20638752D01*
X42480000Y-20871947D01*
X42480000Y-21108052D01*
X42516934Y-21341247D01*
X42589897Y-21565802D01*
X42697087Y-21776174D01*
X42757338Y-21859104D01*
X42757340Y-21859105D01*
X43415387Y-21201058D01*
X43420889Y-21221591D01*
X43499881Y-21358408D01*
X43611592Y-21470119D01*
X43748409Y-21549111D01*
X43768940Y-21554612D01*
X43110893Y-22212658D01*
X43193828Y-22272914D01*
X43404197Y-22380102D01*
X43628752Y-22453065D01*
X43628751Y-22453065D01*
X43861948Y-22490000D01*
X44098052Y-22490000D01*
X44331247Y-22453065D01*
X44555802Y-22380102D01*
X44766163Y-22272918D01*
X44766169Y-22272914D01*
X44849104Y-22212658D01*
X44849105Y-22212658D01*
X44191058Y-21554612D01*
X44211591Y-21549111D01*
X44348408Y-21470119D01*
X44460119Y-21358408D01*
X44539111Y-21221591D01*
X44544612Y-21201058D01*
X45202658Y-21859105D01*
X45202658Y-21859104D01*
X45262914Y-21776169D01*
X45262918Y-21776163D01*
X45370102Y-21565802D01*
X45443065Y-21341247D01*
X45480000Y-21108052D01*
X45480000Y-20871947D01*
X45443065Y-20638752D01*
X45370102Y-20414197D01*
X45262914Y-20203828D01*
X45202658Y-20120894D01*
X45202658Y-20120893D01*
X44544612Y-20778940D01*
X44539111Y-20758409D01*
X44460119Y-20621592D01*
X44348408Y-20509881D01*
X44211591Y-20430889D01*
X44191059Y-20425387D01*
X44849105Y-19767340D01*
X44849104Y-19767338D01*
X44766172Y-19707085D01*
X44755812Y-19701806D01*
X44705017Y-19653831D01*
X44688224Y-19586009D01*
X44710763Y-19519875D01*
X44755816Y-19480838D01*
X44767504Y-19474883D01*
X44915405Y-19399524D01*
X45074646Y-19283828D01*
X45213828Y-19144646D01*
X45329524Y-18985405D01*
X45418884Y-18810025D01*
X45479709Y-18622826D01*
X45503027Y-18475604D01*
X45532956Y-18412469D01*
X45592268Y-18375538D01*
X45662130Y-18376536D01*
X45720363Y-18415146D01*
X45748477Y-18479110D01*
X45749500Y-18495002D01*
X45749500Y-41224997D01*
X45729815Y-41292036D01*
X45677011Y-41337791D01*
X45607853Y-41347735D01*
X45544297Y-41318710D01*
X45506523Y-41259932D01*
X45503027Y-41244395D01*
X45479709Y-41097173D01*
X45418882Y-40909970D01*
X45335015Y-40745372D01*
X45329524Y-40734595D01*
X45213828Y-40575354D01*
X45074646Y-40436172D01*
X44915405Y-40320476D01*
X44883022Y-40303976D01*
X44815791Y-40269720D01*
X44764995Y-40221745D01*
X44748200Y-40153924D01*
X44770738Y-40087789D01*
X44799200Y-40058917D01*
X44849104Y-40022658D01*
X44849105Y-40022658D01*
X44191058Y-39364612D01*
X44211591Y-39359111D01*
X44348408Y-39280119D01*
X44460119Y-39168408D01*
X44539111Y-39031591D01*
X44544612Y-39011058D01*
X45202658Y-39669105D01*
X45202658Y-39669104D01*
X45262914Y-39586169D01*
X45262918Y-39586163D01*
X45370102Y-39375802D01*
X45443065Y-39151247D01*
X45480000Y-38918052D01*
X45480000Y-38681947D01*
X45443065Y-38448752D01*
X45370102Y-38224197D01*
X45262914Y-38013828D01*
X45202658Y-37930894D01*
X45202658Y-37930893D01*
X44544612Y-38588940D01*
X44539111Y-38568409D01*
X44460119Y-38431592D01*
X44348408Y-38319881D01*
X44211591Y-38240889D01*
X44191059Y-38235387D01*
X44849105Y-37577340D01*
X44849104Y-37577338D01*
X44766174Y-37517087D01*
X44555802Y-37409897D01*
X44331247Y-37336934D01*
X44331248Y-37336934D01*
X44098052Y-37300000D01*
X43861948Y-37300000D01*
X43628752Y-37336934D01*
X43404197Y-37409897D01*
X43193830Y-37517084D01*
X43110894Y-37577340D01*
X43768941Y-38235387D01*
X43748409Y-38240889D01*
X43611592Y-38319881D01*
X43499881Y-38431592D01*
X43420889Y-38568409D01*
X43415387Y-38588941D01*
X42757340Y-37930894D01*
X42697084Y-38013830D01*
X42589897Y-38224197D01*
X42516934Y-38448752D01*
X42480000Y-38681947D01*
X42480000Y-38918052D01*
X42516934Y-39151247D01*
X42589897Y-39375802D01*
X42697087Y-39586174D01*
X42757338Y-39669104D01*
X42757340Y-39669105D01*
X43415387Y-39011058D01*
X43420889Y-39031591D01*
X43499881Y-39168408D01*
X43611592Y-39280119D01*
X43748409Y-39359111D01*
X43768940Y-39364612D01*
X43110893Y-40022658D01*
X43193828Y-40082914D01*
X43404195Y-40190102D01*
X43435209Y-40200179D01*
X43492884Y-40239617D01*
X43520082Y-40303976D01*
X43508167Y-40372822D01*
X43469778Y-40418426D01*
X43445357Y-40436169D01*
X43445351Y-40436174D01*
X43306174Y-40575351D01*
X43306174Y-40575352D01*
X43306172Y-40575354D01*
X43256485Y-40643741D01*
X43190476Y-40734594D01*
X43101117Y-40909970D01*
X43040290Y-41097173D01*
X43009500Y-41291577D01*
X43009500Y-41488422D01*
X43040290Y-41682826D01*
X43101117Y-41870029D01*
X43165919Y-41997209D01*
X43190476Y-42045405D01*
X43306172Y-42204646D01*
X43445354Y-42343828D01*
X43604595Y-42459524D01*
X43687455Y-42501743D01*
X43779970Y-42548882D01*
X43779972Y-42548882D01*
X43779975Y-42548884D01*
X43913447Y-42592252D01*
X43929811Y-42597569D01*
X43987486Y-42637007D01*
X44014684Y-42701366D01*
X44002769Y-42770212D01*
X43955525Y-42821688D01*
X43891492Y-42839500D01*
X20428508Y-42839500D01*
X20361469Y-42819815D01*
X20315714Y-42767011D01*
X20305770Y-42697853D01*
X20334795Y-42634297D01*
X20390189Y-42597569D01*
X20399428Y-42594566D01*
X20540025Y-42548884D01*
X20715405Y-42459524D01*
X20874646Y-42343828D01*
X21013828Y-42204646D01*
X21129524Y-42045405D01*
X21218884Y-41870025D01*
X21279709Y-41682826D01*
X21310500Y-41488422D01*
X21310500Y-41291577D01*
X21279709Y-41097173D01*
X21218882Y-40909970D01*
X21135015Y-40745372D01*
X21129524Y-40734595D01*
X21013828Y-40575354D01*
X20874646Y-40436172D01*
X20715405Y-40320476D01*
X20683022Y-40303976D01*
X20540029Y-40231117D01*
X20352826Y-40170290D01*
X20158422Y-40139500D01*
X20158417Y-40139500D01*
X19961583Y-40139500D01*
X19961578Y-40139500D01*
X19767173Y-40170290D01*
X19579970Y-40231117D01*
X19404594Y-40320476D01*
X19332547Y-40372822D01*
X19245354Y-40436172D01*
X19245352Y-40436174D01*
X19245351Y-40436174D01*
X19106174Y-40575351D01*
X19106174Y-40575352D01*
X19106172Y-40575354D01*
X19056485Y-40643741D01*
X18990476Y-40734594D01*
X18984985Y-40745372D01*
X18937010Y-40796168D01*
X18869190Y-40812963D01*
X18803055Y-40790426D01*
X18759603Y-40735711D01*
X18750500Y-40689077D01*
X18750500Y-33151147D01*
X22079494Y-33151147D01*
X22079494Y-33308840D01*
X22110255Y-33463483D01*
X22110258Y-33463495D01*
X22170596Y-33609166D01*
X22170603Y-33609179D01*
X22258204Y-33740282D01*
X22258207Y-33740286D01*
X22369701Y-33851780D01*
X22369705Y-33851783D01*
X22500808Y-33939384D01*
X22500821Y-33939391D01*
X22574719Y-33970000D01*
X22646497Y-33999731D01*
X22770581Y-34024413D01*
X22801147Y-34030493D01*
X22801150Y-34030494D01*
X22801152Y-34030494D01*
X22958838Y-34030494D01*
X22958839Y-34030493D01*
X23113491Y-33999731D01*
X23259173Y-33939388D01*
X23390283Y-33851783D01*
X23501783Y-33740283D01*
X23589388Y-33609173D01*
X23649731Y-33463491D01*
X23680494Y-33308836D01*
X23680494Y-33256579D01*
X23689138Y-33227138D01*
X23695662Y-33197152D01*
X23699416Y-33192136D01*
X23700179Y-33189540D01*
X23716813Y-33168898D01*
X23882821Y-33002890D01*
X23944144Y-32969405D01*
X24013836Y-32974389D01*
X24069769Y-33016261D01*
X24094186Y-33081725D01*
X24094502Y-33090571D01*
X24094502Y-36589686D01*
X24085063Y-36637138D01*
X24025266Y-36781500D01*
X24025263Y-36781512D01*
X23994502Y-36936155D01*
X23994502Y-37093848D01*
X24025263Y-37248491D01*
X24025266Y-37248503D01*
X24085604Y-37394174D01*
X24085611Y-37394187D01*
X24173212Y-37525290D01*
X24173215Y-37525294D01*
X24284712Y-37636791D01*
X24415817Y-37724392D01*
X24415823Y-37724396D01*
X24439477Y-37734193D01*
X24479705Y-37761073D01*
X25542049Y-38823416D01*
X25597624Y-38878991D01*
X25646585Y-38927952D01*
X25769498Y-39010080D01*
X25769511Y-39010087D01*
X25876469Y-39054390D01*
X25906087Y-39066658D01*
X25906091Y-39066658D01*
X25906092Y-39066659D01*
X26051079Y-39095500D01*
X26051082Y-39095500D01*
X27730396Y-39095500D01*
X27777844Y-39104937D01*
X27801503Y-39114737D01*
X27801508Y-39114738D01*
X27801511Y-39114739D01*
X27956153Y-39145499D01*
X27956156Y-39145500D01*
X27956158Y-39145500D01*
X28113844Y-39145500D01*
X28113845Y-39145499D01*
X28268497Y-39114737D01*
X28414179Y-39054394D01*
X28545289Y-38966789D01*
X28656789Y-38855289D01*
X28744394Y-38724179D01*
X28804737Y-38578497D01*
X28835500Y-38423842D01*
X28835500Y-38266158D01*
X28835500Y-38266155D01*
X28835499Y-38266153D01*
X28804738Y-38111510D01*
X28804737Y-38111503D01*
X28764279Y-38013828D01*
X28744397Y-37965827D01*
X28744390Y-37965814D01*
X28656789Y-37834711D01*
X28656786Y-37834707D01*
X28545292Y-37723213D01*
X28545288Y-37723210D01*
X28414185Y-37635609D01*
X28414172Y-37635602D01*
X28268501Y-37575264D01*
X28268489Y-37575261D01*
X28113845Y-37544500D01*
X28113842Y-37544500D01*
X27956158Y-37544500D01*
X27956155Y-37544500D01*
X27801511Y-37575260D01*
X27801506Y-37575262D01*
X27801504Y-37575262D01*
X27801503Y-37575263D01*
X27777844Y-37585062D01*
X27730396Y-37594500D01*
X26487229Y-37594500D01*
X26420190Y-37574815D01*
X26399548Y-37558181D01*
X25541073Y-36699705D01*
X25536441Y-36692772D01*
X25532200Y-36689828D01*
X25514192Y-36659474D01*
X25504940Y-36637136D01*
X25495502Y-36589686D01*
X25495502Y-32914502D01*
X25515187Y-32847463D01*
X25567991Y-32801708D01*
X25619502Y-32790502D01*
X28103994Y-32790502D01*
X28195038Y-32772391D01*
X28239326Y-32763582D01*
X28324239Y-32728410D01*
X28366805Y-32710779D01*
X28366806Y-32710778D01*
X28366809Y-32710777D01*
X28481541Y-32634116D01*
X30479114Y-30636543D01*
X30555775Y-30521811D01*
X30608580Y-30394328D01*
X30625176Y-30310894D01*
X30635500Y-30258996D01*
X30635500Y-28535316D01*
X30637126Y-28527140D01*
X30636210Y-28522063D01*
X30644938Y-28487865D01*
X30704737Y-28343497D01*
X30735500Y-28188842D01*
X30735500Y-28031158D01*
X30735500Y-28031155D01*
X30735499Y-28031153D01*
X30704738Y-27876510D01*
X30704737Y-27876503D01*
X30704735Y-27876498D01*
X30644397Y-27730827D01*
X30644390Y-27730814D01*
X30556789Y-27599711D01*
X30556786Y-27599707D01*
X30445292Y-27488213D01*
X30445288Y-27488210D01*
X30314185Y-27400609D01*
X30314172Y-27400602D01*
X30168501Y-27340264D01*
X30168489Y-27340261D01*
X30013845Y-27309500D01*
X30013842Y-27309500D01*
X29856158Y-27309500D01*
X29856155Y-27309500D01*
X29701510Y-27340261D01*
X29701498Y-27340264D01*
X29555827Y-27400602D01*
X29555814Y-27400609D01*
X29424711Y-27488210D01*
X29424707Y-27488213D01*
X29313213Y-27599707D01*
X29313210Y-27599711D01*
X29225609Y-27730814D01*
X29225602Y-27730827D01*
X29165264Y-27876498D01*
X29165261Y-27876510D01*
X29134500Y-28031153D01*
X29134500Y-28188846D01*
X29165261Y-28343489D01*
X29165264Y-28343501D01*
X29225061Y-28487864D01*
X29234500Y-28535316D01*
X29234500Y-29848481D01*
X29214815Y-29915520D01*
X29198181Y-29936162D01*
X28993881Y-30140461D01*
X28932558Y-30173946D01*
X28862866Y-30168962D01*
X28806933Y-30127090D01*
X28782516Y-30061626D01*
X28784583Y-30028587D01*
X28790500Y-29998842D01*
X28790500Y-29841155D01*
X28790499Y-29841153D01*
X28771547Y-29745877D01*
X28759737Y-29686503D01*
X28724721Y-29601966D01*
X28699397Y-29540827D01*
X28699390Y-29540814D01*
X28611789Y-29409711D01*
X28611786Y-29409707D01*
X28500292Y-29298213D01*
X28500288Y-29298210D01*
X28369185Y-29210609D01*
X28369172Y-29210602D01*
X28223501Y-29150264D01*
X28223489Y-29150261D01*
X28068845Y-29119500D01*
X28068842Y-29119500D01*
X27911158Y-29119500D01*
X27911155Y-29119500D01*
X27756510Y-29150261D01*
X27756498Y-29150264D01*
X27612136Y-29210061D01*
X27564684Y-29219500D01*
X25906058Y-29219500D01*
X25770731Y-29246418D01*
X25770721Y-29246421D01*
X25643246Y-29299222D01*
X25528508Y-29375887D01*
X22508343Y-32396051D01*
X22481261Y-32414148D01*
X22394136Y-32501273D01*
X22376039Y-32528355D01*
X22335885Y-32568510D01*
X22335881Y-32568515D01*
X22279076Y-32653530D01*
X22259218Y-32683249D01*
X22225813Y-32763892D01*
X22214357Y-32785326D01*
X22170601Y-32850813D01*
X22170596Y-32850822D01*
X22110258Y-32996492D01*
X22110255Y-32996504D01*
X22079494Y-33151147D01*
X18750500Y-33151147D01*
X18750500Y-27341563D01*
X18770185Y-27274524D01*
X18822989Y-27228769D01*
X18892147Y-27218825D01*
X18955703Y-27247850D01*
X18962181Y-27253882D01*
X19064540Y-27356241D01*
X19064545Y-27356245D01*
X19214162Y-27464947D01*
X19378956Y-27548915D01*
X19378959Y-27548916D01*
X19554852Y-27606066D01*
X19737527Y-27635000D01*
X19755000Y-27635000D01*
X19755000Y-26810000D01*
X20255000Y-26810000D01*
X20255000Y-27635000D01*
X20272473Y-27635000D01*
X20455147Y-27606066D01*
X20631040Y-27548916D01*
X20631043Y-27548915D01*
X20795837Y-27464947D01*
X20945454Y-27356245D01*
X20945459Y-27356241D01*
X21076241Y-27225459D01*
X21076245Y-27225454D01*
X21184947Y-27075837D01*
X21268915Y-26911043D01*
X21268917Y-26911037D01*
X21326067Y-26735144D01*
X21330049Y-26710000D01*
X20499975Y-26710000D01*
X20535070Y-26674905D01*
X20581148Y-26595095D01*
X20605000Y-26506078D01*
X20605000Y-26413922D01*
X20581148Y-26324905D01*
X20535070Y-26245095D01*
X20499975Y-26210000D01*
X21330050Y-26210000D01*
X21330049Y-26209999D01*
X21326067Y-26184855D01*
X21268917Y-26008962D01*
X21268914Y-26008955D01*
X21259065Y-25989624D01*
X21213398Y-25900000D01*
X21784155Y-25900000D01*
X22595380Y-25900000D01*
X22544934Y-25950446D01*
X22502147Y-26024555D01*
X22479998Y-26107213D01*
X22479998Y-26192787D01*
X22502147Y-26275445D01*
X22544934Y-26349554D01*
X22595380Y-26400000D01*
X21784155Y-26400000D01*
X21795348Y-26456274D01*
X21795349Y-26456276D01*
X21874498Y-26647358D01*
X21874503Y-26647368D01*
X21989408Y-26819335D01*
X21989411Y-26819339D01*
X22135658Y-26965586D01*
X22135662Y-26965589D01*
X22307629Y-27080494D01*
X22307639Y-27080499D01*
X22498723Y-27159649D01*
X22498731Y-27159651D01*
X22701577Y-27199999D01*
X22701581Y-27200000D01*
X22754998Y-27200000D01*
X22754998Y-26473067D01*
X22762211Y-26475000D01*
X23247785Y-26475000D01*
X23254998Y-26473067D01*
X23254998Y-27200000D01*
X23308415Y-27200000D01*
X23308418Y-27199999D01*
X23511264Y-27159651D01*
X23511272Y-27159649D01*
X23702356Y-27080499D01*
X23702366Y-27080494D01*
X23874333Y-26965589D01*
X23874337Y-26965586D01*
X24020584Y-26819339D01*
X24020587Y-26819335D01*
X24135492Y-26647368D01*
X24135499Y-26647355D01*
X24198824Y-26494475D01*
X24242665Y-26440071D01*
X24308959Y-26418006D01*
X24376658Y-26435285D01*
X24424269Y-26486422D01*
X24427946Y-26494474D01*
X24450604Y-26549175D01*
X24450609Y-26549185D01*
X24538210Y-26680288D01*
X24538213Y-26680292D01*
X24649707Y-26791786D01*
X24649711Y-26791789D01*
X24780814Y-26879390D01*
X24780827Y-26879397D01*
X24871357Y-26916895D01*
X24926503Y-26939737D01*
X25056454Y-26965586D01*
X25081153Y-26970499D01*
X25081156Y-26970500D01*
X25081158Y-26970500D01*
X25238844Y-26970500D01*
X25238845Y-26970499D01*
X25393497Y-26939737D01*
X25539179Y-26879394D01*
X25670289Y-26791789D01*
X25781789Y-26680289D01*
X25869394Y-26549179D01*
X25929737Y-26403497D01*
X25960500Y-26248842D01*
X25960500Y-26091158D01*
X25960500Y-26091155D01*
X25960499Y-26091153D01*
X25944150Y-26008962D01*
X25929737Y-25936503D01*
X25911067Y-25891429D01*
X25869397Y-25790828D01*
X25869396Y-25790827D01*
X25869394Y-25790821D01*
X25821397Y-25718988D01*
X25800520Y-25652312D01*
X25800500Y-25650099D01*
X25800500Y-24239901D01*
X25820185Y-24172862D01*
X25821398Y-24171010D01*
X25822327Y-24169619D01*
X25869394Y-24099179D01*
X25929737Y-23953497D01*
X25960500Y-23798842D01*
X25960500Y-23641158D01*
X25960500Y-23641155D01*
X25960499Y-23641153D01*
X25929738Y-23486510D01*
X25929737Y-23486503D01*
X25905359Y-23427648D01*
X25869397Y-23340827D01*
X25869390Y-23340814D01*
X25781789Y-23209711D01*
X25781786Y-23209707D01*
X25670292Y-23098213D01*
X25670288Y-23098210D01*
X25539185Y-23010609D01*
X25539172Y-23010602D01*
X25393501Y-22950264D01*
X25393489Y-22950261D01*
X25238845Y-22919500D01*
X25238842Y-22919500D01*
X25081158Y-22919500D01*
X25081155Y-22919500D01*
X24926510Y-22950261D01*
X24926498Y-22950264D01*
X24780827Y-23010602D01*
X24780814Y-23010609D01*
X24649711Y-23098210D01*
X24649707Y-23098213D01*
X24538213Y-23209707D01*
X24538210Y-23209711D01*
X24450609Y-23340814D01*
X24450602Y-23340827D01*
X24390264Y-23486498D01*
X24390261Y-23486510D01*
X24359500Y-23641153D01*
X24359500Y-23798846D01*
X24390261Y-23953489D01*
X24390264Y-23953501D01*
X24450602Y-24099172D01*
X24450609Y-24099184D01*
X24498602Y-24171010D01*
X24519480Y-24237687D01*
X24519500Y-24239901D01*
X24519500Y-25650099D01*
X24515356Y-25665574D01*
X24516014Y-25679294D01*
X24504892Y-25704648D01*
X24502907Y-25712064D01*
X24500869Y-25715596D01*
X24450606Y-25790821D01*
X24433130Y-25833010D01*
X24429077Y-25840037D01*
X24409431Y-25858781D01*
X24392389Y-25879929D01*
X24384523Y-25882546D01*
X24378526Y-25888269D01*
X24351863Y-25893416D01*
X24326095Y-25901993D01*
X24318062Y-25899942D01*
X24309923Y-25901514D01*
X24284709Y-25891429D01*
X24258396Y-25884713D01*
X24252747Y-25878645D01*
X24245050Y-25875567D01*
X24229291Y-25853451D01*
X24210786Y-25833576D01*
X24207109Y-25825525D01*
X24135497Y-25652641D01*
X24135492Y-25652631D01*
X24020587Y-25480664D01*
X24020584Y-25480660D01*
X23874337Y-25334413D01*
X23874333Y-25334410D01*
X23702366Y-25219505D01*
X23702356Y-25219500D01*
X23511272Y-25140350D01*
X23511264Y-25140348D01*
X23308418Y-25100000D01*
X23254998Y-25100000D01*
X23254998Y-25826932D01*
X23247785Y-25825000D01*
X22762211Y-25825000D01*
X22754998Y-25826932D01*
X22754998Y-25100000D01*
X22701577Y-25100000D01*
X22498731Y-25140348D01*
X22498723Y-25140350D01*
X22307639Y-25219500D01*
X22307629Y-25219505D01*
X22135662Y-25334410D01*
X22135658Y-25334413D01*
X21989411Y-25480660D01*
X21989408Y-25480664D01*
X21874503Y-25652631D01*
X21874498Y-25652641D01*
X21795349Y-25843723D01*
X21795348Y-25843725D01*
X21784155Y-25900000D01*
X21213398Y-25900000D01*
X21184947Y-25844162D01*
X21076245Y-25694545D01*
X21076241Y-25694540D01*
X20945459Y-25563758D01*
X20945454Y-25563754D01*
X20795837Y-25455052D01*
X20631043Y-25371084D01*
X20631040Y-25371083D01*
X20455147Y-25313933D01*
X20272473Y-25285000D01*
X20255000Y-25285000D01*
X20255000Y-26110000D01*
X19755000Y-26110000D01*
X19755000Y-25285000D01*
X19737527Y-25285000D01*
X19554852Y-25313933D01*
X19378959Y-25371083D01*
X19378956Y-25371084D01*
X19214162Y-25455052D01*
X19064545Y-25563754D01*
X19064540Y-25563758D01*
X18962181Y-25666118D01*
X18900858Y-25699603D01*
X18831166Y-25694619D01*
X18775233Y-25652747D01*
X18750816Y-25587283D01*
X18750500Y-25578437D01*
X18750500Y-21881562D01*
X18770185Y-21814523D01*
X18822989Y-21768768D01*
X18892147Y-21758824D01*
X18955703Y-21787849D01*
X18962181Y-21793881D01*
X19064542Y-21896242D01*
X19064547Y-21896246D01*
X19214164Y-22004948D01*
X19378958Y-22088916D01*
X19378961Y-22088917D01*
X19554854Y-22146067D01*
X19737529Y-22175001D01*
X19755002Y-22175001D01*
X19755002Y-21350001D01*
X20255002Y-21350001D01*
X20255002Y-22175001D01*
X20272475Y-22175001D01*
X20455149Y-22146067D01*
X20631042Y-22088917D01*
X20631045Y-22088916D01*
X20795839Y-22004948D01*
X20945456Y-21896246D01*
X20945461Y-21896242D01*
X21076243Y-21765460D01*
X21076247Y-21765455D01*
X21184949Y-21615838D01*
X21259068Y-21470374D01*
X21268917Y-21451044D01*
X21268919Y-21451038D01*
X21326069Y-21275145D01*
X21330051Y-21250001D01*
X20499977Y-21250001D01*
X20535072Y-21214906D01*
X20581150Y-21135096D01*
X20601272Y-21060000D01*
X21784156Y-21060000D01*
X22595381Y-21060000D01*
X22544935Y-21110446D01*
X22502148Y-21184555D01*
X22479999Y-21267213D01*
X22479999Y-21352787D01*
X22502148Y-21435445D01*
X22544935Y-21509554D01*
X22595381Y-21560000D01*
X21784156Y-21560000D01*
X21795349Y-21616274D01*
X21795350Y-21616276D01*
X21874499Y-21807358D01*
X21874504Y-21807368D01*
X21989409Y-21979335D01*
X21989412Y-21979339D01*
X22135659Y-22125586D01*
X22135663Y-22125589D01*
X22307630Y-22240494D01*
X22307640Y-22240499D01*
X22498724Y-22319649D01*
X22498732Y-22319651D01*
X22701578Y-22359999D01*
X22701582Y-22360000D01*
X22754999Y-22360000D01*
X22754999Y-21633067D01*
X22762212Y-21635000D01*
X23247786Y-21635000D01*
X23254999Y-21633067D01*
X23254999Y-22360000D01*
X23308416Y-22360000D01*
X23308419Y-22359999D01*
X23511265Y-22319651D01*
X23511273Y-22319649D01*
X23702357Y-22240499D01*
X23702367Y-22240494D01*
X23874334Y-22125589D01*
X23874338Y-22125586D01*
X24020585Y-21979339D01*
X24020588Y-21979335D01*
X24135493Y-21807368D01*
X24135498Y-21807358D01*
X24214647Y-21616276D01*
X24214648Y-21616274D01*
X24225842Y-21560000D01*
X23414617Y-21560000D01*
X23465063Y-21509554D01*
X23507850Y-21435445D01*
X23529999Y-21352787D01*
X23529999Y-21267213D01*
X23507850Y-21184555D01*
X23465063Y-21110446D01*
X23414617Y-21060000D01*
X24225842Y-21060000D01*
X24214648Y-21003725D01*
X24214647Y-21003723D01*
X24135498Y-20812641D01*
X24135493Y-20812631D01*
X24020588Y-20640664D01*
X24020585Y-20640660D01*
X23874338Y-20494413D01*
X23874333Y-20494409D01*
X23867086Y-20489567D01*
X23867084Y-20489566D01*
X23717495Y-20389613D01*
X34679500Y-20389613D01*
X34679500Y-21590371D01*
X34679501Y-21590387D01*
X34689996Y-21693117D01*
X34745150Y-21859561D01*
X34745155Y-21859572D01*
X34837202Y-22008802D01*
X34837205Y-22008806D01*
X34961193Y-22132794D01*
X34961197Y-22132797D01*
X35110427Y-22224844D01*
X35110430Y-22224845D01*
X35110436Y-22224849D01*
X35192466Y-22252030D01*
X35249910Y-22291802D01*
X35276733Y-22356318D01*
X35264418Y-22425094D01*
X35226346Y-22470054D01*
X35132787Y-22538028D01*
X35132782Y-22538032D01*
X34988028Y-22682786D01*
X34867715Y-22848386D01*
X34774781Y-23030776D01*
X34711522Y-23225465D01*
X34679500Y-23427648D01*
X34679500Y-23632351D01*
X34711522Y-23834534D01*
X34774781Y-24029223D01*
X34810426Y-24099179D01*
X34862962Y-24202286D01*
X34867715Y-24211613D01*
X34988028Y-24377213D01*
X35132786Y-24521971D01*
X35287749Y-24634556D01*
X35298390Y-24642287D01*
X35370424Y-24678990D01*
X35391629Y-24689795D01*
X35442425Y-24737770D01*
X35459220Y-24805591D01*
X35436682Y-24871726D01*
X35391629Y-24910765D01*
X35298650Y-24958140D01*
X35133105Y-25078417D01*
X35133104Y-25078417D01*
X34988417Y-25223104D01*
X34988417Y-25223105D01*
X34868140Y-25388650D01*
X34775244Y-25570970D01*
X34712009Y-25765586D01*
X34703391Y-25820000D01*
X35731518Y-25820000D01*
X35720889Y-25838409D01*
X35680000Y-25991009D01*
X35680000Y-26148991D01*
X35720889Y-26301591D01*
X35731518Y-26320000D01*
X34703391Y-26320000D01*
X34712009Y-26374413D01*
X34775244Y-26569029D01*
X34868140Y-26751349D01*
X34988417Y-26916894D01*
X34988417Y-26916895D01*
X35133104Y-27061582D01*
X35298652Y-27181861D01*
X35391628Y-27229234D01*
X35442425Y-27277208D01*
X35459220Y-27345029D01*
X35436683Y-27411164D01*
X35391630Y-27450203D01*
X35298388Y-27497713D01*
X35132786Y-27618028D01*
X34988028Y-27762786D01*
X34867715Y-27928386D01*
X34774781Y-28110776D01*
X34711522Y-28305465D01*
X34679500Y-28507648D01*
X34679500Y-28712351D01*
X34711522Y-28914534D01*
X34774781Y-29109223D01*
X34826437Y-29210602D01*
X34844686Y-29246418D01*
X34867715Y-29291613D01*
X34988028Y-29457213D01*
X34988034Y-29457219D01*
X35132781Y-29601966D01*
X35254704Y-29690548D01*
X35297370Y-29745877D01*
X35303349Y-29815490D01*
X35270744Y-29877286D01*
X35220824Y-29908572D01*
X35110436Y-29945151D01*
X35110427Y-29945155D01*
X34961197Y-30037202D01*
X34961193Y-30037205D01*
X34837205Y-30161193D01*
X34837202Y-30161197D01*
X34745155Y-30310427D01*
X34745150Y-30310438D01*
X34689995Y-30476887D01*
X34679500Y-30579613D01*
X34679500Y-31780371D01*
X34679501Y-31780387D01*
X34689996Y-31883117D01*
X34745150Y-32049561D01*
X34745155Y-32049572D01*
X34837202Y-32198802D01*
X34837205Y-32198806D01*
X34961193Y-32322794D01*
X34961197Y-32322797D01*
X35110427Y-32414844D01*
X35110430Y-32414845D01*
X35110436Y-32414849D01*
X35193049Y-32442224D01*
X35250493Y-32481995D01*
X35277317Y-32546510D01*
X35265002Y-32615286D01*
X35226931Y-32660246D01*
X35133113Y-32728410D01*
X35133104Y-32728417D01*
X34988417Y-32873104D01*
X34988417Y-32873105D01*
X34868140Y-33038650D01*
X34775244Y-33220970D01*
X34712009Y-33415586D01*
X34703391Y-33470000D01*
X35731518Y-33470000D01*
X35720889Y-33488409D01*
X35680000Y-33641009D01*
X35680000Y-33798991D01*
X35720889Y-33951591D01*
X35731518Y-33970000D01*
X34703391Y-33970000D01*
X34712009Y-34024413D01*
X34775244Y-34219029D01*
X34868140Y-34401349D01*
X34988417Y-34566894D01*
X34988417Y-34566895D01*
X35133104Y-34711582D01*
X35298652Y-34831861D01*
X35391628Y-34879234D01*
X35442425Y-34927208D01*
X35459220Y-34995029D01*
X35436683Y-35061164D01*
X35391630Y-35100203D01*
X35298388Y-35147713D01*
X35132786Y-35268028D01*
X34988028Y-35412786D01*
X34867715Y-35578386D01*
X34774781Y-35760776D01*
X34711522Y-35955465D01*
X34679500Y-36157648D01*
X34679500Y-36362351D01*
X34711522Y-36564534D01*
X34774781Y-36759223D01*
X34838691Y-36884653D01*
X34864936Y-36936160D01*
X34867715Y-36941613D01*
X34988028Y-37107213D01*
X35132786Y-37251971D01*
X35249730Y-37336934D01*
X35298390Y-37372287D01*
X35372204Y-37409897D01*
X35391080Y-37419515D01*
X35441876Y-37467490D01*
X35458671Y-37535311D01*
X35436134Y-37601446D01*
X35391080Y-37640485D01*
X35298386Y-37687715D01*
X35132786Y-37808028D01*
X34988028Y-37952786D01*
X34867715Y-38118386D01*
X34774781Y-38300776D01*
X34711522Y-38495465D01*
X34679500Y-38697648D01*
X34679500Y-38902351D01*
X34711522Y-39104534D01*
X34774781Y-39299223D01*
X34867715Y-39481613D01*
X34988028Y-39647213D01*
X35132786Y-39791971D01*
X35287749Y-39904556D01*
X35298390Y-39912287D01*
X35414607Y-39971503D01*
X35480776Y-40005218D01*
X35480778Y-40005218D01*
X35480781Y-40005220D01*
X35534450Y-40022658D01*
X35675465Y-40068477D01*
X35766616Y-40082914D01*
X35877648Y-40100500D01*
X35877649Y-40100500D01*
X36682351Y-40100500D01*
X36682352Y-40100500D01*
X36884534Y-40068477D01*
X37079219Y-40005220D01*
X37261610Y-39912287D01*
X37354590Y-39844732D01*
X37427213Y-39791971D01*
X37427215Y-39791968D01*
X37427219Y-39791966D01*
X37571966Y-39647219D01*
X37571968Y-39647215D01*
X37571971Y-39647213D01*
X37624732Y-39574590D01*
X37692287Y-39481610D01*
X37785220Y-39299219D01*
X37848477Y-39104534D01*
X37880500Y-38902352D01*
X37880500Y-38697648D01*
X37848477Y-38495466D01*
X37832549Y-38446446D01*
X37785218Y-38300776D01*
X37733869Y-38200000D01*
X37692287Y-38118390D01*
X37684556Y-38107749D01*
X37571971Y-37952786D01*
X37427219Y-37808034D01*
X37362582Y-37761073D01*
X37261610Y-37687713D01*
X37165532Y-37638758D01*
X37162248Y-37636823D01*
X37140874Y-37613998D01*
X37118123Y-37592511D01*
X37117177Y-37588692D01*
X37114490Y-37585823D01*
X37108847Y-37555055D01*
X37101328Y-37524690D01*
X37102596Y-37520968D01*
X37101887Y-37517100D01*
X37113774Y-37488165D01*
X37123865Y-37458555D01*
X37127086Y-37455763D01*
X37128439Y-37452472D01*
X37141060Y-37443654D01*
X37168917Y-37419516D01*
X37261610Y-37372287D01*
X37310270Y-37336934D01*
X37427213Y-37251971D01*
X37427215Y-37251968D01*
X37427219Y-37251966D01*
X37571966Y-37107219D01*
X37571968Y-37107215D01*
X37571971Y-37107213D01*
X37624732Y-37034590D01*
X37692287Y-36941610D01*
X37785220Y-36759219D01*
X37848477Y-36564534D01*
X37880500Y-36362352D01*
X37880500Y-36157648D01*
X37848477Y-35955466D01*
X37785220Y-35760781D01*
X37785218Y-35760778D01*
X37785218Y-35760776D01*
X37751503Y-35694607D01*
X37692287Y-35578390D01*
X37684556Y-35567749D01*
X37571971Y-35412786D01*
X37427213Y-35268028D01*
X37261611Y-35147713D01*
X37168369Y-35100203D01*
X37117574Y-35052229D01*
X37100779Y-34984407D01*
X37123317Y-34918273D01*
X37168371Y-34879234D01*
X37261347Y-34831861D01*
X37426894Y-34711582D01*
X37426895Y-34711582D01*
X37571582Y-34566895D01*
X37571582Y-34566894D01*
X37691859Y-34401349D01*
X37784755Y-34219029D01*
X37847990Y-34024413D01*
X37856609Y-33970000D01*
X36828482Y-33970000D01*
X36839111Y-33951591D01*
X36880000Y-33798991D01*
X36880000Y-33641009D01*
X36839111Y-33488409D01*
X36828482Y-33470000D01*
X37856609Y-33470000D01*
X37847990Y-33415586D01*
X37784755Y-33220970D01*
X37691859Y-33038650D01*
X37571582Y-32873105D01*
X37571582Y-32873104D01*
X37426894Y-32728416D01*
X37333068Y-32660247D01*
X37290403Y-32604917D01*
X37284424Y-32535303D01*
X37317030Y-32473508D01*
X37366947Y-32442225D01*
X37449564Y-32414849D01*
X37598806Y-32322795D01*
X37722795Y-32198806D01*
X37814849Y-32049564D01*
X37870004Y-31883116D01*
X37880500Y-31780379D01*
X37880499Y-30579622D01*
X37870004Y-30476884D01*
X37814849Y-30310436D01*
X37814845Y-30310430D01*
X37814844Y-30310427D01*
X37722797Y-30161197D01*
X37722794Y-30161193D01*
X37598806Y-30037205D01*
X37598802Y-30037202D01*
X37449572Y-29945155D01*
X37449566Y-29945152D01*
X37449564Y-29945151D01*
X37422437Y-29936162D01*
X37339176Y-29908572D01*
X37329117Y-29901607D01*
X37317203Y-29898837D01*
X37300928Y-29882090D01*
X37281731Y-29868799D01*
X37277035Y-29857504D01*
X37268509Y-29848731D01*
X37263871Y-29825843D01*
X37254908Y-29804283D01*
X37257064Y-29792241D01*
X37254635Y-29780252D01*
X37263107Y-29758493D01*
X37267223Y-29735507D01*
X37276172Y-29724939D01*
X37279986Y-29715144D01*
X37305293Y-29690549D01*
X37427219Y-29601966D01*
X37571966Y-29457219D01*
X37571968Y-29457215D01*
X37571971Y-29457213D01*
X37686754Y-29299225D01*
X37692287Y-29291610D01*
X37785220Y-29109219D01*
X37848477Y-28914534D01*
X37880500Y-28712352D01*
X37880500Y-28507648D01*
X37878013Y-28491947D01*
X42480000Y-28491947D01*
X42480000Y-28728052D01*
X42516934Y-28961247D01*
X42589897Y-29185802D01*
X42697087Y-29396174D01*
X42757338Y-29479104D01*
X42757340Y-29479105D01*
X43415387Y-28821058D01*
X43420889Y-28841591D01*
X43499881Y-28978408D01*
X43611592Y-29090119D01*
X43748409Y-29169111D01*
X43768940Y-29174612D01*
X43110894Y-29832657D01*
X43115035Y-29885271D01*
X43115035Y-29904729D01*
X43110894Y-29957340D01*
X43768941Y-30615387D01*
X43748409Y-30620889D01*
X43611592Y-30699881D01*
X43499881Y-30811592D01*
X43420889Y-30948409D01*
X43415387Y-30968941D01*
X42757340Y-30310894D01*
X42697084Y-30393830D01*
X42589897Y-30604197D01*
X42516934Y-30828752D01*
X42480000Y-31061947D01*
X42480000Y-31298052D01*
X42516934Y-31531247D01*
X42589897Y-31755802D01*
X42697087Y-31966174D01*
X42757338Y-32049104D01*
X42757340Y-32049105D01*
X43415387Y-31391058D01*
X43420889Y-31411591D01*
X43499881Y-31548408D01*
X43611592Y-31660119D01*
X43748409Y-31739111D01*
X43768940Y-31744612D01*
X43110893Y-32402658D01*
X43193828Y-32462914D01*
X43404197Y-32570102D01*
X43628752Y-32643065D01*
X43628751Y-32643065D01*
X43861948Y-32680000D01*
X44098052Y-32680000D01*
X44331247Y-32643065D01*
X44555802Y-32570102D01*
X44766163Y-32462918D01*
X44766169Y-32462914D01*
X44849104Y-32402658D01*
X44849105Y-32402658D01*
X44191058Y-31744612D01*
X44211591Y-31739111D01*
X44348408Y-31660119D01*
X44460119Y-31548408D01*
X44539111Y-31411591D01*
X44544612Y-31391058D01*
X45202658Y-32049105D01*
X45202658Y-32049104D01*
X45262914Y-31966169D01*
X45262918Y-31966163D01*
X45370102Y-31755802D01*
X45443065Y-31531247D01*
X45480000Y-31298052D01*
X45480000Y-31061947D01*
X45443065Y-30828752D01*
X45370102Y-30604197D01*
X45262914Y-30393828D01*
X45202658Y-30310894D01*
X45202658Y-30310893D01*
X44544612Y-30968940D01*
X44539111Y-30948409D01*
X44460119Y-30811592D01*
X44348408Y-30699881D01*
X44211591Y-30620889D01*
X44191059Y-30615387D01*
X44849104Y-29957341D01*
X44844964Y-29904728D01*
X44844964Y-29885270D01*
X44849104Y-29832657D01*
X44191058Y-29174612D01*
X44211591Y-29169111D01*
X44348408Y-29090119D01*
X44460119Y-28978408D01*
X44539111Y-28841591D01*
X44544612Y-28821058D01*
X45202658Y-29479105D01*
X45202658Y-29479104D01*
X45262914Y-29396169D01*
X45262918Y-29396163D01*
X45370102Y-29185802D01*
X45443065Y-28961247D01*
X45480000Y-28728052D01*
X45480000Y-28491947D01*
X45443065Y-28258752D01*
X45370102Y-28034197D01*
X45262914Y-27823828D01*
X45202658Y-27740894D01*
X45202658Y-27740893D01*
X44544612Y-28398940D01*
X44539111Y-28378409D01*
X44460119Y-28241592D01*
X44348408Y-28129881D01*
X44211591Y-28050889D01*
X44191059Y-28045387D01*
X44849105Y-27387340D01*
X44849104Y-27387338D01*
X44766174Y-27327087D01*
X44555802Y-27219897D01*
X44331247Y-27146934D01*
X44331248Y-27146934D01*
X44098052Y-27110000D01*
X43861948Y-27110000D01*
X43628752Y-27146934D01*
X43404197Y-27219897D01*
X43193830Y-27327084D01*
X43110894Y-27387340D01*
X43768941Y-28045387D01*
X43748409Y-28050889D01*
X43611592Y-28129881D01*
X43499881Y-28241592D01*
X43420889Y-28378409D01*
X43415387Y-28398941D01*
X42757340Y-27740894D01*
X42697084Y-27823830D01*
X42589897Y-28034197D01*
X42516934Y-28258752D01*
X42480000Y-28491947D01*
X37878013Y-28491947D01*
X37877367Y-28487865D01*
X37848477Y-28305465D01*
X37810584Y-28188844D01*
X37785220Y-28110781D01*
X37785218Y-28110778D01*
X37785218Y-28110776D01*
X37733869Y-28010000D01*
X37692287Y-27928390D01*
X37684556Y-27917749D01*
X37571971Y-27762786D01*
X37427219Y-27618034D01*
X37332085Y-27548916D01*
X37261610Y-27497713D01*
X37165002Y-27448488D01*
X37161720Y-27446555D01*
X37140325Y-27423716D01*
X37117574Y-27402229D01*
X37116631Y-27398424D01*
X37113952Y-27395564D01*
X37108299Y-27364776D01*
X37100779Y-27334407D01*
X37102042Y-27330698D01*
X37101335Y-27326843D01*
X37113223Y-27297891D01*
X37123317Y-27268273D01*
X37126527Y-27265490D01*
X37127875Y-27262210D01*
X37140484Y-27253397D01*
X37168371Y-27229234D01*
X37261347Y-27181861D01*
X37426894Y-27061582D01*
X37426895Y-27061582D01*
X37571582Y-26916895D01*
X37571582Y-26916894D01*
X37691859Y-26751349D01*
X37784755Y-26569029D01*
X37847990Y-26374413D01*
X37856609Y-26320000D01*
X36828482Y-26320000D01*
X36839111Y-26301591D01*
X36880000Y-26148991D01*
X36880000Y-25991009D01*
X36839111Y-25838409D01*
X36828482Y-25820000D01*
X37856609Y-25820000D01*
X37847990Y-25765586D01*
X37784755Y-25570970D01*
X37691859Y-25388650D01*
X37571582Y-25223105D01*
X37571582Y-25223104D01*
X37426895Y-25078417D01*
X37261349Y-24958140D01*
X37168370Y-24910765D01*
X37117574Y-24862790D01*
X37100779Y-24794969D01*
X37123316Y-24728835D01*
X37168370Y-24689795D01*
X37261610Y-24642287D01*
X37282770Y-24626913D01*
X37427213Y-24521971D01*
X37427215Y-24521968D01*
X37427219Y-24521966D01*
X37571966Y-24377219D01*
X37571968Y-24377215D01*
X37571971Y-24377213D01*
X37624732Y-24304590D01*
X37692287Y-24211610D01*
X37785220Y-24029219D01*
X37848477Y-23834534D01*
X37880500Y-23632352D01*
X37880500Y-23427648D01*
X37848477Y-23225466D01*
X37785220Y-23030781D01*
X37785218Y-23030778D01*
X37785218Y-23030776D01*
X37728519Y-22919500D01*
X37692287Y-22848390D01*
X37684556Y-22837749D01*
X37571971Y-22682786D01*
X37427213Y-22538028D01*
X37333653Y-22470054D01*
X37290987Y-22414725D01*
X37285008Y-22345111D01*
X37317613Y-22283316D01*
X37367533Y-22252031D01*
X37449564Y-22224849D01*
X37598806Y-22132795D01*
X37722795Y-22008806D01*
X37814849Y-21859564D01*
X37870004Y-21693116D01*
X37880500Y-21590379D01*
X37880499Y-20389622D01*
X37870004Y-20286884D01*
X37814849Y-20120436D01*
X37814845Y-20120430D01*
X37814844Y-20120427D01*
X37722797Y-19971197D01*
X37722794Y-19971193D01*
X37598806Y-19847205D01*
X37598802Y-19847202D01*
X37449572Y-19755155D01*
X37449566Y-19755152D01*
X37449564Y-19755151D01*
X37283116Y-19699996D01*
X37283113Y-19699995D01*
X37283114Y-19699995D01*
X37180380Y-19689500D01*
X35379628Y-19689500D01*
X35379612Y-19689501D01*
X35276882Y-19699996D01*
X35110438Y-19755150D01*
X35110427Y-19755155D01*
X34961197Y-19847202D01*
X34961193Y-19847205D01*
X34837205Y-19971193D01*
X34837202Y-19971197D01*
X34745155Y-20120427D01*
X34745150Y-20120438D01*
X34689995Y-20286887D01*
X34679500Y-20389613D01*
X23717495Y-20389613D01*
X23702367Y-20379505D01*
X23702357Y-20379500D01*
X23511273Y-20300350D01*
X23511265Y-20300348D01*
X23308419Y-20260000D01*
X23254999Y-20260000D01*
X23254999Y-20986932D01*
X23247786Y-20985000D01*
X22762212Y-20985000D01*
X22754999Y-20986932D01*
X22754999Y-20260000D01*
X22701578Y-20260000D01*
X22498732Y-20300348D01*
X22498724Y-20300350D01*
X22307640Y-20379500D01*
X22307630Y-20379505D01*
X22135663Y-20494410D01*
X22135659Y-20494413D01*
X21989412Y-20640660D01*
X21989409Y-20640664D01*
X21874504Y-20812631D01*
X21874499Y-20812641D01*
X21795350Y-21003723D01*
X21795349Y-21003725D01*
X21784156Y-21060000D01*
X20601272Y-21060000D01*
X20605002Y-21046079D01*
X20605002Y-20953923D01*
X20581150Y-20864906D01*
X20535072Y-20785096D01*
X20499977Y-20750001D01*
X21330052Y-20750001D01*
X21330051Y-20750000D01*
X21326069Y-20724856D01*
X21268919Y-20548963D01*
X21268917Y-20548957D01*
X21184949Y-20384163D01*
X21076247Y-20234546D01*
X21076243Y-20234541D01*
X20945461Y-20103759D01*
X20945456Y-20103755D01*
X20795839Y-19995053D01*
X20631045Y-19911085D01*
X20631042Y-19911084D01*
X20455149Y-19853934D01*
X20272475Y-19825001D01*
X20255002Y-19825001D01*
X20255002Y-20650001D01*
X19755002Y-20650001D01*
X19755002Y-19825001D01*
X19737529Y-19825001D01*
X19554854Y-19853934D01*
X19378961Y-19911084D01*
X19378958Y-19911085D01*
X19214164Y-19995053D01*
X19064547Y-20103755D01*
X19064542Y-20103759D01*
X18962181Y-20206121D01*
X18900858Y-20239606D01*
X18831166Y-20234622D01*
X18775233Y-20192750D01*
X18750816Y-20127286D01*
X18750500Y-20118440D01*
X18750500Y-19030922D01*
X18770185Y-18963883D01*
X18822989Y-18918128D01*
X18892147Y-18908184D01*
X18955703Y-18937209D01*
X18984985Y-18974629D01*
X18990476Y-18985405D01*
X19106172Y-19144646D01*
X19245354Y-19283828D01*
X19404595Y-19399524D01*
X19487455Y-19441743D01*
X19579970Y-19488882D01*
X19579972Y-19488882D01*
X19579975Y-19488884D01*
X19675355Y-19519875D01*
X19767173Y-19549709D01*
X19961578Y-19580500D01*
X19961583Y-19580500D01*
X20158422Y-19580500D01*
X20352826Y-19549709D01*
X20392931Y-19536678D01*
X20540025Y-19488884D01*
X20715405Y-19399524D01*
X20874646Y-19283828D01*
X21013828Y-19144646D01*
X21129524Y-18985405D01*
X21218884Y-18810025D01*
X21279709Y-18622826D01*
X21310500Y-18428422D01*
X21310500Y-18231577D01*
X21279709Y-18037173D01*
X21218882Y-17849970D01*
X21135015Y-17685372D01*
X21129524Y-17674595D01*
X21013828Y-17515354D01*
X20874646Y-17376172D01*
X20715405Y-17260476D01*
X20540029Y-17171117D01*
X20352826Y-17110290D01*
X20205604Y-17086973D01*
X20142469Y-17057044D01*
X20105538Y-16997732D01*
X20106536Y-16927870D01*
X20145146Y-16869637D01*
X20209110Y-16841523D01*
X20225002Y-16840500D01*
X44094998Y-16840500D01*
X44162037Y-16860185D01*
G37*
%TD.AperFunction*%
%TD*%
M02*
