M48
; DRILL file {KiCad 9.0.4} date 2025-12-13T14:12:57+0100
; FORMAT={-:-/ absolute / metric / decimal}
; #@! TF.CreationDate,2025-12-13T14:12:57+01:00
; #@! TF.GenerationSoftware,Kicad,Pcbnew,9.0.4
; #@! TF.FileFunction,Plated,1,2,PTH
FMAT,2
METRIC
; #@! TA.AperFunction,Plated,PTH,ViaDrill
T1C0.300
; #@! TA.AperFunction,Plated,PTH,ComponentDrill
T2C0.650
; #@! TA.AperFunction,Plated,PTH,ComponentDrill
T3C0.700
; #@! TA.AperFunction,Plated,PTH,ViaDrill
T4C1.200
; #@! TA.AperFunction,Plated,PTH,ComponentDrill
T5C1.200
%
G90
G05
T1
X19.16Y-33.93
X19.16Y-37.32
X19.17Y-32.28
X20.31Y-38.55
X20.37Y-30.98
X21.21Y-29.1
X21.64Y-28.15
X22.88Y-33.23
X24.6Y-27.36
X24.795Y-32.09
X24.795Y-37.015
X25.07Y-28.05
X25.16Y-23.72
X25.16Y-26.17
X25.17Y-39.96
X25.93Y-36.69
X26.58Y-41.3
X26.675Y-33.97
X27.23Y-31.11
X27.37Y-28.89
X27.6Y-23.07
X27.79Y-39.9
X27.825Y-27.94
X27.98Y-36.9
X27.99Y-29.92
X28.035Y-38.345
X28.63Y-21.25
X28.76Y-24.26
X29.61Y-32.41
X29.935Y-28.11
X29.98Y-19.93
X30.59Y-36.6
X30.64Y-41.32
X30.82Y-33.6
X31.02Y-30.98
X31.62Y-27.5
X31.7Y-19.96
X31.84Y-29.26
X32.22Y-41.31
X32.36Y-36.54
X33.01Y-21.33
X33.05Y-26.04
X33.56Y-39.89
X40.55Y-24.26
X40.59Y-37.51
T4
X20.06Y-18.33
X20.06Y-41.39
X44.26Y-18.33
X44.26Y-41.39
T5
X36.28Y-20.99
X36.28Y-23.53
X36.28Y-26.07
X36.28Y-28.61
X36.28Y-31.18
X36.28Y-33.72
X36.28Y-36.26
X36.28Y-38.8
X43.98Y-20.99
X43.98Y-28.61
X43.98Y-31.18
X43.98Y-38.8
T2
G00X22.805Y-26.15
M15
G01X23.205Y-26.15
M16
G05
G00X22.805Y-21.31
M15
G01X23.205Y-21.31
M16
G05
T3
G00X19.755Y-26.46
M15
G01X20.255Y-26.46
M16
G05
G00X19.755Y-21.0
M15
G01X20.255Y-21.0
M16
G05
M30
